<svg width="31" height="31" fill="none" xmlns="http://www.w3.org/2000/svg"><path d="M2.583 15.953h7.492c1.976 0 3.332 1.498 3.332 3.332v4.16c0 1.834-1.356 3.332-3.332 3.332h-4.16a3.34 3.34 0 01-3.332-3.333v-7.491m0 0c0-7.815 1.46-9.107 5.851-11.716m9.172 11.716h7.491c1.976 0 3.333 1.498 3.333 3.332v4.16c0 1.834-1.357 3.332-3.333 3.332h-4.159a3.34 3.34 0 01-3.332-3.333v-7.491m0 0c0-7.815 1.46-9.107 5.85-11.716" stroke="#fff" stroke-opacity=".5" stroke-width="2" stroke-linecap="round" stroke-linejoin="round"/></svg>