<svg xmlns="http://www.w3.org/2000/svg" width="390" height="80" viewBox="0 0 390 80" fill="none"><path d="M104.096 77.288C102.464 77.288 101.048 76.928 99.848 76.208C98.664 75.472 97.752 74.456 97.112 73.16C96.472 71.848 96.152 70.328 96.152 68.6C96.152 66.872 96.472 65.36 97.112 64.064C97.752 62.752 98.664 61.736 99.848 61.016C101.048 60.28 102.464 59.912 104.096 59.912C106.016 59.912 107.576 60.368 108.776 61.28C109.976 62.192 110.744 63.48 111.08 65.144H108.848C108.592 64.104 108.072 63.272 107.288 62.648C106.504 62.008 105.44 61.688 104.096 61.688C102.912 61.688 101.872 61.968 100.976 62.528C100.096 63.072 99.416 63.864 98.936 64.904C98.456 65.928 98.216 67.16 98.216 68.6C98.216 70.04 98.456 71.28 98.936 72.32C99.416 73.344 100.096 74.136 100.976 74.696C101.872 75.24 102.912 75.512 104.096 75.512C105.44 75.512 106.504 75.208 107.288 74.6C108.072 73.976 108.592 73.152 108.848 72.128H111.08C110.744 73.744 109.976 75.008 108.776 75.92C107.576 76.832 106.016 77.288 104.096 77.288ZM119.283 77.288C118.163 77.288 117.155 77.032 116.259 76.52C115.363 75.992 114.659 75.256 114.147 74.312C113.635 73.352 113.379 72.24 113.379 70.976C113.379 69.68 113.635 68.56 114.147 67.616C114.675 66.656 115.387 65.92 116.283 65.408C117.195 64.88 118.211 64.616 119.331 64.616C120.483 64.616 121.499 64.88 122.379 65.408C123.275 65.92 123.979 66.656 124.491 67.616C125.019 68.56 125.283 69.672 125.283 70.952C125.283 72.232 125.019 73.352 124.491 74.312C123.963 75.256 123.251 75.992 122.355 76.52C121.459 77.032 120.435 77.288 119.283 77.288ZM119.307 75.56C119.995 75.56 120.635 75.392 121.227 75.056C121.819 74.704 122.299 74.184 122.667 73.496C123.035 72.808 123.219 71.96 123.219 70.952C123.219 69.928 123.035 69.08 122.667 68.408C122.315 67.72 121.843 67.208 121.251 66.872C120.675 66.52 120.035 66.344 119.331 66.344C118.659 66.344 118.019 66.52 117.411 66.872C116.819 67.208 116.339 67.72 115.971 68.408C115.619 69.08 115.443 69.928 115.443 70.952C115.443 71.96 115.619 72.808 115.971 73.496C116.339 74.184 116.811 74.704 117.387 75.056C117.979 75.392 118.619 75.56 119.307 75.56ZM132.502 77.288C131.574 77.288 130.758 77.104 130.054 76.736C129.366 76.368 128.83 75.8 128.446 75.032C128.078 74.264 127.894 73.304 127.894 72.152V64.904H129.91V71.936C129.91 73.136 130.174 74.04 130.702 74.648C131.23 75.256 131.974 75.56 132.934 75.56C133.606 75.56 134.214 75.4 134.758 75.08C135.302 74.744 135.726 74.272 136.03 73.664C136.35 73.04 136.51 72.272 136.51 71.36V64.904H138.526V77H136.702L136.582 74.888C136.214 75.64 135.67 76.232 134.95 76.664C134.23 77.08 133.414 77.288 132.502 77.288ZM141.868 77V64.904H143.692L143.836 67.208C144.108 66.664 144.452 66.2 144.868 65.816C145.3 65.432 145.812 65.136 146.404 64.928C147.012 64.72 147.7 64.616 148.468 64.616V66.728H147.724C147.212 66.728 146.724 66.8 146.26 66.944C145.796 67.072 145.38 67.288 145.012 67.592C144.66 67.896 144.38 68.312 144.172 68.84C143.98 69.352 143.884 69.992 143.884 70.76V77H141.868ZM150.942 77V64.904H152.958V77H150.942ZM151.95 62.336C151.55 62.336 151.214 62.208 150.942 61.952C150.686 61.68 150.558 61.344 150.558 60.944C150.558 60.544 150.686 60.224 150.942 59.984C151.214 59.728 151.55 59.6 151.95 59.6C152.334 59.6 152.662 59.728 152.934 59.984C153.206 60.224 153.342 60.544 153.342 60.944C153.342 61.344 153.206 61.68 152.934 61.952C152.662 62.208 152.334 62.336 151.95 62.336ZM161.82 77.288C160.7 77.288 159.7 77.024 158.82 76.496C157.94 75.968 157.252 75.232 156.756 74.288C156.26 73.328 156.012 72.216 156.012 70.952C156.012 69.672 156.252 68.56 156.732 67.616C157.228 66.672 157.916 65.936 158.796 65.408C159.692 64.88 160.716 64.616 161.868 64.616C163.052 64.616 164.06 64.88 164.892 65.408C165.724 65.936 166.356 66.632 166.788 67.496C167.236 68.344 167.46 69.28 167.46 70.304C167.46 70.464 167.46 70.632 167.46 70.808C167.46 70.984 167.452 71.184 167.436 71.408H157.524V69.848H165.468C165.42 68.744 165.052 67.88 164.364 67.256C163.692 66.632 162.844 66.32 161.82 66.32C161.148 66.32 160.516 66.48 159.924 66.8C159.332 67.104 158.86 67.56 158.508 68.168C158.156 68.76 157.98 69.504 157.98 70.4V71.072C157.98 72.064 158.156 72.896 158.508 73.568C158.876 74.24 159.348 74.744 159.924 75.08C160.516 75.416 161.148 75.584 161.82 75.584C162.668 75.584 163.364 75.4 163.908 75.032C164.468 74.648 164.876 74.128 165.132 73.472H167.124C166.916 74.208 166.572 74.864 166.092 75.44C165.612 76 165.012 76.448 164.292 76.784C163.588 77.12 162.764 77.288 161.82 77.288ZM170.157 77V64.904H171.981L172.125 67.208C172.397 66.664 172.741 66.2 173.157 65.816C173.589 65.432 174.101 65.136 174.693 64.928C175.301 64.72 175.989 64.616 176.757 64.616V66.728H176.013C175.501 66.728 175.013 66.8 174.549 66.944C174.085 67.072 173.669 67.288 173.301 67.592C172.949 67.896 172.669 68.312 172.461 68.84C172.269 69.352 172.173 69.992 172.173 70.76V77H170.157ZM190.886 77.288C189.654 77.288 188.582 77.064 187.67 76.616C186.758 76.168 186.054 75.544 185.558 74.744C185.062 73.944 184.814 73.016 184.814 71.96H186.926C186.926 72.616 187.078 73.224 187.382 73.784C187.686 74.328 188.126 74.768 188.702 75.104C189.294 75.424 190.022 75.584 190.886 75.584C191.638 75.584 192.278 75.464 192.806 75.224C193.35 74.968 193.758 74.624 194.03 74.192C194.318 73.76 194.462 73.272 194.462 72.728C194.462 72.072 194.318 71.544 194.03 71.144C193.758 70.728 193.382 70.392 192.902 70.136C192.422 69.88 191.862 69.656 191.222 69.464C190.598 69.256 189.942 69.032 189.254 68.792C187.926 68.344 186.95 67.792 186.326 67.136C185.702 66.464 185.39 65.592 185.39 64.52C185.39 63.608 185.598 62.808 186.014 62.12C186.446 61.432 187.054 60.896 187.838 60.512C188.638 60.112 189.582 59.912 190.67 59.912C191.742 59.912 192.67 60.112 193.454 60.512C194.254 60.912 194.878 61.464 195.326 62.168C195.774 62.856 195.998 63.656 195.998 64.568H193.886C193.886 64.104 193.766 63.648 193.526 63.2C193.286 62.752 192.918 62.384 192.422 62.096C191.942 61.792 191.334 61.64 190.598 61.64C189.99 61.624 189.446 61.728 188.966 61.952C188.502 62.16 188.134 62.464 187.862 62.864C187.606 63.264 187.478 63.752 187.478 64.328C187.478 64.872 187.59 65.312 187.814 65.648C188.054 65.984 188.39 66.272 188.822 66.512C189.27 66.736 189.79 66.944 190.382 67.136C190.974 67.328 191.63 67.544 192.35 67.784C193.166 68.056 193.886 68.392 194.51 68.792C195.15 69.176 195.646 69.672 195.998 70.28C196.366 70.888 196.55 71.664 196.55 72.608C196.55 73.408 196.334 74.168 195.902 74.888C195.486 75.592 194.862 76.168 194.03 76.616C193.198 77.064 192.15 77.288 190.886 77.288ZM204.64 77.288C203.52 77.288 202.52 77.024 201.64 76.496C200.76 75.968 200.072 75.232 199.576 74.288C199.08 73.328 198.832 72.216 198.832 70.952C198.832 69.672 199.072 68.56 199.552 67.616C200.048 66.672 200.736 65.936 201.616 65.408C202.512 64.88 203.536 64.616 204.688 64.616C205.872 64.616 206.88 64.88 207.712 65.408C208.544 65.936 209.176 66.632 209.608 67.496C210.056 68.344 210.28 69.28 210.28 70.304C210.28 70.464 210.28 70.632 210.28 70.808C210.28 70.984 210.272 71.184 210.256 71.408H200.344V69.848H208.288C208.24 68.744 207.872 67.88 207.184 67.256C206.512 66.632 205.664 66.32 204.64 66.32C203.968 66.32 203.336 66.48 202.744 66.8C202.152 67.104 201.68 67.56 201.328 68.168C200.976 68.76 200.8 69.504 200.8 70.4V71.072C200.8 72.064 200.976 72.896 201.328 73.568C201.696 74.24 202.168 74.744 202.744 75.08C203.336 75.416 203.968 75.584 204.64 75.584C205.488 75.584 206.184 75.4 206.728 75.032C207.288 74.648 207.696 74.128 207.952 73.472H209.944C209.736 74.208 209.392 74.864 208.912 75.44C208.432 76 207.832 76.448 207.112 76.784C206.408 77.12 205.584 77.288 204.64 77.288ZM212.977 77V64.904H214.801L214.945 67.208C215.217 66.664 215.561 66.2 215.977 65.816C216.409 65.432 216.921 65.136 217.513 64.928C218.121 64.72 218.809 64.616 219.577 64.616V66.728H218.833C218.321 66.728 217.833 66.8 217.369 66.944C216.905 67.072 216.489 67.288 216.121 67.592C215.769 67.896 215.489 68.312 215.281 68.84C215.089 69.352 214.993 69.992 214.993 70.76V77H212.977ZM225.34 77L220.756 64.904H222.868L226.516 75.056L230.188 64.904H232.252L227.668 77H225.34ZM234.708 77V64.904H236.724V77H234.708ZM235.716 62.336C235.316 62.336 234.98 62.208 234.708 61.952C234.452 61.68 234.324 61.344 234.324 60.944C234.324 60.544 234.452 60.224 234.708 59.984C234.98 59.728 235.316 59.6 235.716 59.6C236.1 59.6 236.428 59.728 236.7 59.984C236.972 60.224 237.108 60.544 237.108 60.944C237.108 61.344 236.972 61.68 236.7 61.952C236.428 62.208 236.1 62.336 235.716 62.336ZM245.73 77.288C244.594 77.288 243.57 77.024 242.658 76.496C241.762 75.968 241.058 75.232 240.546 74.288C240.034 73.328 239.778 72.224 239.778 70.976C239.778 69.696 240.034 68.584 240.546 67.64C241.058 66.696 241.762 65.96 242.658 65.432C243.57 64.888 244.594 64.616 245.73 64.616C247.17 64.616 248.37 64.992 249.33 65.744C250.29 66.48 250.898 67.472 251.154 68.72H249.09C248.93 67.968 248.538 67.384 247.914 66.968C247.29 66.552 246.554 66.344 245.706 66.344C245.018 66.344 244.378 66.52 243.786 66.872C243.21 67.208 242.738 67.72 242.37 68.408C242.018 69.096 241.842 69.944 241.842 70.952C241.842 71.704 241.946 72.376 242.154 72.968C242.362 73.544 242.642 74.024 242.994 74.408C243.346 74.792 243.754 75.088 244.218 75.296C244.698 75.488 245.194 75.584 245.706 75.584C246.282 75.584 246.802 75.496 247.266 75.32C247.73 75.128 248.122 74.848 248.442 74.48C248.762 74.112 248.978 73.68 249.09 73.184H251.154C250.898 74.4 250.282 75.392 249.306 76.16C248.346 76.912 247.154 77.288 245.73 77.288ZM259.32 77.288C258.2 77.288 257.2 77.024 256.32 76.496C255.44 75.968 254.752 75.232 254.256 74.288C253.76 73.328 253.512 72.216 253.512 70.952C253.512 69.672 253.752 68.56 254.232 67.616C254.728 66.672 255.416 65.936 256.296 65.408C257.192 64.88 258.216 64.616 259.368 64.616C260.552 64.616 261.56 64.88 262.392 65.408C263.224 65.936 263.856 66.632 264.288 67.496C264.736 68.344 264.96 69.28 264.96 70.304C264.96 70.464 264.96 70.632 264.96 70.808C264.96 70.984 264.952 71.184 264.936 71.408H255.024V69.848H262.968C262.92 68.744 262.552 67.88 261.864 67.256C261.192 66.632 260.344 66.32 259.32 66.32C258.648 66.32 258.016 66.48 257.424 66.8C256.832 67.104 256.36 67.56 256.008 68.168C255.656 68.76 255.48 69.504 255.48 70.4V71.072C255.48 72.064 255.656 72.896 256.008 73.568C256.376 74.24 256.848 74.744 257.424 75.08C258.016 75.416 258.648 75.584 259.32 75.584C260.168 75.584 260.864 75.4 261.408 75.032C261.968 74.648 262.376 74.128 262.632 73.472H264.624C264.416 74.208 264.072 74.864 263.592 75.44C263.112 76 262.512 76.448 261.792 76.784C261.088 77.12 260.264 77.288 259.32 77.288ZM274.152 77V60.2H276.168V75.392H283.992V77H274.152ZM286.88 77V64.904H288.896V77H286.88ZM287.888 62.336C287.488 62.336 287.152 62.208 286.88 61.952C286.624 61.68 286.496 61.344 286.496 60.944C286.496 60.544 286.624 60.224 286.88 59.984C287.152 59.728 287.488 59.6 287.888 59.6C288.272 59.6 288.6 59.728 288.872 59.984C289.144 60.224 289.28 60.544 289.28 60.944C289.28 61.344 289.144 61.68 288.872 61.952C288.6 62.208 288.272 62.336 287.888 62.336ZM292.453 77V64.904H294.277L294.397 66.632C294.781 66.008 295.293 65.52 295.933 65.168C296.589 64.8 297.301 64.616 298.069 64.616C298.693 64.616 299.253 64.704 299.749 64.88C300.261 65.04 300.709 65.296 301.093 65.648C301.493 65.984 301.805 66.416 302.029 66.944C302.445 66.208 303.021 65.64 303.757 65.24C304.493 64.824 305.269 64.616 306.085 64.616C307.029 64.616 307.845 64.808 308.533 65.192C309.221 65.56 309.757 66.128 310.141 66.896C310.525 67.648 310.717 68.608 310.717 69.776V77H308.725V69.992C308.725 68.776 308.477 67.864 307.981 67.256C307.485 66.648 306.781 66.344 305.869 66.344C305.245 66.344 304.685 66.512 304.189 66.848C303.693 67.168 303.301 67.64 303.013 68.264C302.725 68.888 302.581 69.656 302.581 70.568V77H300.565V69.992C300.565 68.776 300.317 67.864 299.821 67.256C299.325 66.648 298.629 66.344 297.733 66.344C297.125 66.344 296.573 66.512 296.077 66.848C295.581 67.168 295.189 67.64 294.901 68.264C294.613 68.888 294.469 69.656 294.469 70.568V77H292.453ZM314.02 77V64.904H316.036V77H314.02ZM315.028 62.336C314.628 62.336 314.292 62.208 314.02 61.952C313.764 61.68 313.636 61.344 313.636 60.944C313.636 60.544 313.764 60.224 314.02 59.984C314.292 59.728 314.628 59.6 315.028 59.6C315.412 59.6 315.74 59.728 316.012 59.984C316.284 60.224 316.42 60.544 316.42 60.944C316.42 61.344 316.284 61.68 316.012 61.952C315.74 62.208 315.412 62.336 315.028 62.336ZM324.346 77C323.626 77 323.002 76.888 322.474 76.664C321.946 76.44 321.538 76.064 321.25 75.536C320.978 74.992 320.842 74.264 320.842 73.352V66.608H318.73V64.904H320.842L321.106 61.976H322.858V64.904H326.362V66.608H322.858V73.352C322.858 74.104 323.01 74.616 323.314 74.888C323.618 75.144 324.154 75.272 324.922 75.272H326.218V77H324.346ZM333.968 77.288C332.848 77.288 331.848 77.024 330.968 76.496C330.088 75.968 329.4 75.232 328.904 74.288C328.408 73.328 328.16 72.216 328.16 70.952C328.16 69.672 328.4 68.56 328.88 67.616C329.376 66.672 330.064 65.936 330.944 65.408C331.84 64.88 332.864 64.616 334.016 64.616C335.2 64.616 336.208 64.88 337.04 65.408C337.872 65.936 338.504 66.632 338.936 67.496C339.384 68.344 339.608 69.28 339.608 70.304C339.608 70.464 339.608 70.632 339.608 70.808C339.608 70.984 339.6 71.184 339.584 71.408H329.672V69.848H337.616C337.568 68.744 337.2 67.88 336.512 67.256C335.84 66.632 334.992 66.32 333.968 66.32C333.296 66.32 332.664 66.48 332.072 66.8C331.48 67.104 331.008 67.56 330.656 68.168C330.304 68.76 330.128 69.504 330.128 70.4V71.072C330.128 72.064 330.304 72.896 330.656 73.568C331.024 74.24 331.496 74.744 332.072 75.08C332.664 75.416 333.296 75.584 333.968 75.584C334.816 75.584 335.512 75.4 336.056 75.032C336.616 74.648 337.024 74.128 337.28 73.472H339.272C339.064 74.208 338.72 74.864 338.24 75.44C337.76 76 337.16 76.448 336.44 76.784C335.736 77.12 334.912 77.288 333.968 77.288ZM347.657 77.288C346.489 77.288 345.457 77.016 344.561 76.472C343.681 75.912 343.001 75.152 342.521 74.192C342.041 73.232 341.801 72.144 341.801 70.928C341.801 69.712 342.041 68.632 342.521 67.688C343.001 66.728 343.681 65.976 344.561 65.432C345.457 64.888 346.497 64.616 347.681 64.616C348.657 64.616 349.513 64.816 350.249 65.216C351.001 65.616 351.585 66.176 352.001 66.896V59.72H354.017V77H352.193L352.001 75.008C351.745 75.408 351.417 75.784 351.017 76.136C350.617 76.472 350.137 76.752 349.577 76.976C349.033 77.184 348.393 77.288 347.657 77.288ZM347.873 75.536C348.673 75.536 349.377 75.344 349.985 74.96C350.593 74.576 351.065 74.048 351.401 73.376C351.753 72.688 351.929 71.88 351.929 70.952C351.929 70.04 351.753 69.24 351.401 68.552C351.065 67.864 350.593 67.328 349.985 66.944C349.377 66.56 348.673 66.368 347.873 66.368C347.105 66.368 346.409 66.56 345.785 66.944C345.177 67.328 344.705 67.864 344.369 68.552C344.033 69.24 343.865 70.04 343.865 70.952C343.865 71.88 344.033 72.688 344.369 73.376C344.705 74.048 345.177 74.576 345.785 74.96C346.409 75.344 347.105 75.536 347.873 75.536Z" fill="#707376"></path><path d="M101.6 30V25.16H108.76C110.573 25.16 112.16 24.7867 113.52 24.04C114.88 23.2667 115.933 22.1867 116.68 20.8C117.453 19.4133 117.84 17.7733 117.84 15.88C117.84 14.04 117.453 12.44 116.68 11.08C115.907 9.69333 114.84 8.62667 113.48 7.88C112.12 7.10667 110.547 6.72 108.76 6.72H101.48V1.88H108.84C110.92 1.88 112.84 2.22667 114.6 2.92C116.387 3.61333 117.933 4.6 119.24 5.88C120.573 7.13333 121.6 8.61333 122.32 10.32C123.067 12.0267 123.44 13.8933 123.44 15.92C123.44 17.9467 123.067 19.8267 122.32 21.56C121.6 23.2667 120.587 24.76 119.28 26.04C117.973 27.2933 116.427 28.2667 114.64 28.96C112.88 29.6533 110.973 30 108.92 30H101.6ZM97.88 30V1.88H103.32V30H97.88ZM136.443 30.4C134.416 30.4 132.616 29.9733 131.043 29.12C129.469 28.24 128.216 27.04 127.283 25.52C126.376 24 125.923 22.2667 125.923 20.32C125.923 18.4 126.363 16.6933 127.243 15.2C128.149 13.68 129.376 12.48 130.923 11.6C132.469 10.6933 134.189 10.24 136.083 10.24C137.949 10.24 139.589 10.6667 141.003 11.52C142.443 12.3467 143.563 13.4933 144.363 14.96C145.189 16.4 145.603 18.04 145.603 19.88C145.603 20.2267 145.576 20.5867 145.523 20.96C145.496 21.3067 145.429 21.7067 145.323 22.16L129.083 22.2V18.28L142.883 18.24L140.763 19.88C140.709 18.7333 140.496 17.7733 140.123 17C139.776 16.2267 139.256 15.64 138.563 15.24C137.896 14.8133 137.069 14.6 136.083 14.6C135.043 14.6 134.136 14.84 133.363 15.32C132.589 15.7733 131.989 16.4267 131.563 17.28C131.163 18.1067 130.963 19.0933 130.963 20.24C130.963 21.4133 131.176 22.44 131.603 23.32C132.056 24.1733 132.696 24.84 133.523 25.32C134.349 25.7733 135.309 26 136.403 26C137.389 26 138.283 25.84 139.083 25.52C139.883 25.1733 140.576 24.6667 141.163 24L144.243 27.08C143.309 28.1733 142.163 29 140.803 29.56C139.469 30.12 138.016 30.4 136.443 30.4ZM148.843 30V1.08H154.083V30H148.843ZM158.726 30V10.68H164.006V30H158.726ZM161.366 7.56C160.513 7.56 159.806 7.28 159.246 6.72C158.686 6.13333 158.406 5.41333 158.406 4.56C158.406 3.73333 158.686 3.02667 159.246 2.44C159.806 1.85333 160.513 1.56 161.366 1.56C162.246 1.56 162.953 1.85333 163.486 2.44C164.046 3.02667 164.326 3.73333 164.326 4.56C164.326 5.41333 164.046 6.13333 163.486 6.72C162.953 7.28 162.246 7.56 161.366 7.56ZM174.928 30L166.408 10.68H172.168L178.288 26.6H175.448L181.608 10.68H187.168L178.688 30H174.928ZM198.24 30.4C196.213 30.4 194.413 29.9733 192.84 29.12C191.266 28.24 190.013 27.04 189.08 25.52C188.173 24 187.72 22.2667 187.72 20.32C187.72 18.4 188.16 16.6933 189.04 15.2C189.946 13.68 191.173 12.48 192.72 11.6C194.266 10.6933 195.986 10.24 197.88 10.24C199.746 10.24 201.386 10.6667 202.8 11.52C204.24 12.3467 205.36 13.4933 206.16 14.96C206.986 16.4 207.4 18.04 207.4 19.88C207.4 20.2267 207.373 20.5867 207.32 20.96C207.293 21.3067 207.226 21.7067 207.12 22.16L190.88 22.2V18.28L204.68 18.24L202.56 19.88C202.506 18.7333 202.293 17.7733 201.92 17C201.573 16.2267 201.053 15.64 200.36 15.24C199.693 14.8133 198.866 14.6 197.88 14.6C196.84 14.6 195.933 14.84 195.16 15.32C194.386 15.7733 193.786 16.4267 193.36 17.28C192.96 18.1067 192.76 19.0933 192.76 20.24C192.76 21.4133 192.973 22.44 193.4 23.32C193.853 24.1733 194.493 24.84 195.32 25.32C196.146 25.7733 197.106 26 198.2 26C199.186 26 200.08 25.84 200.88 25.52C201.68 25.1733 202.373 24.6667 202.96 24L206.04 27.08C205.106 28.1733 203.96 29 202.6 29.56C201.266 30.12 199.813 30.4 198.24 30.4ZM210.64 30V10.68H215.88V30H210.64ZM215.88 19.32L213.84 17.96C214.08 15.5867 214.774 13.72 215.92 12.36C217.067 10.9733 218.72 10.28 220.88 10.28C221.814 10.28 222.654 10.44 223.4 10.76C224.147 11.0533 224.827 11.5467 225.44 12.24L222.16 16C221.867 15.68 221.507 15.44 221.08 15.28C220.68 15.12 220.214 15.04 219.68 15.04C218.56 15.04 217.64 15.4 216.92 16.12C216.227 16.8133 215.88 17.88 215.88 19.32ZM233.166 30.16L225.086 10.68H230.766L236.126 25.56H234.206L239.766 10.68H245.486L236.886 30.16H233.166ZM227.806 38.08L233.686 25.64L236.886 30.16L233.366 38.08H227.806ZM269.553 30.4C267.499 30.4 265.593 30.04 263.833 29.32C262.073 28.5733 260.526 27.5467 259.193 26.24C257.886 24.9067 256.873 23.36 256.153 21.6C255.459 19.84 255.113 17.9467 255.113 15.92C255.113 13.8933 255.459 12 256.153 10.24C256.873 8.48 257.886 6.94667 259.193 5.64C260.526 4.33333 262.059 3.30666 263.793 2.56C265.553 1.81333 267.473 1.44 269.553 1.44C271.793 1.44 273.766 1.81333 275.473 2.56C277.179 3.28 278.686 4.28 279.993 5.56L276.313 9.24C275.539 8.38667 274.593 7.72 273.473 7.24C272.353 6.76 271.046 6.52 269.553 6.52C268.246 6.52 267.046 6.74667 265.953 7.2C264.886 7.62667 263.953 8.26667 263.153 9.12C262.353 9.94667 261.739 10.9467 261.313 12.12C260.886 13.2667 260.673 14.5333 260.673 15.92C260.673 17.3333 260.886 18.6133 261.313 19.76C261.739 20.9067 262.353 21.9067 263.153 22.76C263.953 23.5867 264.886 24.2267 265.953 24.68C267.046 25.1333 268.246 25.36 269.553 25.36C271.126 25.36 272.473 25.12 273.593 24.64C274.739 24.16 275.699 23.48 276.473 22.6L280.153 26.28C278.846 27.5867 277.326 28.6 275.593 29.32C273.859 30.04 271.846 30.4 269.553 30.4ZM291.947 30.4C290 30.4 288.24 29.96 286.667 29.08C285.12 28.1733 283.88 26.96 282.947 25.44C282.04 23.8933 281.587 22.1733 281.587 20.28C281.587 18.3867 282.04 16.6933 282.947 15.2C283.854 13.68 285.094 12.48 286.667 11.6C288.24 10.6933 289.987 10.24 291.907 10.24C293.88 10.24 295.64 10.6933 297.187 11.6C298.76 12.48 300 13.68 300.907 15.2C301.814 16.6933 302.267 18.3867 302.267 20.28C302.267 22.1733 301.814 23.8933 300.907 25.44C300 26.96 298.76 28.1733 297.187 29.08C295.64 29.96 293.894 30.4 291.947 30.4ZM291.907 25.52C292.894 25.52 293.76 25.3067 294.507 24.88C295.28 24.4267 295.867 23.8133 296.267 23.04C296.694 22.24 296.907 21.3333 296.907 20.32C296.907 19.3067 296.694 18.4133 296.267 17.64C295.84 16.8667 295.254 16.2667 294.507 15.84C293.76 15.3867 292.894 15.16 291.907 15.16C290.947 15.16 290.094 15.3867 289.347 15.84C288.6 16.2667 288.014 16.8667 287.587 17.64C287.16 18.4133 286.947 19.3067 286.947 20.32C286.947 21.3333 287.16 22.24 287.587 23.04C288.014 23.8133 288.6 24.4267 289.347 24.88C290.094 25.3067 290.947 25.52 291.907 25.52ZM313.88 30.4C312.174 30.4 310.654 30.04 309.32 29.32C308.014 28.6 306.987 27.6 306.24 26.32C305.494 25.04 305.12 23.56 305.12 21.88V10.68H310.4V21.76C310.4 22.56 310.534 23.2533 310.8 23.84C311.067 24.4 311.467 24.8267 312 25.12C312.534 25.4133 313.16 25.56 313.88 25.56C314.974 25.56 315.827 25.2267 316.44 24.56C317.054 23.8933 317.36 22.96 317.36 21.76V10.68H322.6V21.88C322.6 23.5867 322.227 25.08 321.48 26.36C320.76 27.64 319.734 28.64 318.4 29.36C317.094 30.0533 315.587 30.4 313.88 30.4ZM326.773 30V10.68H332.013V30H326.773ZM332.013 19.32L329.973 17.96C330.213 15.5867 330.906 13.72 332.053 12.36C333.2 10.9733 334.853 10.28 337.013 10.28C337.946 10.28 338.786 10.44 339.533 10.76C340.28 11.0533 340.96 11.5467 341.573 12.24L338.293 16C338 15.68 337.64 15.44 337.213 15.28C336.813 15.12 336.346 15.04 335.813 15.04C334.693 15.04 333.773 15.4 333.053 16.12C332.36 16.8133 332.013 17.88 332.013 19.32ZM343.414 30V10.68H348.694V30H343.414ZM346.054 7.56C345.2 7.56 344.494 7.28 343.934 6.72C343.374 6.13333 343.094 5.41333 343.094 4.56C343.094 3.73333 343.374 3.02667 343.934 2.44C344.494 1.85333 345.2 1.56 346.054 1.56C346.934 1.56 347.64 1.85333 348.174 2.44C348.734 3.02667 349.014 3.73333 349.014 4.56C349.014 5.41333 348.734 6.13333 348.174 6.72C347.64 7.28 346.934 7.56 346.054 7.56ZM362.576 30.4C360.549 30.4 358.749 29.9733 357.176 29.12C355.602 28.24 354.349 27.04 353.416 25.52C352.509 24 352.056 22.2667 352.056 20.32C352.056 18.4 352.496 16.6933 353.376 15.2C354.282 13.68 355.509 12.48 357.056 11.6C358.602 10.6933 360.322 10.24 362.216 10.24C364.082 10.24 365.722 10.6667 367.136 11.52C368.576 12.3467 369.696 13.4933 370.496 14.96C371.322 16.4 371.736 18.04 371.736 19.88C371.736 20.2267 371.709 20.5867 371.656 20.96C371.629 21.3067 371.562 21.7067 371.456 22.16L355.216 22.2V18.28L369.016 18.24L366.896 19.88C366.842 18.7333 366.629 17.7733 366.256 17C365.909 16.2267 365.389 15.64 364.696 15.24C364.029 14.8133 363.202 14.6 362.216 14.6C361.176 14.6 360.269 14.84 359.496 15.32C358.722 15.7733 358.122 16.4267 357.696 17.28C357.296 18.1067 357.096 19.0933 357.096 20.24C357.096 21.4133 357.309 22.44 357.736 23.32C358.189 24.1733 358.829 24.84 359.656 25.32C360.482 25.7733 361.442 26 362.536 26C363.522 26 364.416 25.84 365.216 25.52C366.016 25.1733 366.709 24.6667 367.296 24L370.376 27.08C369.442 28.1733 368.296 29 366.936 29.56C365.602 30.12 364.149 30.4 362.576 30.4ZM374.976 30V10.68H380.216V30H374.976ZM380.216 19.32L378.176 17.96C378.416 15.5867 379.11 13.72 380.256 12.36C381.403 10.9733 383.056 10.28 385.216 10.28C386.15 10.28 386.99 10.44 387.736 10.76C388.483 11.0533 389.163 11.5467 389.776 12.24L386.496 16C386.203 15.68 385.843 15.44 385.416 15.28C385.016 15.12 384.55 15.04 384.016 15.04C382.896 15.04 381.976 15.4 381.256 16.12C380.563 16.8133 380.216 17.88 380.216 19.32Z" fill="black"></path><path fill-rule="evenodd" clip-rule="evenodd" d="M40.0001 79.9999C62.0914 79.9999 80 62.0913 80 40.0001C80 17.9085 62.0914 0 40.0001 0C17.9086 0 0 17.9085 0 40.0001C0 62.0913 17.9086 79.9999 40.0001 79.9999ZM52.4787 18.6336C53.0861 16.4762 50.9924 15.2003 49.0801 16.5626L22.3862 35.5793C20.3124 37.0565 20.6387 40.0001 22.8762 40.0001H29.9055V39.9456H43.6052L32.4425 43.8842L27.5215 61.3663C26.9141 63.5239 29.0076 64.7997 30.92 63.4373L57.614 44.4209C59.6876 42.9437 59.3612 40.0001 57.1239 40.0001H46.4643L52.4787 18.6336Z" fill="#1F8BFF"></path></svg>