<svg xmlns="http://www.w3.org/2000/svg" width="400" height="400" viewBox="0 0 400 400" fill="none"><g clip-path="url(#clip0_691_325)"><path d="M7.52 0L0 7.52V10.56L10.56 0H7.52Z" fill="#E8E8E8"></path><path d="M19.68 0L0 19.84V22.88L22.88 0H19.68Z" fill="#E8E8E8"></path><path d="M32 0L0 32V35.04L35.04 0H32Z" fill="#E8E8E8"></path><path d="M44.16 0L0 44.16V47.2L47.2 0H44.16Z" fill="#E8E8E8"></path><path d="M56.32 0L0 56.32V59.52L59.52 0H56.32Z" fill="#E8E8E8"></path><path d="M68.64 0L0 68.64V71.68L71.68 0H68.64Z" fill="#E8E8E8"></path><path d="M80.8 0L0 80.8V83.84L83.84 0H80.8Z" fill="#E8E8E8"></path><path d="M93.12 0L0 93.12V96.16L96.16 0H93.12Z" fill="#E8E8E8"></path><path d="M105.28 0L0 105.28V108.32L108.32 0H105.28Z" fill="#E8E8E8"></path><path d="M117.44 0L0 117.44V120.48L120.48 0H117.44Z" fill="#E8E8E8"></path><path d="M129.76 0L0 129.76V132.8L132.8 0H129.76Z" fill="#E8E8E8"></path><path d="M141.92 0L0 141.92V144.96L144.96 0H141.92Z" fill="#E8E8E8"></path><path d="M154.08 0L0 154.08V157.12L157.12 0H154.08Z" fill="#E8E8E8"></path><path d="M166.4 0L0 166.4V169.44L169.44 0H166.4Z" fill="#E8E8E8"></path><path d="M178.56 0L0 178.56V181.6L181.6 0H178.56Z" fill="#E8E8E8"></path><path d="M190.72 0L0 190.72V193.92L193.92 0H190.72Z" fill="#E8E8E8"></path><path d="M203.04 0L0 203.04V206.08L206.08 0H203.04Z" fill="#E8E8E8"></path><path d="M215.2 0L0 215.2V218.24L218.24 0H215.2Z" fill="#E8E8E8"></path><path d="M227.36 0L0 227.52V230.4L230.4 0H227.36Z" fill="#E8E8E8"></path><path d="M239.68 0L0 239.68V242.72L242.72 0H239.68Z" fill="#E8E8E8"></path><path d="M251.84 0L0 251.84V254.88L254.88 0H251.84Z" fill="#E8E8E8"></path><path d="M264 0L0 264.16V267.2L267.2 0H264Z" fill="#E8E8E8"></path><path d="M276.32 0L0 276.32V279.36L279.36 0H276.32Z" fill="#E8E8E8"></path><path d="M288.48 0L0 288.48V291.68L291.52 0H288.48Z" fill="#E8E8E8"></path><path d="M300.8 0L0 300.8V303.84L303.84 0H300.8Z" fill="#E8E8E8"></path><path d="M312.96 0L0 312.96V316L316 0H312.96Z" fill="#E8E8E8"></path><path d="M325.12 0L0 325.12V328.16L328.16 0H325.12Z" fill="#E8E8E8"></path><path d="M337.44 0L0 337.44V340.48L340.48 0H337.44Z" fill="#E8E8E8"></path><path d="M349.6 0L0 349.6V352.64L352.64 0H349.6Z" fill="#E8E8E8"></path><path d="M361.76 0L0 361.76V364.8L364.8 0H361.76Z" fill="#E8E8E8"></path><path d="M374.08 0L0 374.08V377.12L377.12 0H374.08Z" fill="#E8E8E8"></path><path d="M386.24 0L0 386.24V389.28L389.28 0H386.24Z" fill="#E8E8E8"></path><path d="M400 0H398.4L0 398.4V400H1.6L400 1.6V0Z" fill="#E8E8E8"></path><path d="M13.76 400L400 13.76V10.72L10.72 400H13.76Z" fill="#E8E8E8"></path><path d="M25.9199 400L400 25.9199V22.8799L22.8799 400H25.9199Z" fill="#E8E8E8"></path><path d="M38.24 400L400 38.24V35.04L35.04 400H38.24Z" fill="#E8E8E8"></path><path d="M50.4001 400L400 50.4V47.36L47.3601 400H50.4001Z" fill="#E8E8E8"></path><path d="M62.56 400L400 62.56V59.52L59.52 400H62.56Z" fill="#E8E8E8"></path><path d="M74.8801 400L400 74.88V71.84L71.8401 400H74.8801Z" fill="#E8E8E8"></path><path d="M87.04 400L400 87.04V84L84 400H87.04Z" fill="#E8E8E8"></path><path d="M99.1999 400L400 99.2V96.16L96.1599 400H99.1999Z" fill="#E8E8E8"></path><path d="M111.52 400L400 111.52V108.48L108.48 400H111.52Z" fill="#E8E8E8"></path><path d="M123.68 400L400 123.68V120.64L120.64 400H123.68Z" fill="#E8E8E8"></path><path d="M135.84 400L400 135.84V132.8L132.8 400H135.84Z" fill="#E8E8E8"></path><path d="M148.16 400L400 148.16V145.12L145.12 400H148.16Z" fill="#E8E8E8"></path><path d="M160.32 400L400 160.32V157.28L157.28 400H160.32Z" fill="#E8E8E8"></path><path d="M172.48 400L400 172.64V169.44L169.44 400H172.48Z" fill="#E8E8E8"></path><path d="M184.8 400L400 184.8V181.76L181.76 400H184.8Z" fill="#E8E8E8"></path><path d="M196.96 400L400 196.96V193.92L193.92 400H196.96Z" fill="#E8E8E8"></path><path d="M209.12 400L400 209.28V206.08L206.08 400H209.12Z" fill="#E8E8E8"></path><path d="M221.44 400L400 221.44V218.4L218.4 400H221.44Z" fill="#E8E8E8"></path><path d="M233.6 400L400 233.6V230.56L230.56 400H233.6Z" fill="#E8E8E8"></path><path d="M245.92 400L400 245.92V242.88L242.88 400H245.92Z" fill="#E8E8E8"></path><path d="M258.08 400L400 258.08V255.04L255.04 400H258.08Z" fill="#E8E8E8"></path><path d="M270.24 400L400 270.24V267.2L267.2 400H270.24Z" fill="#E8E8E8"></path><path d="M282.56 400L400 282.56V279.36L279.36 400H282.56Z" fill="#E8E8E8"></path><path d="M294.72 400L400 294.72V291.68L291.68 400H294.72Z" fill="#E8E8E8"></path><path d="M306.88 400L400 306.88V303.84L303.84 400H306.88Z" fill="#E8E8E8"></path><path d="M319.2 400L400 319.2V316.16L316.16 400H319.2Z" fill="#E8E8E8"></path><path d="M331.36 400L400 331.36V328.32L328.32 400H331.36Z" fill="#E8E8E8"></path><path d="M343.52 400L400 343.68V340.64L340.48 400H343.52Z" fill="#E8E8E8"></path><path d="M355.84 400L400 355.84V352.8L352.8 400H355.84Z" fill="#E8E8E8"></path><path d="M368 400L400 368V364.96L364.96 400H368Z" fill="#E8E8E8"></path><path d="M380.32 400L400 380.32V377.12L377.12 400H380.32Z" fill="#E8E8E8"></path><path d="M392.48 400L400 392.48V389.44L389.44 400H392.48Z" fill="#E8E8E8"></path></g><defs><clipPath id="clip0_691_325"><rect width="400" height="400" rx="200" fill="white"></rect></clipPath></defs></svg>