<svg xmlns="http://www.w3.org/2000/svg" width="165" height="50" viewBox="0 0 165 50" fill="none"><g opacity="0.84"><path d="M33.3329 27.084C33.3329 32.837 28.6692 37.5006 22.9162 37.5006C17.1632 37.5006 12.4996 32.837 12.4996 27.084H4.16626C4.16626 37.4394 12.5609 45.834 22.9162 45.834C33.2716 45.834 41.6662 37.4394 41.6662 27.084C41.6662 16.7286 33.2716 8.33398 22.9162 8.33398V16.6674C28.6692 16.6674 33.3329 21.331 33.3329 27.084Z" fill="black"></path><path opacity="0.5" d="M10.4167 4.1665C10.4167 9.91947 5.75296 14.5831 0 14.5831V22.9165C10.3553 22.9165 18.75 14.5219 18.75 4.1665H10.4167Z" fill="black"></path></g><g opacity="0.84"><path d="M52.0837 14.4067H66.4275V18.4286H57.0056V22.3661H66.09V26.3599H57.0056V30.3536H66.6525V34.3755H52.0837V14.4067Z" fill="black"></path><path d="M67.9724 24.1662C68.5349 20.8756 71.0099 19.1318 75.1724 19.1318C79.9536 19.1318 82.3161 21.3256 82.3161 25.685V29.9318C82.3161 31.0287 82.7661 31.1975 83.2724 31.1975H83.7786V34.3756L83.1036 34.4318C82.3161 34.46 78.8849 34.9943 78.3786 32.1256C77.5911 33.7287 75.9036 34.7131 73.063 34.7131C70.0255 34.7131 67.7192 33.0818 67.7192 30.4381C67.7192 27.7662 69.7161 26.6412 73.4005 25.91L77.3942 25.0943C77.3942 23.0412 76.6911 22.085 75.1442 22.085C73.8505 22.085 73.063 22.8443 72.8099 24.3631L67.9724 24.1662ZM72.6974 30.2412C72.6974 31.1131 73.4005 31.7318 74.7224 31.7318C76.3536 31.7318 77.4786 30.4943 77.4786 28.0475V27.9068L75.3692 28.3006C73.7661 28.5818 72.6974 28.9193 72.6974 30.2412Z" fill="black"></path><path d="M93.9031 24.391C93.6781 23.0691 92.6374 22.2816 91.5124 22.2816C90.3312 22.2816 89.4875 22.9004 89.5437 23.8848C89.6 24.841 90.6687 25.291 91.9906 25.516C96.7437 26.2191 98.7687 27.4285 98.7687 30.2129C98.7687 33.1941 96.0125 34.7129 91.9062 34.7129C87.2656 34.7129 84.4531 32.8285 84.2 29.6223L89.0656 29.4254C89.3187 30.7473 90.2468 31.4785 91.7374 31.4785C92.7499 31.4785 93.8468 31.0848 93.7906 30.1566C93.7625 29.0598 92.5812 28.7785 91.2031 28.5254C86.6187 27.6816 84.5656 26.5566 84.5656 23.8848C84.5656 20.8754 87.0968 19.1035 91.6531 19.1035C95.6468 19.1035 98.2343 20.9879 98.7125 24.2223L93.9031 24.391Z" fill="black"></path><path d="M98.4458 19.4692H102.946L106.433 29.3411L109.752 19.4692H114.252L108.458 35.6411C107.727 37.6942 106.349 38.5942 104.043 38.5942H101.118V35.163H103.058C104.015 35.163 104.493 34.9099 104.774 34.2067L105.083 33.4474H103.79L98.4458 19.4692Z" fill="black"></path><path d="M130.924 14.4067V18.4286H125.017V34.3755H120.123V18.4286H114.217V14.4067H130.924Z" fill="black"></path><path d="M131.039 24.1662C131.601 20.8756 134.076 19.1318 138.239 19.1318C143.02 19.1318 145.382 21.3256 145.382 25.685V29.9318C145.382 31.0287 145.832 31.1975 146.339 31.1975H146.845V34.3756L146.17 34.4318C145.382 34.46 141.951 34.9943 141.445 32.1256C140.657 33.7287 138.97 34.7131 136.129 34.7131C133.091 34.7131 130.785 33.0818 130.785 30.4381C130.785 27.7662 132.782 26.6412 136.466 25.91L140.46 25.0943C140.46 23.0412 139.757 22.085 138.21 22.085C136.916 22.085 136.129 22.8443 135.876 24.3631L131.039 24.1662ZM135.764 30.2412C135.764 31.1131 136.466 31.7318 137.789 31.7318C139.42 31.7318 140.545 30.4943 140.545 28.0475V27.9068L138.435 28.3006C136.832 28.5818 135.764 28.9193 135.764 30.2412Z" fill="black"></path><path d="M158.708 19.4409H163.939L158.68 26.8097L164.08 34.3753H158.849L155.924 29.819L152.97 34.3753H147.739L153.139 26.8097L147.88 19.4409H153.083L155.924 23.7722L158.708 19.4409Z" fill="black"></path></g></svg>