<svg xmlns="http://www.w3.org/2000/svg" width="120" height="50" viewBox="0 0 120 50" fill="none"><g clip-path="url(#clip0_675_229)"><path d="M73.4313 4.21379e-05H0.44937C0.387935 -0.00322218 0.326636 0.00861792 0.270835 0.0345266C0.215035 0.0604353 0.166434 0.0996231 0.129283 0.148662C0.0921326 0.1977 0.067565 0.255096 0.0577295 0.315826C0.0478941 0.376557 0.0530905 0.438772 0.0728642 0.49703L1.81232 5.59492C1.83832 5.6685 1.88611 5.73241 1.94933 5.77815C2.01256 5.82389 2.08822 5.84928 2.16624 5.85095H67.5879C67.6878 5.85095 67.7835 5.89061 67.8541 5.96122C67.9248 6.03183 67.9644 6.1276 67.9644 6.22745V43.7802C67.9644 43.88 67.9248 43.9758 67.8541 44.0464C67.7835 44.117 67.6878 44.1567 67.5879 44.1567H15.3138C15.2536 44.1559 15.1942 44.1696 15.1403 44.1966C15.0865 44.2235 15.04 44.263 15.0046 44.3117C14.9692 44.3604 14.946 44.4168 14.9369 44.4763C14.9278 44.5358 14.9331 44.5966 14.9524 44.6537L16.6391 49.744C16.6646 49.8194 16.7133 49.8848 16.7782 49.9308C16.8432 49.9768 16.921 50.001 17.0006 50H73.4012C73.501 50 73.5968 49.9604 73.6674 49.8898C73.738 49.8192 73.7777 49.7234 73.7777 49.6235V0.376548C73.778 0.281699 73.7425 0.190229 73.6783 0.120426C73.614 0.0506225 73.5258 0.00762966 73.4313 4.21379e-05Z" fill="black"></path><path d="M35.9087 16.8675V11.7696C35.9087 11.6697 35.869 11.574 35.7984 11.5034C35.7278 11.4328 35.6321 11.3931 35.5322 11.3931H4.28973C4.22955 11.3923 4.17006 11.406 4.11625 11.433C4.06245 11.46 4.01589 11.4994 3.98049 11.5481C3.94509 11.5968 3.92187 11.6533 3.91279 11.7128C3.90371 11.7723 3.90902 11.8331 3.92829 11.8901L5.64515 16.9804C5.66891 17.056 5.71591 17.1222 5.77945 17.1695C5.843 17.2168 5.91985 17.2429 5.99907 17.244H35.5322C35.6321 17.244 35.7278 17.2043 35.7984 17.1337C35.869 17.0631 35.9087 16.9673 35.9087 16.8675Z" fill="black"></path><path d="M35.9087 27.7862V22.6958C35.9087 22.596 35.8691 22.5002 35.7985 22.4296C35.7278 22.359 35.6321 22.3193 35.5322 22.3193H7.97198C7.91236 22.3202 7.85376 22.3349 7.80082 22.3624C7.74788 22.3898 7.70206 22.4292 7.66699 22.4775C7.63192 22.5257 7.60856 22.5814 7.59876 22.6402C7.58896 22.699 7.59299 22.7593 7.61054 22.8163L9.3274 27.9067C9.35286 27.9821 9.40156 28.0475 9.46649 28.0935C9.53143 28.1395 9.60928 28.1637 9.68885 28.1627H35.5322C35.5817 28.1627 35.6306 28.153 35.6763 28.134C35.722 28.1151 35.7635 28.0874 35.7985 28.0524C35.8334 28.0175 35.8611 27.976 35.8801 27.9303C35.899 27.8846 35.9087 27.8356 35.9087 27.7862Z" fill="black"></path><path d="M35.9087 38.7049V33.607C35.9087 33.5071 35.8691 33.4114 35.7984 33.3407C35.7278 33.2701 35.6321 33.2305 35.5322 33.2305H11.6542C11.5947 33.2309 11.5361 33.2455 11.4832 33.273C11.4304 33.3004 11.3848 33.3401 11.3503 33.3886C11.3158 33.4371 11.2932 33.4931 11.2845 33.552C11.2758 33.6109 11.2812 33.671 11.3003 33.7275L13.0096 38.8253C13.0361 38.9001 13.085 38.9649 13.1497 39.0107C13.2144 39.0566 13.2918 39.0812 13.3711 39.0814H35.5322C35.5817 39.0814 35.6306 39.0716 35.6763 39.0527C35.722 39.0338 35.7635 39.0061 35.7984 38.9711C35.8334 38.9361 35.8611 38.8946 35.8801 38.8489C35.899 38.8033 35.9087 38.7543 35.9087 38.7049Z" fill="black"></path><path d="M119.177 24.3072L102.844 0.165664C102.81 0.114626 102.764 0.0727663 102.711 0.043849C102.657 0.0149316 102.596 -0.000136148 102.535 9.26945e-07H80.0955C79.9956 9.26945e-07 79.8998 0.0396684 79.8292 0.110277C79.7586 0.180886 79.719 0.276651 79.719 0.376507V26.4383C79.719 26.5381 79.7586 26.6339 79.8292 26.7045C79.8998 26.7751 79.9956 26.8148 80.0955 26.8148H103.989C104.088 26.8148 104.184 26.7751 104.255 26.7045C104.325 26.6339 104.365 26.5381 104.365 26.4383V21.3479C104.365 21.248 104.325 21.1523 104.255 21.0817C104.184 21.0111 104.088 20.9714 103.989 20.9714H85.9162C85.8157 20.9714 85.7191 20.932 85.6473 20.8616C85.5755 20.7912 85.5342 20.6954 85.5322 20.5949V6.22741C85.5322 6.17698 85.5421 6.12704 85.5614 6.08045C85.5807 6.03385 85.609 5.99152 85.6447 5.95586C85.6803 5.92019 85.7227 5.89191 85.7693 5.87261C85.8159 5.85331 85.8658 5.84337 85.9162 5.84337H99.3952C99.457 5.84511 99.5176 5.86093 99.5724 5.88964C99.6273 5.91835 99.6748 5.95918 99.7114 6.00904L113.266 26.0994C113.304 26.1633 113.324 26.2359 113.326 26.3102V43.6747C113.326 43.7746 113.286 43.8703 113.216 43.9409C113.145 44.0115 113.049 44.0512 112.949 44.0512H80.0879C79.9887 44.0531 79.894 44.0934 79.8238 44.1636C79.7536 44.2338 79.7134 44.3285 79.7114 44.4277V49.5256C79.7134 49.6248 79.7536 49.7195 79.8238 49.7897C79.894 49.8599 79.9887 49.9002 80.0879 49.9021H118.868C118.967 49.9002 119.062 49.8599 119.132 49.7897C119.202 49.7195 119.243 49.6248 119.245 49.5256V24.5181C119.244 24.4425 119.22 24.3689 119.177 24.3072Z" fill="black"></path></g><defs><clipPath id="clip0_675_229"><rect width="119.172" height="50" fill="white" transform="translate(0.072876)"></rect></clipPath></defs></svg>