<svg xmlns="http://www.w3.org/2000/svg" width="126" height="50" viewBox="0 0 126 50" fill="none"><g clip-path="url(#clip0_678_306)"><path d="M60.7989 32.0488C60.1093 32.7042 59.3108 33.2486 58.3992 33.6308C57.5174 34.013 56.5246 34.203 55.4763 34.203C54.9255 34.203 54.4003 34.1475 53.905 34.0386C53.4075 33.9297 52.9122 33.7653 52.4425 33.5753C51.9728 33.3575 51.533 33.112 51.1188 32.8387C50.7046 32.5377 50.3181 32.211 49.9893 31.8566L63.0322 26.8628L68.5747 24.7342C68.2715 22.8233 67.5819 21.0235 66.5357 19.4671C64.1637 15.9208 60.0837 13.6001 55.4785 13.6001C48.1703 13.6001 42.2157 19.4927 42.2157 26.724C42.2157 27.4072 42.2713 28.0606 42.3801 28.716C42.6833 30.6268 43.3729 32.4267 44.4212 33.9831C45.0276 34.8563 45.7172 35.674 46.5157 36.385C47.3163 37.0938 48.1703 37.7215 49.1353 38.2403C50.0726 38.7591 51.0931 39.1691 52.1671 39.4402C53.2431 39.7135 54.3469 39.848 55.5041 39.848C57.3231 39.848 59.0888 39.4936 60.6602 38.8104C62.2593 38.1549 63.6663 37.1728 64.879 36.0007C66.0917 34.8008 67.0567 33.4088 67.7185 31.8267C67.994 31.1713 68.2139 30.4624 68.3804 29.7536H62.3682C62.0141 30.6207 61.4783 31.4019 60.7968 32.0445L60.7989 32.0488ZM55.5041 19.2258C57.6541 19.2258 59.6119 20.1524 60.9911 21.5722L47.9483 26.566C48.0315 22.5266 51.3942 19.2258 55.5041 19.2258ZM36.7971 28.9146L36.7693 0H31.0005L31.0282 28.7779C31.0282 34.852 35.1125 39.1669 41.0756 39.6067V33.9447C38.5649 33.5326 36.7971 31.5534 36.7971 28.9146Z" fill="black"></path><path d="M36.7351 28.97L36.7074 0.0554199H30.9385L30.9663 28.8333C30.9663 34.9075 35.0506 39.2223 41.0137 39.6622V34.0001C38.5008 33.588 36.7351 31.6089 36.7351 28.97ZM97.8116 26.2628C97.5319 19.277 91.6243 13.6555 84.3716 13.6555C77.119 13.6555 70.9061 19.5481 70.9061 26.7816C70.9061 34.015 76.9525 39.9055 84.3716 39.9055C87.2262 39.9055 89.8885 39.0323 92.0705 37.5314V39.66H97.865L97.8094 26.3161V26.2628H97.8116ZM84.3738 34.2862C80.1464 34.2862 76.7027 30.9299 76.7027 26.8093C76.7027 22.6888 80.1464 19.3346 84.3738 19.3346C88.6011 19.3346 92.0449 22.6909 92.0449 26.8093C92.0449 30.9278 88.6011 34.2862 84.3738 34.2862ZM112.923 13.5082C106.089 13.5082 100.551 19.0144 100.551 25.8059V39.7305H106.433V25.7952C106.433 22.2639 109.313 19.4008 112.868 19.4008H112.981C116.534 19.4008 119.416 22.2639 119.416 25.7952V39.7305H125.298V25.8059C125.298 19.0144 119.76 13.5082 112.925 13.5082H112.923Z" fill="black"></path><path fill-rule="evenodd" clip-rule="evenodd" d="M18.9163 14.7508L22.6867 9.95557L27.2621 13.5082L23.5194 18.2693C25.4516 20.5645 26.613 23.5215 26.613 26.7475C26.613 34.0514 20.6563 39.9739 13.3076 39.9739C5.95884 39.9739 0 34.0514 0 26.7475C0 19.4436 5.95884 13.521 13.3076 13.521C15.3124 13.521 17.2125 13.963 18.9184 14.7508H18.9163ZM13.3076 34.2926C9.1144 34.2926 5.71544 30.915 5.71544 26.7475C5.71544 22.5799 9.1144 19.2023 13.3076 19.2023C17.5007 19.2023 20.8997 22.5799 20.8997 26.7475C20.8997 30.915 17.5007 34.2926 13.3076 34.2926ZM26.7689 38.0609C26.4385 38.4486 26.0916 38.8219 25.7291 39.1797C25.3662 39.5384 24.9883 39.88 24.5954 40.2045C24.2037 40.5299 23.7977 40.8377 23.3785 41.1268C22.959 41.4182 22.5266 41.6903 22.0825 41.9424C21.6405 42.196 21.1875 42.4296 20.7246 42.6427C20.2635 42.8562 19.7916 43.0505 19.3091 43.2213C18.8287 43.3947 18.3407 43.5464 17.8466 43.676C17.3577 43.8084 16.8581 43.9173 16.3521 44.0027C15.8525 44.0902 15.3465 44.1564 14.8341 44.1991C14.3302 44.2418 13.82 44.2653 13.3054 44.2653C12.7909 44.2653 12.2806 44.2418 11.7768 44.1991C11.2644 44.1564 10.7584 44.0902 10.2588 44.0027C9.7549 43.9173 9.25531 43.8084 8.76639 43.676L7.27187 49.2143C7.92092 49.3872 8.58491 49.5345 9.25744 49.6498C9.9193 49.7651 10.594 49.8548 11.275 49.9103C12.6261 50.0267 13.9847 50.0267 15.3358 49.9103C16.019 49.8548 16.6894 49.7673 17.3534 49.6498C18.026 49.5345 18.6878 49.3872 19.339 49.2143C19.9987 49.0413 20.6478 48.8407 21.2819 48.6101C21.9224 48.3816 22.5501 48.1233 23.1628 47.8393C23.7798 47.5554 24.3819 47.2437 24.969 46.9085C25.5562 46.5711 26.1305 46.2082 26.6856 45.8196C27.2428 45.4332 27.7851 45.0254 28.3039 44.592C28.827 44.1586 29.3288 43.7038 29.807 43.2277C30.2895 42.7516 30.7485 42.2584 31.1862 41.7396C31.626 41.225 32.0402 40.6892 32.4309 40.1383L27.7083 36.8504C27.414 37.2663 27.1013 37.6688 26.771 38.0567L26.7689 38.0609Z" fill="black"></path></g><defs><clipPath id="clip0_678_306"><rect width="125.296" height="50" fill="white"></rect></clipPath></defs></svg>