<svg xmlns="http://www.w3.org/2000/svg" width="241" height="48" viewBox="0 0 241 48" fill="none"><path fill-rule="evenodd" clip-rule="evenodd" d="M31.7784 1.18066H12.3451L1.3764 12.1497L1.39299 46.7667H16.5774L31.7622 31.5825H16.5774V16.3815L31.7784 1.18066ZM62.3461 1.18066H47.1617L31.9769 16.3649H47.1617V31.5659L31.9607 46.7667H51.394L62.3627 35.7977L62.3461 1.18066ZM152.636 18.559C152.751 17.4614 153.141 13.9087 153.141 13.9087C151.35 13.1971 149.422 12.8421 147.533 12.8421C145.449 12.8421 143.414 13.2737 141.664 14.1355C138.141 15.8716 136.041 19.5573 136.045 23.9953C136.041 28.4349 138.141 32.1206 141.664 33.8567C144.998 35.4984 149.374 35.5796 153.141 34.0835C153.141 34.0835 152.751 30.5308 152.636 29.4332C150.237 30.0785 148.06 30.4921 145.907 29.6469C143.724 28.7885 142.514 26.7829 142.497 23.9982C142.514 21.2093 143.724 19.2037 145.907 18.3453C148.06 17.5007 150.237 17.9138 152.636 18.559ZM181.028 8.64678V34.4785H187.582V6.84382L181.028 8.64678ZM176.093 13.4687H170.547L163.135 22.5704V6.84382L156.581 8.64735V34.4785H163.135V29.3808L165.704 26.2259L171.343 34.4785H178.357L169.518 21.5416L176.093 13.4687ZM232.122 34.4785H239.135L230.297 21.5416L236.872 13.4687H231.327L223.913 22.5696V6.84382L217.359 8.64735V34.4785H223.913V29.3808L226.485 26.2259L232.122 34.4785ZM205.847 29.3815C205.039 30.1909 203.949 30.6017 202.605 30.6017C201.259 30.6017 200.167 30.1909 199.358 29.3808C198.257 28.2755 197.7 26.4588 197.706 23.9809C197.7 21.5044 198.257 19.6877 199.358 18.5825C200.167 17.7723 201.259 17.3615 202.605 17.3615C203.947 17.3615 205.039 17.7723 205.847 18.5817C206.951 19.687 207.506 21.5044 207.5 23.9824C207.506 26.4588 206.951 28.2763 205.847 29.3815ZM202.605 12.7725C198.034 12.7725 195.317 14.5326 193.842 16.0094C192.08 17.7738 191.07 20.1649 191.074 22.5689V25.3936C191.07 27.7985 192.08 30.1896 193.842 31.9538C195.317 33.4306 198.034 35.1909 202.605 35.1909C207.172 35.1909 209.891 33.4306 211.364 31.9538C213.126 30.1896 214.136 27.7991 214.132 25.3944V22.5696C214.136 20.1641 213.126 17.7738 211.364 16.0094C209.891 14.5326 207.172 12.7725 202.605 12.7725ZM109.703 13.4658H103.708V6.84382L97.1543 8.64735V26.9611C97.1543 30.9546 99.0427 33.8576 102.206 34.7279C104.454 35.3464 106.936 35.2908 109.703 34.5834V30.0133C108.84 30.1923 107.93 30.2788 106.876 30.2544C105.279 30.2134 103.769 28.6186 103.769 26.9728L103.705 17.7022H109.703V13.4658ZM92.8141 24.2258C90.4787 21.7233 86.0552 21.961 82.9884 20.9234C82.0194 20.5957 80.8025 19.7606 81.4542 18.5918C81.9321 17.7348 83.065 17.5439 83.9602 17.4786C87.146 17.2458 90.1997 18.0062 92.9239 18.73L93.3967 14.4171C88.3891 12.8154 80.1685 11.2931 76.1556 15.8403C74.1837 18.0745 74.1402 21.6941 76.0597 23.7449C78.397 26.2413 82.8193 26.0061 85.8806 27.0418C86.7142 27.3237 87.7041 27.8746 87.5833 28.8979C87.4382 30.128 85.917 30.4121 84.9082 30.4866C81.7251 30.7228 78.6713 29.9601 75.9451 29.2351L75.4723 33.5481C80.482 35.1509 88.6981 36.6742 92.7129 32.1248C94.6826 29.8935 94.7288 26.2779 92.8141 24.2258ZM126.488 28.8918C124.819 30.4069 122.642 31.0934 120.427 30.583C119.244 30.3114 118.508 29.1228 118.716 27.8191C119.007 26.0004 120.963 25.4935 121.904 25.2495L126.498 24.0939L126.488 28.8918ZM132.744 19.6622C132.744 18.2695 132.199 16.8464 131.248 15.7583C129.559 13.8257 126.682 12.8337 122.7 12.8095C120.159 12.7965 117.032 13.3433 114.007 14.3208L114.479 18.6776C116.861 18.0377 119.493 17.3697 122.246 17.3697C123.428 17.3697 125.179 17.4345 125.954 18.5007C126.769 19.6229 125.362 20.5684 124.414 20.8929C122.142 21.6704 119.737 22.0336 117.411 22.6129C114.631 23.3053 112.504 26.2306 112.562 29.2746C112.595 31.0017 113.364 32.6397 114.62 33.6567C117.802 36.2317 123.335 35.3323 126.498 32.155L126.922 34.4772L132.791 34.4785L132.744 19.6622Z" fill="black"></path></svg>