<svg xmlns="http://www.w3.org/2000/svg" width="205" height="52" viewBox="0 0 205 52" fill="none"><g clip-path="url(#clip0_675_202)"><g opacity="0.84"><path d="M27.7286 7.61897C24.344 4.23443 18.8566 4.23443 15.472 7.61897L3.21553 19.8755C-0.169011 23.26 -0.169011 28.7474 3.21553 32.132L15.472 44.3885C18.8566 47.7731 24.344 47.7731 27.7286 44.3885L33.5767 38.5404C28.7082 36.6621 25.2544 31.9382 25.2544 26.4073C25.2544 20.6563 28.989 15.7774 34.1653 14.0636C34.0641 13.9571 33.9613 13.8517 33.8568 13.7473L27.7286 7.61897Z" fill="black"></path><path opacity="0.7" d="M33.577 38.5444C35.0283 39.1042 36.6055 39.4111 38.2542 39.4111C45.4339 39.4111 51.2542 33.5909 51.2542 26.4111C51.2542 19.2315 45.4339 13.4111 38.2542 13.4111C36.8258 13.4111 35.4514 13.6415 34.1657 14.0671C40.6248 20.8575 40.5221 31.5993 33.8574 38.264L33.577 38.5444Z" fill="black"></path></g><g opacity="0.84"><path d="M76.0843 35.7495L74.5048 31.245H66.344L64.7353 35.7495H60.26L68.1575 14.748H73.013L80.852 35.7495H76.0843ZM70.4683 19.6035L67.6018 27.7058H73.2763L70.4683 19.6035Z" fill="black"></path><path d="M85.9846 35.7495H81.8896V14.748H85.9846V35.7495Z" fill="black"></path><path d="M104.051 27.9399C104.051 32.5614 101.33 36.0421 97.1184 36.0421C95.2757 36.0421 93.6961 35.2524 92.5261 33.7314V41.3949H88.4604V20.1301H92.2044V22.4116C93.4037 20.7444 95.1294 19.8376 97.1184 19.8376C101.33 19.8376 104.051 23.3476 104.051 27.9399ZM99.8679 27.9399C99.8679 25.0149 98.2006 23.4354 96.2116 23.4354C94.2226 23.4354 92.5554 24.9856 92.5554 27.9399C92.5554 30.8941 94.2226 32.4151 96.2116 32.4151C98.2006 32.4151 99.8679 30.9234 99.8679 27.9399Z" fill="black"></path><path d="M109.552 27.2378V35.7495H105.486V14.748H109.552V22.1775C110.634 20.7443 111.979 19.8375 114.027 19.8375C117.157 19.8375 119.321 21.885 119.321 25.6583V35.7495H115.285V27.033C115.285 24.7223 114.378 23.4353 112.535 23.4353C110.926 23.4353 109.552 24.7223 109.552 27.2378Z" fill="black"></path><path d="M130.957 35.7497V33.8191C129.932 35.2816 128.382 36.0422 126.247 36.0422C123 36.0422 120.836 34.1409 120.836 31.2159C120.836 28.1739 123.293 26.5359 127.856 26.5359C128.733 26.5359 129.494 26.5944 130.459 26.7114V25.7754C130.459 24.0204 129.464 22.9966 127.768 22.9966C126.013 22.9966 124.96 24.0204 124.814 25.7754H121.157C121.391 22.1776 123.995 19.8376 127.768 19.8376C131.863 19.8376 134.261 22.0899 134.261 25.9216V35.7497H130.957ZM124.667 31.0989C124.667 32.4151 125.603 33.2341 127.124 33.2341C129.201 33.2341 130.459 32.0934 130.459 30.2799V29.1684C129.494 29.0221 128.821 28.9636 128.119 28.9636C125.808 28.9636 124.667 29.6949 124.667 31.0989Z" fill="black"></path><path d="M151.43 35.7495L147.511 21.066L143.591 35.7495H139.087L133.705 14.748H138.034L141.427 28.9928L145.288 14.748H149.822L153.566 29.0513L156.988 14.748H161.347L155.935 35.7495H151.43Z" fill="black"></path><path d="M170.464 35.7497V33.8191C169.439 35.2816 167.89 36.0422 165.754 36.0422C162.508 36.0422 160.343 34.1409 160.343 31.2159C160.343 28.1739 162.8 26.5359 167.363 26.5359C168.241 26.5359 169.001 26.5944 169.966 26.7114V25.7754C169.966 24.0204 168.971 22.9966 167.275 22.9966C165.52 22.9966 164.467 24.0204 164.321 25.7754H160.664C160.898 22.1776 163.502 19.8376 167.275 19.8376C171.37 19.8376 173.768 22.0899 173.768 25.9216V35.7497H170.464ZM164.174 31.0989C164.174 32.4151 165.11 33.2341 166.631 33.2341C168.709 33.2341 169.966 32.0934 169.966 30.2799V29.1684C169.001 29.0221 168.328 28.9636 167.626 28.9636C165.316 28.9636 164.174 29.6949 164.174 31.0989Z" fill="black"></path><path d="M189.628 20.1301L183.895 35.7496H179.449L173.688 20.1301H178.075L181.789 31.1281L185.533 20.1301H189.628Z" fill="black"></path><path d="M196.486 36.0129C191.806 36.0129 188.675 32.7661 188.675 27.8814C188.675 23.2306 191.923 19.8376 196.427 19.8376C201.37 19.8376 204.646 23.8449 203.915 28.9344H192.829C193.093 31.4791 194.321 32.8831 196.397 32.8831C198.182 32.8831 199.381 32.0056 199.849 30.4554H203.885C203.008 33.9946 200.288 36.0129 196.486 36.0129ZM196.339 22.8211C194.438 22.8211 193.238 24.0496 192.887 26.3604H199.615C199.498 24.1959 198.269 22.8211 196.339 22.8211Z" fill="black"></path></g></g><defs><clipPath id="clip0_675_202"><rect width="204.1" height="52" fill="white" transform="translate(0.677124)"></rect></clipPath></defs></svg>