<svg xmlns="http://www.w3.org/2000/svg" width="115" height="70" viewBox="0 0 115 70" fill="none"><g clip-path="url(#clip0_694_833)"><path d="M78.6184 3.9355H11.4404C26.2443 9.19046 50.1852 17.8699 50.1852 17.8699L39.0118 22.4461L73.2186 38.4474L17.8775 25.1002L29.745 19.2656L9.06842 5.88037L0 0L9.06842 8.82436V57.8503H22.5681C23.3301 56.3677 24.4861 55.1238 25.909 54.2553C27.3318 53.3868 28.9666 52.9273 30.6336 52.9273C32.3006 52.9273 33.9353 53.3868 35.3582 54.2553C36.7811 55.1238 37.937 56.3677 38.6991 57.8503H78.6184V3.9355Z" fill="black"></path><path d="M9.07605 60.2529V63.1588H21.6224C21.5699 62.7874 21.5444 62.4127 21.5461 62.0376C21.5455 61.4384 21.6043 60.8406 21.7215 60.2529H9.07605Z" fill="black"></path><path d="M105.419 61.4579C105.419 61.2215 105.381 60.9851 105.343 60.7486C105.343 60.6342 105.297 60.5351 105.282 60.4283C105.267 60.3215 105.282 60.2986 105.282 60.2376C105.003 59.047 104.456 57.9356 103.683 56.9881C102.91 56.0405 101.931 55.2816 100.82 54.7691C99.7405 54.2689 98.5624 54.0167 97.3724 54.0308C96.1823 54.045 95.0105 54.3253 93.9429 54.8511C92.8752 55.3769 91.9387 56.1349 91.2019 57.0696C90.4652 58.0042 89.947 59.0919 89.6851 60.2529C89.6655 60.3282 89.6502 60.4046 89.6394 60.4817C89.6394 60.5732 89.6394 60.6571 89.586 60.7563C89.5326 60.8554 89.586 60.9393 89.586 61.0308C89.5439 61.3623 89.5209 61.6959 89.5173 62.03C89.5173 62.1977 89.5173 62.3579 89.5555 62.5257C89.5936 62.6935 89.5555 62.9452 89.6012 63.1511C89.8727 65.0523 90.8208 66.7918 92.2716 68.0502C93.7224 69.3086 95.5784 70.0013 97.4989 70.0013C99.4194 70.0013 101.275 69.3086 102.726 68.0502C104.177 66.7918 105.125 65.0523 105.397 63.1511C105.397 62.9071 105.397 62.6401 105.45 62.3884C105.45 62.274 105.45 62.1596 105.45 62.0452C105.45 61.9308 105.435 61.641 105.419 61.4579ZM97.4646 65.9731C96.6081 65.9785 95.7731 65.7055 95.0853 65.1952C94.3975 64.6848 93.8942 63.9648 93.6511 63.1435C93.5397 62.7802 93.4831 62.4023 93.4833 62.0223C93.4847 61.7663 93.5103 61.5109 93.5596 61.2596C93.5953 61.081 93.6437 60.9051 93.7045 60.7334C93.7538 60.5571 93.8255 60.3879 93.9181 60.23C94.3105 59.4536 94.9487 58.8288 95.7333 58.4529C96.2602 58.1947 96.8397 58.0616 97.4265 58.0639C98.1553 58.0608 98.8704 58.2621 99.4906 58.645C100.111 59.0279 100.611 59.577 100.935 60.23C100.949 60.2573 100.962 60.2853 100.973 60.3139C101.046 60.4473 101.104 60.5879 101.148 60.7334C101.299 61.1408 101.374 61.5726 101.37 62.0071C101.368 62.2795 101.335 62.5508 101.27 62.8155C101.253 62.9191 101.228 63.0211 101.194 63.1206C100.963 63.9343 100.475 64.6515 99.8025 65.1655C99.1305 65.6794 98.3105 65.9627 97.4646 65.9731Z" fill="black"></path><path d="M113.512 60.2529V32.5747C113.512 28.7347 112.057 25.0373 109.441 22.2268C106.824 19.4163 103.24 17.7015 99.4095 17.4276L81.4099 16.1387V60.2529H39.5457C39.6629 60.8405 39.7217 61.4383 39.7211 62.0376C39.7228 62.4126 39.6973 62.7873 39.6448 63.1587H88.4572C88.4047 62.7873 88.3792 62.4126 88.3809 62.0376C88.3805 61.6113 88.4111 61.1856 88.4724 60.7639C88.4724 60.6418 88.4724 60.5198 88.5335 60.3901V60.2605C88.9445 58.1984 90.0577 56.3425 91.6833 55.0089C93.309 53.6753 95.3467 52.9465 97.4493 52.9465C99.552 52.9465 101.59 53.6753 103.215 55.0089C104.841 56.3425 105.954 58.1984 106.365 60.2605C106.365 60.4359 106.426 60.6037 106.449 60.7715C106.51 61.1933 106.541 61.619 106.541 62.0452C106.542 62.4203 106.517 62.795 106.464 63.1663H114.854V60.2529H113.512ZM92.4384 38.3941V22.4233L101.438 23.0716C103.35 23.2172 105.136 24.0774 106.442 25.4809C107.748 26.8843 108.478 28.7281 108.486 30.6451V38.3941H92.4384Z" fill="black"></path><path d="M38.4168 60.2529C38.2208 59.4054 37.8913 58.5945 37.4406 57.8504C36.7741 56.7555 35.8534 55.8375 34.7565 55.1743C33.6597 54.5111 32.419 54.1222 31.1398 54.0406C29.8607 53.959 28.5807 54.1871 27.4084 54.7056C26.2362 55.2242 25.2063 56.0177 24.4061 57.0191C24.1907 57.2818 23.9945 57.5596 23.8189 57.8504C23.374 58.5932 23.0569 59.4053 22.8808 60.2529C22.8197 60.5351 22.774 60.8173 22.7358 61.0995C22.6988 61.4006 22.681 61.7038 22.6825 62.0071C22.6825 62.1673 22.6825 62.3122 22.6825 62.4724C22.6825 62.6325 22.6825 62.9147 22.7282 63.1206C22.9996 65.0219 23.9478 66.7613 25.3986 68.0197C26.8494 69.2781 28.7054 69.9709 30.6259 69.9709C32.5464 69.9709 34.4024 69.2781 35.8532 68.0197C37.304 66.7613 38.2522 65.0219 38.5236 63.1206C38.5236 62.9376 38.5236 62.7469 38.5236 62.5639C38.5236 62.3808 38.5694 62.1978 38.5694 61.9995C38.5832 61.4134 38.532 60.8277 38.4168 60.2529ZM30.6373 65.9731C29.7868 65.9719 28.9597 65.6946 28.2802 65.183C27.6008 64.6713 27.1058 63.953 26.8696 63.1359C26.8267 63.0173 26.796 62.8947 26.7781 62.7698C26.7254 62.5189 26.6973 62.2635 26.6942 62.0071C26.6866 61.8827 26.6866 61.7578 26.6942 61.6334C26.7446 61.1486 26.8925 60.6791 27.129 60.2529C27.4561 59.603 27.9574 59.0567 28.5769 58.675C29.1964 58.2933 29.9097 58.0912 30.6373 58.0912C31.365 58.0912 32.0783 58.2933 32.6978 58.675C33.3173 59.0567 33.8186 59.603 34.1457 60.2529C34.2298 60.4007 34.2988 60.5566 34.3517 60.7182C34.5052 61.1384 34.5827 61.5826 34.5805 62.03C34.5807 62.41 34.5242 62.7879 34.4127 63.1512C34.1701 63.9647 33.6719 64.6785 32.9919 65.1868C32.3119 65.6951 31.4863 65.9708 30.6373 65.9731Z" fill="black"></path></g><defs><clipPath id="clip0_694_833"><rect width="114.885" height="70" fill="white"></rect></clipPath></defs></svg>