<svg xmlns="http://www.w3.org/2000/svg" width="195" height="60" viewBox="0 0 195 60" fill="none"><g opacity="0.84"><path fill-rule="evenodd" clip-rule="evenodd" d="M24.9889 54.9994C38.7898 54.9994 49.9777 43.8066 49.9777 29.9995C49.9777 16.1923 38.7898 4.99951 24.9889 4.99951C11.1879 4.99951 0 16.1923 0 29.9995C0 43.8066 11.1879 54.9994 24.9889 54.9994ZM32.7846 16.6455C33.1641 15.2971 31.856 14.4997 30.6614 15.3511L13.9852 27.2365C12.6896 28.1598 12.8934 29.9995 14.2913 29.9995H18.6826V29.9655H27.2411L20.2675 32.4271L17.1933 43.3534C16.8138 44.7019 18.1217 45.4993 19.3164 44.6478L35.9927 32.7625C37.2881 31.8393 37.0842 29.9995 35.6865 29.9995H29.0272L32.7846 16.6455Z" fill="black"></path></g><g opacity="0.84"><path d="M161.174 21.0898C161.735 21.6032 162.411 21.8599 163.204 21.8599C164.019 21.8599 164.696 21.6032 165.232 21.0898C165.769 20.5765 166.038 19.8998 166.038 19.0598C166.038 18.2198 165.769 17.5432 165.232 17.0299C164.696 16.5166 164.019 16.2598 163.204 16.2598C162.411 16.2598 161.735 16.5166 161.174 17.0299C160.639 17.5432 160.37 18.2198 160.37 19.0598C160.37 19.8998 160.639 20.5765 161.174 21.0898Z" fill="black"></path><path fill-rule="evenodd" clip-rule="evenodd" d="M77.446 40.48C76.3497 40.9933 75.0671 41.25 73.5977 41.25H62.4727V16.75H73.4578C74.9504 16.75 76.2448 17.0066 77.3411 17.5199C78.4605 18.01 79.3235 18.7217 79.9298 19.655C80.5596 20.5649 80.8744 21.6618 80.8744 22.945V23.295C80.8744 24.415 80.6645 25.3367 80.2447 26.06C79.8249 26.7599 79.3235 27.3084 78.7404 27.705C78.1807 28.0783 77.6443 28.3467 77.1312 28.51V29.14C77.6443 29.28 78.204 29.5483 78.8104 29.945C79.4168 30.3184 79.9298 30.8666 80.3497 31.5899C80.7929 32.3134 81.0145 33.2584 81.0145 34.4249V34.7751C81.0145 36.1284 80.6996 37.295 80.0699 38.275C79.4402 39.2317 78.5655 39.9667 77.446 40.48ZM75.4869 31.765C74.8804 31.275 74.0641 31.03 73.038 31.03H67.0906V37.0499H73.038C74.0408 37.0499 74.8455 36.805 75.4519 36.315C76.0817 35.8251 76.3965 35.125 76.3965 34.2149V33.865C76.3965 32.955 76.0932 32.2551 75.4869 31.765ZM75.347 21.685C74.7405 21.195 73.9475 20.95 72.968 20.95H67.0906V26.83H72.968C73.9243 26.83 74.7056 26.585 75.3119 26.095C75.9416 25.6049 76.2565 24.9283 76.2565 24.065V23.715C76.2565 22.8283 75.9533 22.1516 75.347 21.685Z" fill="black"></path><path fill-rule="evenodd" clip-rule="evenodd" d="M91.429 41.74C89.7031 41.74 88.1521 41.39 86.776 40.69C85.4 39.9899 84.3154 38.975 83.5224 37.645C82.7296 36.3149 82.333 34.7167 82.333 32.8499V32.29C82.333 30.4234 82.7296 28.825 83.5224 27.4949C84.3154 26.165 85.4 25.15 86.776 24.4499C88.1521 23.75 89.7031 23.3999 91.429 23.3999C93.1549 23.3999 94.7058 23.75 96.0819 24.4499C97.458 25.15 98.5424 26.165 99.3354 27.4949C100.128 28.825 100.525 30.4234 100.525 32.29V32.8499C100.525 34.7167 100.128 36.3149 99.3354 37.645C98.5424 38.975 97.458 39.9899 96.0819 40.69C94.7058 41.39 93.1549 41.74 91.429 41.74ZM91.429 37.82C92.7817 37.82 93.9013 37.3883 94.7875 36.5249C95.6738 35.6383 96.1168 34.3783 96.1168 32.7449V32.395C96.1168 30.7616 95.6738 29.5133 94.7875 28.6499C93.9245 27.7633 92.8051 27.32 91.429 27.32C90.0763 27.32 88.9568 27.7633 88.0705 28.6499C87.1842 29.5133 86.741 30.7616 86.741 32.395V32.7449C86.741 34.3783 87.1842 35.6383 88.0705 36.5249C88.9568 37.3883 90.0763 37.82 91.429 37.82Z" fill="black"></path><path d="M117.035 41.2499C115.892 41.2499 114.96 40.9 114.237 40.1999C113.537 39.4766 113.187 38.5199 113.187 37.33V27.53H108.849V23.89H113.187V18.5H117.595V23.89H122.353V27.53H117.595V36.56C117.595 37.2599 117.921 37.61 118.575 37.61H121.933V41.2499H117.035Z" fill="black"></path><path d="M126.238 40.27C127.684 41.2499 129.538 41.74 131.801 41.74C134.016 41.74 135.777 41.2499 137.083 40.27C138.413 39.2666 139.077 37.855 139.077 36.035C139.077 34.8217 138.762 33.865 138.133 33.1649C137.526 32.4416 136.687 31.8934 135.614 31.52C134.564 31.1233 133.387 30.8083 132.08 30.575L131.101 30.4C130.308 30.26 129.678 30.0617 129.212 29.8049C128.745 29.525 128.512 29.105 128.512 28.5449C128.512 28.0316 128.734 27.635 129.177 27.355C129.62 27.0517 130.261 26.9 131.101 26.9C131.941 26.9 132.64 27.0866 133.2 27.46C133.783 27.8333 134.168 28.4633 134.354 29.35L138.448 28.09C138.051 26.69 137.212 25.5583 135.929 24.695C134.646 23.8316 133.037 23.3999 131.101 23.3999C129.048 23.3999 127.393 23.8667 126.133 24.8C124.874 25.7099 124.244 27.0283 124.244 28.7549C124.244 29.8984 124.547 30.8317 125.153 31.555C125.76 32.2783 126.565 32.8499 127.567 33.2699C128.57 33.6667 129.678 33.9817 130.891 34.2149L131.87 34.39C132.897 34.5767 133.643 34.8217 134.11 35.125C134.576 35.405 134.809 35.8133 134.809 36.35C134.809 36.8867 134.564 37.3417 134.075 37.715C133.585 38.065 132.827 38.24 131.801 38.24C131.124 38.24 130.495 38.1467 129.911 37.96C129.352 37.75 128.874 37.4117 128.477 36.9449C128.104 36.4783 127.836 35.8367 127.672 35.02L123.614 36.07C123.917 37.8899 124.792 39.29 126.238 40.27Z" fill="black"></path><path d="M146.718 28.685C145.972 29.5717 145.599 30.82 145.599 32.43V41.25H141.191V16.75H145.599V26.025H146.229C146.415 25.6517 146.707 25.2784 147.103 24.9051C147.5 24.5317 148.025 24.2284 148.678 23.995C149.354 23.7383 150.205 23.61 151.232 23.61C152.584 23.61 153.763 23.925 154.766 24.555C155.791 25.1617 156.584 26.0134 157.144 27.1101C157.703 28.1833 157.983 29.4433 157.983 30.8901V41.25H153.575V31.24C153.575 29.9333 153.248 28.9534 152.596 28.3C151.966 27.6468 151.056 27.32 149.867 27.32C148.514 27.32 147.465 27.775 146.718 28.685Z" fill="black"></path><path d="M185.538 40.2C184.838 39.4767 184.488 38.5199 184.488 37.33V27.5301H175.819V41.25H171.411V27.5301H167.003V23.89H171.411V20.67C171.411 19.48 171.762 18.535 172.461 17.8349C173.185 17.1116 174.118 16.75 175.26 16.75H179.807V20.39H176.8C176.146 20.39 175.819 20.74 175.819 21.44V23.89H184.488V18.5001H188.896V23.89H193.654V27.5301H188.896V36.56C188.896 37.2599 189.223 37.6101 189.875 37.6101H193.234V41.25H188.337C187.193 41.25 186.261 40.9 185.538 40.2Z" fill="black"></path><path d="M161 23.8896V41.2496H165.408V23.8896H161Z" fill="black"></path><path d="M102.845 16.75V41.25H107.253V16.75H102.845Z" fill="black"></path></g></svg>