<svg xmlns="http://www.w3.org/2000/svg" width="250" height="50" viewBox="0 0 250 50" fill="none"><path d="M248.693 36.344C248.559 36.2517 248.405 36.1799 248.231 36.1286C248.067 36.0671 247.893 36.0209 247.708 35.9902C247.534 35.9594 247.359 35.944 247.185 35.944C246.98 35.944 246.764 35.9697 246.539 36.0209C246.323 36.062 246.123 36.1338 245.939 36.2363C245.754 36.3286 245.605 36.4517 245.493 36.6056C245.38 36.7594 245.323 36.944 245.323 37.1594C245.323 37.4158 245.4 37.6312 245.554 37.8056C245.718 37.9799 245.928 38.1389 246.185 38.2825C246.441 38.4158 246.723 38.544 247.031 38.6671C247.339 38.7799 247.646 38.9081 247.954 39.0517C248.272 39.1851 248.559 39.344 248.816 39.5286C249.072 39.7133 249.277 39.9389 249.431 40.2056C249.595 40.462 249.677 40.7799 249.677 41.1594C249.677 41.5286 249.6 41.8517 249.446 42.1286C249.293 42.4056 249.087 42.6363 248.831 42.8209C248.575 43.0056 248.287 43.144 247.969 43.2363C247.662 43.3286 247.344 43.3748 247.016 43.3748C246.472 43.3748 245.944 43.2568 245.431 43.0209C244.918 42.7851 244.482 42.462 244.123 42.0517L244.6 41.544C244.836 41.7697 245.077 41.9594 245.323 42.1133C245.569 42.2671 245.831 42.3851 246.108 42.4671C246.395 42.5389 246.698 42.5748 247.016 42.5748C247.21 42.5748 247.416 42.5492 247.631 42.4979C247.846 42.4466 248.046 42.3645 248.231 42.2517C248.426 42.1286 248.58 41.9799 248.693 41.8056C248.816 41.6312 248.877 41.4209 248.877 41.1748C248.877 40.8979 248.795 40.662 248.631 40.4671C248.477 40.262 248.272 40.0876 248.016 39.944C247.759 39.7902 247.472 39.6517 247.154 39.5286C246.846 39.4056 246.534 39.2774 246.216 39.144C245.908 39.0107 245.626 38.8568 245.369 38.6825C245.113 38.5081 244.903 38.303 244.739 38.0671C244.585 37.8209 244.508 37.5286 244.508 37.1902C244.508 36.862 244.58 36.5799 244.723 36.344C244.867 36.0979 245.057 35.8927 245.293 35.7286C245.539 35.5543 245.811 35.4261 246.108 35.344C246.405 35.262 246.708 35.2209 247.016 35.2209C247.221 35.2209 247.431 35.2363 247.646 35.2671C247.862 35.2876 248.087 35.3389 248.323 35.4209C248.559 35.4927 248.8 35.6056 249.046 35.7594L248.693 36.344Z" fill="black"></path><path d="M242.729 36.4366C242.462 36.3135 242.165 36.2212 241.836 36.1596C241.518 36.0879 241.211 36.0468 240.913 36.0366C240.431 36.0366 240.042 36.134 239.744 36.3289C239.447 36.5237 239.231 36.7955 239.098 37.1443C238.965 37.4827 238.893 37.8725 238.883 38.3135L238.867 40.2366C238.867 40.6263 238.903 40.9648 238.975 41.252C239.057 41.5289 239.185 41.7545 239.36 41.9289C239.534 42.1032 239.754 42.2366 240.021 42.3289C240.288 42.4109 240.606 42.4571 240.975 42.4673C241.201 42.4673 241.421 42.4571 241.636 42.4366C241.862 42.4161 242.062 42.3904 242.236 42.3596C242.421 42.3289 242.565 42.3032 242.667 42.2827C242.77 42.2622 242.816 42.252 242.806 42.252L242.975 43.0212C242.657 43.1032 242.324 43.1648 241.975 43.2058C241.626 43.2571 241.283 43.2776 240.944 43.2673C240.36 43.2571 239.847 43.1545 239.406 42.9596C238.965 42.7545 238.621 42.4468 238.375 42.0366C238.139 41.6161 238.021 41.0776 238.021 40.4212V38.1904C238.021 37.6058 238.124 37.093 238.329 36.652C238.544 36.2109 238.862 35.8673 239.283 35.6212C239.713 35.375 240.247 35.252 240.883 35.252C241.231 35.252 241.58 35.2981 241.929 35.3904C242.288 35.4827 242.626 35.6007 242.944 35.7443L242.729 36.4366Z" fill="black"></path><path d="M235.857 43.0979V35.3902H236.734V43.0979H235.857ZM236.303 32.1748C236.447 32.1748 236.57 32.2261 236.673 32.3287C236.775 32.4312 236.826 32.5543 236.826 32.6979C236.826 32.8312 236.775 32.9492 236.673 33.0517C236.57 33.1543 236.447 33.2056 236.303 33.2056C236.17 33.2056 236.047 33.1543 235.934 33.0517C235.832 32.9492 235.78 32.8312 235.78 32.6979C235.78 32.5543 235.832 32.4312 235.934 32.3287C236.047 32.2261 236.17 32.1748 236.303 32.1748Z" fill="black"></path><path d="M232.749 41.0671C232.749 41.3337 232.785 41.5748 232.857 41.7902C232.939 41.9953 233.052 42.1696 233.195 42.3132C233.349 42.4466 233.539 42.5543 233.765 42.6363L233.503 43.2978C232.939 43.1235 232.529 42.8568 232.272 42.4978C232.016 42.1389 231.888 41.6619 231.888 41.0671V32.3286H232.749V35.4055H234.611L234.241 36.2055H232.749V41.0671Z" fill="black"></path><path d="M229.492 36.344C229.359 36.2517 229.205 36.1799 229.031 36.1286C228.867 36.0671 228.692 36.0209 228.508 35.9902C228.333 35.9594 228.159 35.944 227.985 35.944C227.78 35.944 227.564 35.9697 227.339 36.0209C227.123 36.062 226.923 36.1338 226.739 36.2363C226.554 36.3286 226.405 36.4517 226.292 36.6056C226.18 36.7594 226.123 36.944 226.123 37.1594C226.123 37.4158 226.2 37.6312 226.354 37.8056C226.518 37.9799 226.728 38.1389 226.985 38.2825C227.241 38.4158 227.523 38.544 227.831 38.6671C228.139 38.7799 228.446 38.9081 228.754 39.0517C229.072 39.1851 229.359 39.344 229.616 39.5286C229.872 39.7133 230.077 39.9389 230.231 40.2056C230.395 40.462 230.477 40.7799 230.477 41.1594C230.477 41.5286 230.4 41.8517 230.246 42.1286C230.092 42.4056 229.887 42.6363 229.631 42.8209C229.374 43.0056 229.087 43.144 228.769 43.2363C228.462 43.3286 228.144 43.3748 227.816 43.3748C227.272 43.3748 226.744 43.2568 226.231 43.0209C225.718 42.7851 225.282 42.462 224.923 42.0517L225.4 41.544C225.636 41.7697 225.877 41.9594 226.123 42.1133C226.369 42.2671 226.631 42.3851 226.908 42.4671C227.195 42.5389 227.498 42.5748 227.816 42.5748C228.01 42.5748 228.216 42.5492 228.431 42.4979C228.646 42.4466 228.846 42.3645 229.031 42.2517C229.226 42.1286 229.38 41.9799 229.492 41.8056C229.616 41.6312 229.677 41.4209 229.677 41.1748C229.677 40.8979 229.595 40.662 229.431 40.4671C229.277 40.262 229.072 40.0876 228.816 39.944C228.559 39.7902 228.272 39.6517 227.954 39.5286C227.646 39.4056 227.333 39.2774 227.016 39.144C226.708 39.0107 226.426 38.8568 226.169 38.6825C225.913 38.5081 225.703 38.303 225.539 38.0671C225.385 37.8209 225.308 37.5286 225.308 37.1902C225.308 36.862 225.38 36.5799 225.523 36.344C225.667 36.0979 225.857 35.8927 226.092 35.7286C226.339 35.5543 226.61 35.4261 226.908 35.344C227.205 35.262 227.508 35.2209 227.816 35.2209C228.021 35.2209 228.231 35.2363 228.446 35.2671C228.662 35.2876 228.887 35.3389 229.123 35.4209C229.359 35.4927 229.6 35.6056 229.846 35.7594L229.492 36.344Z" fill="black"></path><path d="M222.76 43.0979V35.3902H223.637V43.0979H222.76ZM223.207 32.1748C223.35 32.1748 223.473 32.2261 223.576 32.3287C223.678 32.4312 223.73 32.5543 223.73 32.6979C223.73 32.8312 223.678 32.9492 223.576 33.0517C223.473 33.1543 223.35 33.2056 223.207 33.2056C223.073 33.2056 222.95 33.1543 222.837 33.0517C222.735 32.9492 222.684 32.8312 222.684 32.6979C222.684 32.5543 222.735 32.4312 222.837 32.3287C222.95 32.2261 223.073 32.1748 223.207 32.1748Z" fill="black"></path><path d="M221.37 44.0826C221.37 44.4929 221.314 44.8416 221.201 45.1288C221.088 45.4262 220.909 45.6724 220.663 45.8673C220.416 46.0621 220.099 46.2211 219.709 46.3442L219.463 45.6826C219.637 45.6108 219.786 45.5237 219.909 45.4211C220.042 45.3288 220.15 45.216 220.232 45.0826C220.314 44.9493 220.375 44.7955 220.416 44.6211C220.468 44.457 220.493 44.2724 220.493 44.0673V42.1596C220.411 42.3134 220.293 42.4621 220.14 42.6057C219.996 42.739 219.827 42.857 219.632 42.9596C219.437 43.0621 219.227 43.139 219.001 43.1903C218.786 43.2519 218.56 43.2826 218.324 43.2826C217.463 43.2826 216.806 43.0365 216.355 42.5442C215.904 42.0416 215.678 41.3237 215.678 40.3903V37.7749C215.678 37.2314 215.781 36.7698 215.986 36.3903C216.191 36.0006 216.488 35.7083 216.878 35.5134C217.268 35.3083 217.745 35.2211 218.309 35.2519C218.555 35.2621 218.801 35.3032 219.047 35.3749C219.304 35.4365 219.55 35.5339 219.786 35.6673C220.032 35.7903 220.268 35.9442 220.493 36.1288V35.4057H221.37V44.0826ZM220.493 37.0519C220.391 36.898 220.258 36.7596 220.093 36.6365C219.94 36.5134 219.765 36.4108 219.57 36.3288C219.386 36.2365 219.201 36.1647 219.016 36.1134C218.832 36.0621 218.657 36.0314 218.493 36.0211C218.257 36.0006 218.022 36.0211 217.786 36.0826C217.56 36.1339 217.35 36.2314 217.155 36.3749C216.97 36.5083 216.822 36.698 216.709 36.9442C216.596 37.1801 216.54 37.4724 216.54 37.8211V40.5288C216.54 40.9698 216.611 41.3339 216.755 41.6211C216.899 41.9083 217.104 42.1237 217.37 42.2673C217.647 42.4108 217.981 42.4826 218.37 42.4826C218.668 42.4826 218.945 42.4365 219.201 42.3442C219.457 42.2519 219.683 42.1185 219.878 41.9442C220.073 41.7698 220.222 41.5544 220.324 41.298C220.437 41.0416 220.493 40.7493 220.493 40.4211V37.0519Z" fill="black"></path><path d="M214.32 40.2517C214.32 41.1543 214.089 41.8825 213.627 42.4363C213.166 42.9799 212.468 43.2517 211.535 43.2517C210.899 43.2517 210.361 43.1184 209.92 42.8517C209.489 42.5748 209.166 42.2107 208.95 41.7594C208.735 41.3081 208.627 40.8056 208.627 40.2517V38.2363C208.627 37.5799 208.74 37.0312 208.966 36.5902C209.192 36.1389 209.52 35.8004 209.95 35.5748C210.381 35.3389 210.899 35.2209 211.504 35.2209C212.417 35.2209 213.115 35.4876 213.597 36.0209C214.079 36.5543 214.32 37.2927 214.32 38.2363V40.2517ZM213.458 38.2363C213.458 37.744 213.392 37.3338 213.258 37.0056C213.125 36.6671 212.915 36.4158 212.627 36.2517C212.35 36.0774 211.986 35.9902 211.535 35.9902C211.084 35.9902 210.704 36.0774 210.397 36.2517C210.099 36.4158 209.874 36.6671 209.72 37.0056C209.566 37.3338 209.489 37.744 209.489 38.2363V40.4056C209.489 40.8158 209.571 41.1799 209.735 41.4979C209.909 41.8056 210.15 42.0466 210.458 42.2209C210.766 42.3953 211.125 42.4825 211.535 42.4825C211.966 42.4825 212.325 42.4004 212.612 42.2363C212.899 42.062 213.109 41.8209 213.243 41.5133C213.386 41.1953 213.458 40.8261 213.458 40.4056V38.2363Z" fill="black"></path><path d="M201.927 43.0978V32.3286H202.804V42.3286H207.481V43.0978H201.927Z" fill="black"></path><path d="M196 43.0978C196.01 43.0978 195.954 43.103 195.831 43.1132C195.718 43.1235 195.564 43.1337 195.369 43.144C195.185 43.1645 194.98 43.1799 194.754 43.1902C194.538 43.2107 194.328 43.2261 194.123 43.2363C193.918 43.2466 193.744 43.2517 193.6 43.2517C193.108 43.2619 192.646 43.2312 192.215 43.1594C191.785 43.0876 191.41 42.9543 191.092 42.7594C190.774 42.5543 190.523 42.2671 190.338 41.8978C190.164 41.5286 190.077 41.0619 190.077 40.4978V37.5748C190.077 37.144 190.149 36.7799 190.292 36.4825C190.446 36.185 190.646 35.9491 190.892 35.7748C191.149 35.5902 191.426 35.4568 191.723 35.3748C192.031 35.2927 192.338 35.2517 192.646 35.2517C193.149 35.2517 193.605 35.3081 194.015 35.4209C194.426 35.5337 194.805 35.6671 195.154 35.8209V32.3286H196V43.0978ZM195.154 36.5902C194.744 36.4158 194.333 36.2722 193.923 36.1594C193.523 36.0363 193.077 35.9748 192.585 35.9748C192.451 35.9748 192.292 35.9953 192.108 36.0363C191.923 36.0773 191.738 36.1543 191.554 36.2671C191.379 36.3799 191.231 36.5491 191.108 36.7748C190.985 36.9902 190.923 37.2773 190.923 37.6363V40.3902C190.923 40.7594 190.964 41.0825 191.046 41.3594C191.128 41.626 191.267 41.8517 191.462 42.0363C191.656 42.2107 191.918 42.3389 192.246 42.4209C192.585 42.4927 193.01 42.5235 193.523 42.5132C193.718 42.503 193.897 42.4927 194.062 42.4825C194.236 42.4722 194.39 42.4619 194.523 42.4517C194.656 42.4414 194.769 42.4312 194.862 42.4209C194.954 42.4107 195.026 42.4055 195.077 42.4055C195.128 42.3953 195.154 42.3902 195.154 42.3902V36.5902Z" fill="black"></path><path d="M187.846 37.8366C187.846 37.4879 187.79 37.2007 187.677 36.975C187.564 36.7391 187.41 36.5545 187.215 36.4212C187.02 36.2776 186.805 36.175 186.569 36.1135C186.333 36.052 186.092 36.0212 185.846 36.0212C185.61 36.0212 185.379 36.0417 185.154 36.0827C184.938 36.1237 184.728 36.1853 184.523 36.2673C184.318 36.3391 184.108 36.4366 183.892 36.5596V43.0981H183.015V35.3904H183.892V35.9135C184.087 35.7802 184.297 35.6673 184.523 35.575C184.759 35.4725 185 35.3955 185.246 35.3443C185.502 35.2827 185.759 35.252 186.015 35.252C186.354 35.252 186.661 35.2879 186.938 35.3596C187.226 35.4314 187.477 35.5391 187.692 35.6827C187.908 35.8263 188.087 36.0007 188.231 36.2058C188.384 36.4109 188.497 36.6468 188.569 36.9135C188.651 37.1699 188.692 37.4622 188.692 37.7904V43.0981H187.846V37.8366Z" fill="black"></path><path d="M180.707 37.7135C180.707 37.334 180.64 37.0263 180.507 36.7904C180.384 36.5545 180.21 36.375 179.984 36.2519C179.769 36.1289 179.517 36.0468 179.23 36.0058C178.943 35.9545 178.646 35.9289 178.338 35.9289L178.369 35.2673C178.994 35.2673 179.512 35.3289 179.922 35.4519C180.333 35.5648 180.656 35.7545 180.892 36.0212C181.138 36.2776 181.312 36.6263 181.415 37.0673C181.517 37.4981 181.569 38.0314 181.569 38.6673V43.0981C181.579 43.0981 181.522 43.1032 181.399 43.1135C181.287 43.1237 181.133 43.134 180.938 43.1443C180.753 43.1648 180.548 43.1802 180.322 43.1904C180.107 43.2109 179.892 43.2263 179.676 43.2366C179.471 43.2468 179.292 43.2519 179.138 43.2519C178.646 43.2622 178.184 43.2314 177.753 43.1596C177.333 43.0878 176.964 42.9545 176.646 42.7596C176.338 42.5545 176.092 42.2673 175.907 41.8981C175.733 41.5289 175.646 41.0622 175.646 40.4981V39.2212C175.646 38.7904 175.707 38.4263 175.83 38.1289C175.964 37.8314 176.143 37.5955 176.369 37.4212C176.594 37.2366 176.846 37.1032 177.122 37.0212C177.41 36.9391 177.707 36.8981 178.015 36.8981C178.353 36.8981 178.681 36.9391 178.999 37.0212C179.317 37.093 179.62 37.1904 179.907 37.3135C180.205 37.4366 180.471 37.5699 180.707 37.7135ZM180.707 38.4366C180.44 38.293 180.153 38.1596 179.846 38.0366C179.538 37.9135 179.225 37.8161 178.907 37.7443C178.589 37.6725 178.266 37.6366 177.938 37.6366C177.805 37.6366 177.656 37.6571 177.492 37.6981C177.328 37.7391 177.169 37.8161 177.015 37.9289C176.861 38.0314 176.733 38.1904 176.63 38.4058C176.538 38.6212 176.492 38.9032 176.492 39.2519V40.3904C176.492 40.7596 176.528 41.0827 176.599 41.3596C176.681 41.6366 176.815 41.8673 176.999 42.0519C177.194 42.2263 177.461 42.3545 177.799 42.4366C178.138 42.5084 178.564 42.534 179.076 42.5135C179.281 42.5032 179.466 42.493 179.63 42.4827C179.805 42.4725 179.958 42.4622 180.092 42.4519C180.225 42.4314 180.338 42.4212 180.43 42.4212C180.522 42.4109 180.589 42.4058 180.63 42.4058C180.681 42.3955 180.707 42.3904 180.707 42.3904V38.4366Z" fill="black"></path><path d="M168.377 41.0671C168.377 41.3337 168.412 41.5748 168.484 41.7902C168.566 41.9953 168.679 42.1696 168.823 42.3132C168.977 42.4466 169.166 42.5543 169.392 42.6363L169.13 43.2978C168.566 43.1235 168.156 42.8568 167.9 42.4978C167.643 42.1389 167.515 41.6619 167.515 41.0671V32.3286H168.377V35.4055H170.238L169.869 36.2055H168.377V41.0671Z" fill="black"></path><path d="M166.12 36.0058C166.12 36.0058 166.054 36.0007 165.92 35.9904C165.797 35.9802 165.649 35.9802 165.474 35.9904C165.259 36.0007 165.028 36.0314 164.782 36.0827C164.536 36.1238 164.295 36.1853 164.059 36.2673C163.823 36.3391 163.602 36.4263 163.397 36.5289C163.192 36.6212 163.018 36.7135 162.874 36.8058V43.0981H161.997V35.3904H162.874V35.8981C163.254 35.7238 163.643 35.575 164.043 35.452C164.454 35.3289 164.936 35.252 165.49 35.2212C165.674 35.2109 165.833 35.2161 165.966 35.2366C166.11 35.2571 166.182 35.2673 166.182 35.2673L166.12 36.0058Z" fill="black"></path><path d="M160.606 40.2517C160.606 41.1543 160.376 41.8825 159.914 42.4363C159.453 42.9799 158.755 43.2517 157.822 43.2517C157.186 43.2517 156.647 43.1184 156.206 42.8517C155.776 42.5748 155.453 42.2107 155.237 41.7594C155.022 41.3081 154.914 40.8056 154.914 40.2517V38.2363C154.914 37.5799 155.027 37.0312 155.253 36.5902C155.478 36.1389 155.806 35.8004 156.237 35.5748C156.668 35.3389 157.186 35.2209 157.791 35.2209C158.704 35.2209 159.401 35.4876 159.883 36.0209C160.365 36.5543 160.606 37.2927 160.606 38.2363V40.2517ZM159.745 38.2363C159.745 37.744 159.678 37.3338 159.545 37.0056C159.411 36.6671 159.201 36.4158 158.914 36.2517C158.637 36.0774 158.273 35.9902 157.822 35.9902C157.37 35.9902 156.991 36.0774 156.683 36.2517C156.386 36.4158 156.16 36.6671 156.006 37.0056C155.853 37.3338 155.776 37.744 155.776 38.2363V40.4056C155.776 40.8158 155.858 41.1799 156.022 41.4979C156.196 41.8056 156.437 42.0466 156.745 42.2209C157.053 42.3953 157.411 42.4825 157.822 42.4825C158.253 42.4825 158.611 42.4004 158.899 42.2363C159.186 42.062 159.396 41.8209 159.529 41.5133C159.673 41.1953 159.745 40.8261 159.745 40.4056V38.2363Z" fill="black"></path><path d="M153.53 40.3903C153.53 41.3237 153.304 42.0416 152.853 42.5442C152.412 43.0365 151.766 43.2826 150.915 43.2826C150.597 43.2826 150.294 43.2314 150.007 43.1288C149.72 43.0365 149.463 42.9032 149.238 42.7288C149.022 42.5544 148.853 42.3647 148.73 42.1596V46.3596L147.838 45.9903V35.4057H148.73V36.1288C148.956 35.9442 149.186 35.7903 149.422 35.6673C149.669 35.5339 149.915 35.4365 150.161 35.3749C150.417 35.3032 150.669 35.2621 150.915 35.2519C151.489 35.2211 151.966 35.3083 152.345 35.5134C152.735 35.7083 153.027 36.0006 153.222 36.3903C153.427 36.7698 153.53 37.2314 153.53 37.7749V40.3903ZM152.653 37.8211C152.653 37.4724 152.597 37.1801 152.484 36.9442C152.381 36.698 152.238 36.5083 152.053 36.3749C151.879 36.2314 151.674 36.1339 151.438 36.0826C151.212 36.0211 150.976 36.0006 150.73 36.0211C150.504 36.0416 150.263 36.0929 150.007 36.1749C149.761 36.257 149.525 36.3698 149.299 36.5134C149.074 36.657 148.884 36.8365 148.73 37.0519V40.4211C148.73 40.7493 148.786 41.0416 148.899 41.298C149.012 41.5544 149.166 41.7698 149.361 41.9442C149.556 42.1185 149.781 42.2519 150.038 42.3442C150.294 42.4365 150.571 42.4826 150.869 42.4826C151.258 42.4826 151.581 42.4108 151.838 42.2673C152.104 42.1237 152.304 41.9083 152.438 41.6211C152.581 41.3339 152.653 40.9698 152.653 40.5288V37.8211Z" fill="black"></path><path d="M145.443 36.344C145.309 36.2517 145.155 36.1799 144.981 36.1286C144.817 36.0671 144.643 36.0209 144.458 35.9902C144.284 35.9594 144.109 35.944 143.935 35.944C143.73 35.944 143.514 35.9697 143.289 36.0209C143.073 36.062 142.873 36.1338 142.689 36.2363C142.504 36.3286 142.355 36.4517 142.243 36.6056C142.13 36.7594 142.073 36.944 142.073 37.1594C142.073 37.4158 142.15 37.6312 142.304 37.8056C142.468 37.9799 142.678 38.1389 142.935 38.2825C143.191 38.4158 143.473 38.544 143.781 38.6671C144.089 38.7799 144.396 38.9081 144.704 39.0517C145.022 39.1851 145.309 39.344 145.566 39.5286C145.822 39.7133 146.027 39.9389 146.181 40.2056C146.345 40.462 146.427 40.7799 146.427 41.1594C146.427 41.5286 146.35 41.8517 146.196 42.1286C146.043 42.4056 145.837 42.6363 145.581 42.8209C145.325 43.0056 145.037 43.144 144.719 43.2363C144.412 43.3286 144.094 43.3748 143.766 43.3748C143.222 43.3748 142.694 43.2568 142.181 43.0209C141.668 42.7851 141.232 42.462 140.873 42.0517L141.35 41.544C141.586 41.7697 141.827 41.9594 142.073 42.1133C142.319 42.2671 142.581 42.3851 142.858 42.4671C143.145 42.5389 143.448 42.5748 143.766 42.5748C143.96 42.5748 144.166 42.5492 144.381 42.4979C144.596 42.4466 144.796 42.3645 144.981 42.2517C145.176 42.1286 145.33 41.9799 145.443 41.8056C145.566 41.6312 145.627 41.4209 145.627 41.1748C145.627 40.8979 145.545 40.662 145.381 40.4671C145.227 40.262 145.022 40.0876 144.766 39.944C144.509 39.7902 144.222 39.6517 143.904 39.5286C143.596 39.4056 143.284 39.2774 142.966 39.144C142.658 39.0107 142.376 38.8568 142.119 38.6825C141.863 38.5081 141.653 38.303 141.489 38.0671C141.335 37.8209 141.258 37.5286 141.258 37.1902C141.258 36.862 141.33 36.5799 141.473 36.344C141.617 36.0979 141.807 35.8927 142.043 35.7286C142.289 35.5543 142.56 35.4261 142.858 35.344C143.155 35.262 143.458 35.2209 143.766 35.2209C143.971 35.2209 144.181 35.2363 144.396 35.2671C144.612 35.2876 144.837 35.3389 145.073 35.4209C145.309 35.4927 145.55 35.6056 145.796 35.7594L145.443 36.344Z" fill="black"></path><path d="M138.644 37.8366C138.644 37.4879 138.587 37.2007 138.474 36.975C138.361 36.7391 138.208 36.5545 138.013 36.4212C137.818 36.2776 137.602 36.175 137.367 36.1135C137.131 36.052 136.89 36.0212 136.644 36.0212C136.408 36.0212 136.177 36.0417 135.951 36.0827C135.736 36.1237 135.526 36.1853 135.32 36.2673C135.115 36.3391 134.905 36.4366 134.69 36.5596V43.0981H133.813V35.3904H134.69V35.9135C134.885 35.7802 135.095 35.6673 135.32 35.575C135.556 35.4725 135.797 35.3955 136.044 35.3443C136.3 35.2827 136.556 35.252 136.813 35.252C137.151 35.252 137.459 35.2879 137.736 35.3596C138.023 35.4314 138.274 35.5391 138.49 35.6827C138.705 35.8263 138.885 36.0007 139.028 36.2058C139.182 36.4109 139.295 36.6468 139.367 36.9135C139.449 37.1699 139.49 37.4622 139.49 37.7904V43.0981H138.644V37.8366Z" fill="black"></path><path d="M131.505 37.7135C131.505 37.334 131.438 37.0263 131.305 36.7904C131.181 36.5545 131.007 36.375 130.781 36.2519C130.566 36.1289 130.315 36.0468 130.028 36.0058C129.74 35.9545 129.443 35.9289 129.135 35.9289L129.166 35.2673C129.792 35.2673 130.31 35.3289 130.72 35.4519C131.13 35.5648 131.453 35.7545 131.689 36.0212C131.935 36.2776 132.11 36.6263 132.212 37.0673C132.315 37.4981 132.366 38.0314 132.366 38.6673V43.0981C132.376 43.0981 132.32 43.1032 132.197 43.1135C132.084 43.1237 131.93 43.134 131.735 43.1443C131.551 43.1648 131.346 43.1802 131.12 43.1904C130.905 43.2109 130.689 43.2263 130.474 43.2366C130.269 43.2468 130.089 43.2519 129.935 43.2519C129.443 43.2622 128.981 43.2314 128.551 43.1596C128.13 43.0878 127.761 42.9545 127.443 42.7596C127.135 42.5545 126.889 42.2673 126.705 41.8981C126.53 41.5289 126.443 41.0622 126.443 40.4981V39.2212C126.443 38.7904 126.505 38.4263 126.628 38.1289C126.761 37.8314 126.94 37.5955 127.166 37.4212C127.392 37.2366 127.643 37.1032 127.92 37.0212C128.207 36.9391 128.505 36.8981 128.812 36.8981C129.151 36.8981 129.479 36.9391 129.797 37.0212C130.115 37.093 130.417 37.1904 130.705 37.3135C131.002 37.4366 131.269 37.5699 131.505 37.7135ZM131.505 38.4366C131.238 38.293 130.951 38.1596 130.643 38.0366C130.335 37.9135 130.023 37.8161 129.705 37.7443C129.387 37.6725 129.064 37.6366 128.735 37.6366C128.602 37.6366 128.453 37.6571 128.289 37.6981C128.125 37.7391 127.966 37.8161 127.812 37.9289C127.658 38.0314 127.53 38.1904 127.428 38.4058C127.335 38.6212 127.289 38.9032 127.289 39.2519V40.3904C127.289 40.7596 127.325 41.0827 127.397 41.3596C127.479 41.6366 127.612 41.8673 127.797 42.0519C127.992 42.2263 128.258 42.3545 128.597 42.4366C128.935 42.5084 129.361 42.534 129.874 42.5135C130.079 42.5032 130.264 42.493 130.428 42.4827C130.602 42.4725 130.756 42.4622 130.889 42.4519C131.023 42.4314 131.135 42.4212 131.228 42.4212C131.32 42.4109 131.387 42.4058 131.428 42.4058C131.479 42.3955 131.505 42.3904 131.505 42.3904V38.4366Z" fill="black"></path><path d="M126 36.0058C126 36.0058 125.933 36.0007 125.8 35.9904C125.676 35.9802 125.528 35.9802 125.353 35.9904C125.138 36.0007 124.907 36.0314 124.661 36.0827C124.415 36.1238 124.174 36.1853 123.938 36.2673C123.702 36.3391 123.482 36.4263 123.276 36.5289C123.071 36.6212 122.897 36.7135 122.753 36.8058V43.0981H121.876V35.3904H122.753V35.8981C123.133 35.7238 123.523 35.575 123.923 35.452C124.333 35.3289 124.815 35.252 125.369 35.2212C125.553 35.2109 125.712 35.2161 125.846 35.2366C125.989 35.2571 126.061 35.2673 126.061 35.2673L126 36.0058Z" fill="black"></path><path d="M118.653 33.0978V43.0978H117.807V33.0978H115.176V32.3286H121.361V33.0978H118.653Z" fill="black"></path><path d="M246.155 21.0719C243.646 21.0719 242.392 19.7686 242.392 17.1619V11.8772H241.118C240.893 11.8772 240.735 11.8322 240.645 11.742C240.562 11.6444 240.521 11.4829 240.521 11.2575V9.87153C240.521 9.64617 240.562 9.48841 240.645 9.39827C240.735 9.30061 240.893 9.25178 241.118 9.25178H242.392V7.43763C242.392 7.25734 242.429 7.11837 242.504 7.02071C242.82 6.60755 243.282 6.16059 243.89 5.67982C243.995 5.6047 244.089 5.56714 244.172 5.56714C244.262 5.56714 244.352 5.6047 244.442 5.67982C244.765 5.92772 245.036 6.16059 245.254 6.37844C245.479 6.59629 245.671 6.81038 245.828 7.02071C245.903 7.11837 245.941 7.25734 245.941 7.43763V9.25178H247.935C248.161 9.25178 248.315 9.30061 248.397 9.39827C248.488 9.48841 248.533 9.64617 248.533 9.87153V11.2575C248.533 11.4829 248.488 11.6444 248.397 11.742C248.315 11.8322 248.161 11.8772 247.935 11.8772H245.941V16.5422C245.941 17.7441 246.377 18.3451 247.248 18.3451C247.383 18.3451 247.507 18.3338 247.62 18.3113C247.733 18.2812 247.83 18.2512 247.913 18.2211C248.071 18.161 248.18 18.1385 248.24 18.1535C248.307 18.1686 248.367 18.2512 248.42 18.4014L249.074 20.148C249.141 20.3358 249.096 20.471 248.938 20.5536C248.826 20.6062 248.551 20.7039 248.116 20.8466C247.688 20.9968 247.034 21.0719 246.155 21.0719Z" fill="black"></path><path d="M235.259 11.3927H235.304C235.867 9.83015 236.882 9.0489 238.346 9.0489C238.534 9.0489 238.688 9.06017 238.808 9.08271C238.929 9.09773 239.011 9.11276 239.056 9.12778C239.169 9.16534 239.225 9.25173 239.225 9.38694V12.1025C239.225 12.3354 239.09 12.3993 238.82 12.2941C238.729 12.2565 238.598 12.219 238.425 12.1814C238.26 12.1363 238.027 12.1138 237.727 12.1138C236.953 12.1138 236.348 12.3993 235.912 12.9702C235.477 13.5336 235.259 14.3036 235.259 15.2801V20.193C235.259 20.4183 235.21 20.5761 235.112 20.6662C235.022 20.7489 234.865 20.7902 234.639 20.7902H232.318C232.093 20.7902 231.931 20.7489 231.833 20.6662C231.743 20.5761 231.698 20.4183 231.698 20.193V10.7504C231.698 10.5701 231.736 10.4311 231.811 10.3335C231.969 10.1231 232.156 9.90903 232.374 9.69118C232.6 9.47333 232.874 9.24046 233.197 8.99256C233.257 8.94749 233.317 8.91744 233.377 8.90242C233.437 8.88739 233.49 8.87988 233.535 8.87988C233.64 8.87988 233.745 8.91744 233.85 8.99256C234.474 9.48084 234.91 9.89776 235.158 10.2433C235.225 10.3335 235.259 10.4386 235.259 10.5588V11.3927Z" fill="black"></path><path d="M224.768 5.52201C225.182 6.10044 225.602 6.84788 226.03 7.76435C226.466 8.6733 226.887 9.6724 227.292 10.7616C227.698 11.8509 228.062 12.9664 228.385 14.1082C228.716 15.2426 228.986 16.3356 229.197 17.3872C229.407 18.4389 229.527 19.3742 229.557 20.193C229.565 20.5911 229.385 20.7902 229.016 20.7902H226.29C225.937 20.7902 225.752 20.6137 225.737 20.2606C225.707 19.4192 225.572 18.3976 225.332 17.1957H219.179C218.969 18.3676 218.849 19.3892 218.819 20.2606C218.804 20.6137 218.612 20.7902 218.244 20.7902H215.574C215.438 20.7902 215.326 20.7526 215.236 20.6775C215.145 20.5949 215.104 20.4559 215.112 20.2606C215.149 19.4268 215.269 18.4802 215.472 17.421C215.683 16.3543 215.953 15.2501 216.284 14.1082C216.614 12.9664 216.982 11.8509 217.388 10.7616C217.793 9.66489 218.214 8.66203 218.65 7.75308C219.086 6.84413 219.51 6.10044 219.923 5.52201C220.141 5.21402 220.37 4.98866 220.61 4.84593C220.858 4.7032 221.163 4.63184 221.523 4.63184H223.146C223.514 4.63184 223.822 4.7032 224.07 4.84593C224.318 4.98866 224.551 5.21402 224.768 5.52201ZM222.222 8.19253C221.726 8.9813 221.272 9.92405 220.858 11.0208C220.445 12.1176 220.088 13.2444 219.788 14.4012H224.678C224.363 13.2444 223.998 12.1176 223.585 11.0208C223.172 9.92405 222.74 8.9813 222.289 8.19253H222.222Z" fill="black"></path><path d="M196.903 26.2102C196.625 26.2102 196.414 26.1802 196.272 26.1201C196.129 26.0675 196.009 25.9999 195.911 25.9173C195.716 25.7295 195.505 25.4665 195.28 25.1285C195.227 25.0459 195.171 24.9482 195.111 24.8355C195.051 24.7304 195.021 24.6402 195.021 24.5651C195.021 24.4825 195.04 24.4073 195.077 24.3397C195.115 24.2721 195.16 24.2083 195.212 24.1482C195.333 23.9904 195.479 23.8252 195.652 23.6524C195.825 23.4871 195.971 23.3557 196.091 23.258C196.174 23.1904 196.242 23.1453 196.294 23.1228C196.347 23.1078 196.392 23.1002 196.429 23.1002C196.467 23.1002 196.523 23.1078 196.598 23.1228C196.673 23.1378 196.786 23.1453 196.936 23.1453C197.455 23.1453 197.996 22.9763 198.559 22.6383C199.122 22.3002 199.678 21.6655 200.227 20.734C199.656 20.2081 199.092 19.5508 198.536 18.7621C197.988 17.9658 197.492 17.1057 197.049 16.1817C196.606 15.2502 196.249 14.3225 195.979 13.3985C195.716 12.4745 195.584 11.6219 195.584 10.8406C195.584 10.6754 195.626 10.5439 195.708 10.4463C196.054 10.0181 196.546 9.5711 197.184 9.10536C197.297 9.03024 197.398 8.99268 197.488 8.99268C197.586 8.99268 197.688 9.03024 197.793 9.10536C198.138 9.35325 198.427 9.58613 198.66 9.80397C198.901 10.0218 199.104 10.2359 199.269 10.4463C199.351 10.5439 199.393 10.6829 199.393 10.8632V10.8181C199.393 11.4115 199.464 12.0388 199.607 12.6999C199.75 13.3609 199.945 14.0069 200.193 14.638C200.441 15.2615 200.719 15.8286 201.027 16.3394C201.335 16.8427 201.654 17.2446 201.984 17.5451H202.041C202.191 17.2597 202.356 16.8502 202.537 16.3169C202.724 15.776 202.901 15.1788 203.066 14.5253C203.231 13.8642 203.367 13.2107 203.472 12.5646C203.577 11.9111 203.63 11.3327 203.63 10.8294V10.8632C203.63 10.6829 203.667 10.5439 203.742 10.4463C203.915 10.2359 204.118 10.0218 204.351 9.80397C204.584 9.58613 204.865 9.35325 205.196 9.10536C205.301 9.03024 205.399 8.99268 205.489 8.99268C205.594 8.99268 205.692 9.03024 205.782 9.10536C206.12 9.35325 206.405 9.58613 206.638 9.80397C206.871 10.0218 207.07 10.2359 207.235 10.4463C207.31 10.5439 207.348 10.6791 207.348 10.8519C207.341 11.5355 207.209 12.4294 206.954 13.5337C206.698 14.6304 206.326 15.8211 205.838 17.1057C205.35 18.3902 204.756 19.6485 204.058 20.8804C203.014 22.7359 201.887 24.0881 200.677 24.9369C199.468 25.7858 198.21 26.2102 196.903 26.2102ZM207.348 10.8294V10.8632V10.8519C207.348 10.8444 207.348 10.8369 207.348 10.8294ZM195.584 10.8294V10.8406V10.8632V10.8294Z" fill="black"></path><path d="M189.984 11.3927H190.029C190.592 9.83015 191.607 9.0489 193.071 9.0489C193.259 9.0489 193.413 9.06017 193.533 9.08271C193.654 9.09773 193.736 9.11276 193.781 9.12778C193.894 9.16534 193.95 9.25173 193.95 9.38694V12.1025C193.95 12.3354 193.815 12.3993 193.545 12.2941C193.455 12.2565 193.323 12.219 193.15 12.1814C192.985 12.1363 192.752 12.1138 192.452 12.1138C191.678 12.1138 191.073 12.3993 190.638 12.9702C190.202 13.5336 189.984 14.3036 189.984 15.2801V20.193C189.984 20.4183 189.935 20.5761 189.837 20.6662C189.747 20.7489 189.59 20.7902 189.364 20.7902H187.043C186.818 20.7902 186.656 20.7489 186.558 20.6662C186.468 20.5761 186.423 20.4183 186.423 20.193V10.7504C186.423 10.5701 186.461 10.4311 186.536 10.3335C186.694 10.1231 186.882 9.90903 187.099 9.69118C187.325 9.47333 187.599 9.24046 187.922 8.99256C187.982 8.94749 188.042 8.91744 188.102 8.90242C188.162 8.88739 188.215 8.87988 188.26 8.87988C188.365 8.87988 188.47 8.91744 188.575 8.99256C189.199 9.48084 189.635 9.89776 189.883 10.2433C189.95 10.3335 189.984 10.4386 189.984 10.5588V11.3927Z" fill="black"></path><path d="M179.167 21.0721C177.897 21.0721 176.793 20.8693 175.854 20.4636C174.915 20.0504 174.186 19.4119 173.668 18.548C173.15 17.6842 172.89 16.5686 172.89 15.2014C172.89 13.1507 173.416 11.5994 174.468 10.5477C175.52 9.49606 176.917 8.97021 178.66 8.97021C179.794 8.97021 180.752 9.17304 181.533 9.57869C182.322 9.98434 182.919 10.544 183.325 11.2576C183.738 11.9713 183.944 12.7863 183.944 13.7028C183.944 14.5967 183.715 15.2202 183.257 15.5733C182.799 15.9263 182.13 16.1029 181.251 16.1029H176.417C176.477 16.8766 176.759 17.4663 177.262 17.872C177.773 18.2776 178.464 18.4804 179.336 18.4804C180.027 18.4804 180.579 18.379 180.992 18.1762C181.413 17.9659 181.706 17.8006 181.871 17.6804C182.014 17.5752 182.175 17.5264 182.356 17.5339C182.498 17.5339 182.701 17.564 182.964 17.6241C183.234 17.6766 183.501 17.7781 183.764 17.9283C183.952 18.026 184.046 18.1612 184.046 18.3339C184.046 18.4316 184.027 18.5706 183.989 18.7509C183.967 18.856 183.929 19.01 183.877 19.2129C183.824 19.4082 183.757 19.5922 183.674 19.765C183.629 19.8476 183.557 19.9265 183.46 20.0016C183.31 20.1068 183.065 20.2458 182.727 20.4185C182.397 20.5913 181.942 20.7415 181.364 20.8693C180.786 21.0045 180.053 21.0721 179.167 21.0721ZM176.395 13.7929H180.068C180.451 13.7929 180.643 13.6164 180.643 13.2633C180.643 12.73 180.474 12.283 180.136 11.9224C179.805 11.5543 179.306 11.3703 178.637 11.3703C177.908 11.3703 177.371 11.6032 177.026 12.0689C176.688 12.5347 176.477 13.1093 176.395 13.7929Z" fill="black"></path><path d="M163.053 19.7424C162.64 19.0888 162.231 18.3376 161.825 17.4888C161.427 16.6324 161.063 15.7685 160.732 14.8971C160.409 14.0182 160.15 13.2182 159.955 12.497C159.759 11.7684 159.662 11.2087 159.662 10.8181C159.662 10.6679 159.703 10.5439 159.786 10.4463C160.131 10.0181 160.623 9.5711 161.262 9.10536C161.374 9.03024 161.476 8.99268 161.566 8.99268C161.664 8.99268 161.765 9.03024 161.87 9.10536C162.216 9.35325 162.505 9.58613 162.738 9.80397C162.978 10.0218 163.181 10.2359 163.346 10.4463C163.429 10.5439 163.47 10.6829 163.47 10.8632V10.8068C163.47 11.2951 163.557 11.9374 163.729 12.7337C163.91 13.5224 164.154 14.3563 164.462 15.2352C164.77 16.1141 165.127 16.9216 165.532 17.6578H165.589C165.927 17.1019 166.227 16.5009 166.49 15.8549C166.753 15.2089 166.975 14.5628 167.155 13.9168C167.335 13.2708 167.47 12.6773 167.561 12.1365C167.658 11.5956 167.707 11.1561 167.707 10.8181V10.8632C167.707 10.6829 167.745 10.5439 167.82 10.4463C167.993 10.2359 168.195 10.0218 168.428 9.80397C168.661 9.58613 168.943 9.35325 169.273 9.10536C169.379 9.03024 169.476 8.99268 169.566 8.99268C169.671 8.99268 169.769 9.03024 169.859 9.10536C170.197 9.35325 170.483 9.58613 170.716 9.80397C170.949 10.0218 171.148 10.2359 171.313 10.4463C171.388 10.5439 171.426 10.6754 171.426 10.8406C171.418 11.2463 171.313 11.8172 171.11 12.5534C170.907 13.282 170.633 14.0858 170.287 14.9647C169.949 15.8361 169.57 16.6963 169.149 17.5451C168.729 18.3865 168.301 19.1189 167.865 19.7424C167.602 20.1255 167.365 20.3959 167.155 20.5537C166.945 20.7114 166.58 20.7903 166.062 20.7903H164.868C164.327 20.7903 163.951 20.7152 163.741 20.5649C163.538 20.4147 163.309 20.1405 163.053 19.7424ZM159.662 10.8068V10.8181C159.662 10.8331 159.662 10.8481 159.662 10.8632V10.8068ZM171.426 10.8181V10.8632V10.8406C171.426 10.8331 171.426 10.8256 171.426 10.8181Z" fill="black"></path><path d="M153.476 5.46567C153.476 5.36801 153.506 5.28163 153.566 5.20651C153.626 5.13139 153.705 5.03373 153.802 4.91354C154.013 4.67315 154.257 4.4215 154.535 4.15858C154.813 3.88815 155.094 3.62898 155.38 3.38108C155.56 3.23836 155.695 3.16699 155.786 3.16699C155.876 3.16699 156.015 3.23836 156.202 3.38108C156.811 3.90693 157.329 4.41774 157.757 4.91354C157.855 5.02622 157.934 5.12387 157.994 5.20651C158.062 5.28163 158.095 5.36801 158.095 5.46567C158.095 5.56333 158.062 5.64971 157.994 5.72483C157.934 5.79995 157.851 5.90137 157.746 6.02907C157.543 6.26194 157.307 6.5136 157.036 6.78403C156.766 7.04695 156.488 7.2986 156.202 7.53899C156.097 7.62913 156.015 7.68923 155.955 7.71928C155.894 7.74181 155.838 7.75308 155.786 7.75308C155.733 7.75308 155.677 7.74181 155.616 7.71928C155.564 7.68923 155.478 7.62913 155.357 7.53899C155.057 7.2986 154.775 7.04695 154.512 6.78403C154.249 6.5136 154.013 6.25443 153.802 6.00654C153.705 5.88634 153.626 5.79244 153.566 5.72483C153.506 5.64971 153.476 5.56333 153.476 5.46567ZM157.555 20.193C157.555 20.4183 157.506 20.5761 157.408 20.6662C157.318 20.7489 157.16 20.7902 156.935 20.7902H154.614C154.388 20.7902 154.227 20.7489 154.129 20.6662C154.039 20.5761 153.994 20.4183 153.994 20.193V9.84893C153.994 9.62357 154.039 9.46958 154.129 9.38694C154.227 9.2968 154.388 9.25173 154.614 9.25173H156.935C157.16 9.25173 157.318 9.2968 157.408 9.38694C157.506 9.46958 157.555 9.62357 157.555 9.84893V20.193Z" fill="black"></path><path d="M148.822 21.0269C148.664 21.0945 148.551 21.1283 148.484 21.1283C148.416 21.1283 148.345 21.102 148.27 21.0494C148.097 20.9292 147.898 20.6362 147.673 20.1705C147.455 19.6972 147.346 18.9723 147.346 17.9958V4.9474C147.346 4.76711 147.383 4.62814 147.458 4.53048C147.774 4.11732 148.236 3.67035 148.844 3.18958C148.95 3.11446 149.043 3.0769 149.126 3.0769C149.224 3.0769 149.318 3.11446 149.408 3.18958C149.731 3.43748 150.001 3.67035 150.219 3.8882C150.444 4.10605 150.636 4.32014 150.794 4.53048C150.869 4.62814 150.906 4.76711 150.906 4.9474V17.3084C150.906 17.8042 150.948 18.2286 151.03 18.5817C151.113 18.9273 151.211 19.2052 151.323 19.4155C151.451 19.6634 151.402 19.84 151.177 19.9451L148.822 21.0269Z" fill="black"></path><path d="M140.089 21.0721C138.82 21.0721 137.715 20.8693 136.776 20.4636C135.837 20.0504 135.109 19.4119 134.59 18.548C134.072 17.6842 133.813 16.5686 133.813 15.2014C133.813 13.1507 134.339 11.5994 135.39 10.5477C136.442 9.49606 137.839 8.97021 139.582 8.97021C140.716 8.97021 141.674 9.17304 142.455 9.57869C143.244 9.98434 143.841 10.544 144.247 11.2576C144.66 11.9713 144.867 12.7863 144.867 13.7028C144.867 14.5967 144.638 15.2202 144.179 15.5733C143.721 15.9263 143.053 16.1029 142.174 16.1029H137.34C137.4 16.8766 137.682 17.4663 138.185 17.872C138.696 18.2776 139.387 18.4804 140.258 18.4804C140.949 18.4804 141.501 18.379 141.915 18.1762C142.335 17.9659 142.628 17.8006 142.793 17.6804C142.936 17.5752 143.098 17.5264 143.278 17.5339C143.421 17.5339 143.624 17.564 143.886 17.6241C144.157 17.6766 144.424 17.7781 144.687 17.9283C144.874 18.026 144.968 18.1612 144.968 18.3339C144.968 18.4316 144.949 18.5706 144.912 18.7509C144.889 18.856 144.852 19.01 144.799 19.2129C144.747 19.4082 144.679 19.5922 144.596 19.765C144.551 19.8476 144.48 19.9265 144.382 20.0016C144.232 20.1068 143.988 20.2458 143.65 20.4185C143.319 20.5913 142.865 20.7415 142.286 20.8693C141.708 21.0045 140.976 21.0721 140.089 21.0721ZM137.317 13.7929H140.991C141.374 13.7929 141.565 13.6164 141.565 13.2633C141.565 12.73 141.396 12.283 141.058 11.9224C140.728 11.5543 140.228 11.3703 139.56 11.3703C138.831 11.3703 138.294 11.6032 137.948 12.0689C137.61 12.5347 137.4 13.1093 137.317 13.7929Z" fill="black"></path><path d="M120.348 20.7902C119.574 20.7902 118.984 20.6925 118.578 20.4972C118.18 20.3019 117.91 19.9826 117.767 19.5394C117.632 19.0962 117.564 18.5065 117.564 17.7704V7.65167C117.564 6.90047 117.632 6.30702 117.767 5.87132C117.91 5.42811 118.18 5.11261 118.578 4.9248C118.984 4.72949 119.574 4.63184 120.348 4.63184H123.807C125.422 4.63184 126.834 4.87222 128.044 5.35299C129.261 5.83376 130.207 6.64881 130.883 7.79815C131.559 8.93998 131.897 10.51 131.897 12.5082C131.897 14.5064 131.559 16.114 130.883 17.3309C130.207 18.5403 129.261 19.4192 128.044 19.9676C126.834 20.516 125.422 20.7902 123.807 20.7902H120.348ZM122.488 7.59533C121.993 7.59533 121.655 7.7005 121.474 7.91083C121.294 8.12117 121.204 8.48175 121.204 8.99256V16.4295C121.204 16.9328 121.294 17.2933 121.474 17.5112C121.655 17.729 121.993 17.838 122.488 17.838H123.007C124.614 17.838 125.858 17.4436 126.737 16.6548C127.623 15.8661 128.066 14.4989 128.066 12.5533C128.066 11.2537 127.863 10.2471 127.458 9.53343C127.06 8.81227 126.481 8.30897 125.722 8.02351C124.964 7.73806 124.051 7.59533 122.984 7.59533H122.488Z" fill="black"></path><g clip-path="url(#clip0_675_161)"><path d="M97.8847 43.583C97.3235 41.9249 96.6906 40.2908 96.1294 38.6447L94.2966 33.7482C93.6996 32.1081 93.0309 30.5039 92.404 28.8757L92.0757 28.0437L91.0428 28.0078C89.3353 27.936 87.6279 27.8522 85.9204 27.8162L80.7979 27.6905C77.6576 27.6067 74.5173 27.6127 71.377 27.5768C70.2367 26.3796 69.0665 25.1825 67.9202 23.9853L63.8903 19.8311C61.1918 17.1135 58.4754 14.366 55.6813 11.6843L55.1679 11.1995L54.6126 11.2294C52.8216 11.3072 51.0723 11.3551 49.3051 11.4688L43.9976 11.7801C40.4573 12.0375 36.9169 12.2889 33.3766 12.7079C36.9169 13.1269 40.4573 13.3783 43.9976 13.6357L49.3051 13.947C50.8454 14.0428 52.3857 14.0906 53.9261 14.1565C56.3141 16.9279 58.8276 19.6216 61.2814 22.3511L65.2396 26.5772C66.565 27.9779 67.8605 29.4085 69.2098 30.7673L69.8068 31.3659H70.5889C74.0039 31.318 77.4188 31.3359 80.8278 31.2462L85.9502 31.1145C87.3592 31.1145 88.7682 31.0247 90.1831 30.9648C90.7801 32.2278 91.413 33.4909 92.0637 34.7359L94.4518 39.381C95.2817 40.9133 96.0817 42.4637 96.9354 43.9901C97.7891 45.5165 98.625 47.0429 99.5205 48.5513C99.0071 46.8872 98.4519 45.2351 97.8847 43.583Z" fill="black"></path><path d="M81.592 40.1054C80.3362 39.5922 79.0008 39.3025 77.6457 39.2494C76.2881 39.1698 74.9264 39.3031 73.6098 39.6445C72.2621 40.0059 70.9928 40.6148 69.8665 41.4403C68.7386 42.2636 67.761 43.2762 66.9769 44.4332C66.3891 45.3122 65.9043 46.2562 65.5321 47.2466C60.8814 47.1508 56.2306 47.1508 51.5798 47.1149C46.6245 47.1508 41.6633 47.1149 36.708 47.2525C31.7527 47.3902 26.7915 47.48 21.8302 47.6835C16.869 47.887 11.9197 48.1444 6.95847 48.5455C11.9197 48.9465 16.875 49.2159 21.8302 49.4075C26.7855 49.599 31.7468 49.7606 36.708 49.8384C41.6692 49.9163 46.6245 49.9402 51.5798 49.9821C56.535 50.024 61.4963 49.9462 66.4515 49.8324H67.4725L67.7053 48.8508C67.9837 47.7658 68.4267 46.7301 69.0187 45.78C69.603 44.8036 70.3455 43.9316 71.2158 43.2001C73.0452 41.7574 75.3003 40.9637 77.6278 40.9434C80.0151 40.8016 82.3658 41.5836 84.195 43.1283C86.035 44.814 87.3338 47.01 87.9264 49.4374C87.6897 46.8298 86.6221 44.368 84.8816 42.416C83.9558 41.4264 82.8358 40.6397 81.592 40.1054Z" fill="black"></path><path d="M46.6782 19.7533C49.1798 19.5617 51.6813 19.3103 54.1888 18.9332C51.6813 18.5501 49.1798 18.3047 46.6782 18.1072C45.4245 18.0054 44.1767 17.9156 42.923 17.8558C41.6692 17.7959 40.4215 17.7061 39.1677 17.6762L37.4662 17.6343L37.9856 19.3403C38.5826 21.3216 39.1797 23.2969 39.8662 25.2543C40.5528 27.2117 41.1797 29.175 41.8842 31.1205L42.2364 32.0842H43.2155C46.6305 32.0303 50.0454 31.9106 53.4664 31.7011C55.1738 31.5873 56.8813 31.4616 58.5888 31.294C60.2963 31.1264 62.0097 30.9409 63.7172 30.6955C62.0097 30.4321 60.2963 30.2405 58.5888 30.0969C56.8813 29.9532 55.1738 29.7976 53.4664 29.6898C50.3857 29.5043 47.3051 29.3905 44.2245 29.3307C43.6693 27.6786 43.1081 26.0265 42.511 24.3923C42.0215 22.9737 41.4961 21.573 40.9588 20.1663C41.6155 20.1364 42.2722 20.0945 42.923 20.0586C44.1767 19.9209 45.4245 19.8311 46.6782 19.7533Z" fill="black"></path><path d="M22.678 2.60984C23.3168 2.6697 23.9616 2.7116 24.6004 2.76547C26.093 9.46965 27.9199 16.0721 29.9736 22.6086C31.0662 26.0206 32.2303 29.4086 33.508 32.7846C34.7856 36.1607 36.1468 39.4768 37.7468 42.7391C37.3408 39.1476 36.6781 35.592 35.9558 32.0663C35.2334 28.5406 34.3796 25.0629 33.4721 21.597C31.6572 14.6534 29.5497 7.78164 27.0661 1.06549L26.6721 0L25.7288 0.0598587C24.7079 0.125703 23.693 0.221477 22.678 0.311265C21.6631 0.401054 20.6422 0.484856 19.6272 0.610559C17.5914 0.838022 15.5556 1.08943 13.5257 1.46055C15.5556 1.82569 17.5914 2.05914 19.6272 2.31055C20.6422 2.43625 21.6571 2.51407 22.678 2.60984Z" fill="black"></path><path d="M11.1734 13.6658C12.9645 13.6658 14.8033 13.588 16.6123 13.4503C18.4422 13.3296 20.2615 13.0816 22.0571 12.7081C20.2614 12.3366 18.442 12.0906 16.6123 11.9718C14.8053 11.8282 12.9923 11.7563 11.1734 11.7563C9.38237 11.7563 7.54951 11.8282 5.73457 11.9659C3.90666 12.0867 2.08933 12.3347 0.295715 12.7081C2.08969 13.0806 3.90682 13.3306 5.73457 13.4563C7.54951 13.596 9.36247 13.6658 11.1734 13.6658Z" fill="black"></path><path d="M13.5257 22.5008C15.3366 22.5008 17.1496 22.431 18.9645 22.2913C20.7921 22.1672 22.6092 21.9192 24.4034 21.549C22.6098 21.174 20.7925 20.924 18.9645 20.8008C17.1496 20.6651 15.3366 20.5953 13.5257 20.5913C11.7346 20.5913 9.8958 20.6631 8.08085 20.8008C6.25255 20.9211 4.43504 21.1711 2.642 21.549C4.42782 21.921 6.2371 22.169 8.05697 22.2913C9.8958 22.429 11.7107 22.5068 13.5257 22.5008Z" fill="black"></path><path d="M15.872 31.342C17.6829 31.342 19.4959 31.2702 21.3108 31.1265C23.1387 31.0057 24.9561 30.7577 26.7497 30.3843C24.9561 30.0108 23.1387 29.7628 21.3108 29.642C19.5198 29.5043 17.6809 29.4265 15.872 29.4265C14.063 29.4265 12.2421 29.4983 10.4331 29.642C8.60322 29.7628 6.7839 30.0108 4.98828 30.3843C6.78784 30.7582 8.61116 31.0062 10.445 31.1265C12.2361 31.2702 14.057 31.348 15.872 31.342Z" fill="black"></path><path d="M18.2063 38.2676C16.4153 38.2676 14.5764 38.3394 12.7675 38.4771C10.9394 38.5994 9.12201 38.8494 7.32861 39.2253C9.12215 39.5992 10.9395 39.8472 12.7675 39.9676C14.5784 40.1112 16.3914 40.1831 18.2063 40.1831C19.9974 40.1831 21.8302 40.1052 23.6452 39.9676C25.4731 39.8472 27.2905 39.5992 29.084 39.2253C27.2905 38.8514 25.4731 38.6034 23.6452 38.4831C21.8422 38.3394 20.0332 38.2676 18.2063 38.2676Z" fill="black"></path></g><defs><clipPath id="clip0_675_161"><rect width="99.2308" height="50" fill="white" transform="translate(0.295715)"></rect></clipPath></defs></svg>