<svg width="189" height="49" viewBox="0 0 189 49" fill="none" xmlns="http://www.w3.org/2000/svg">
<path d="M62.3998 38.1333H54.2878V1.9933L62.3998 1.4213V21.0773L72.5398 12.1853L77.2718 17.8533L70.4078 23.4693L79.2998 38.1333H70.2518L64.6358 28.1493L62.3998 29.9693V38.1333ZM88.0862 30.2293C88.0862 30.6453 88.1902 31.0266 88.3982 31.3733C88.6409 31.72 88.9356 31.9973 89.2822 32.2053C89.6636 32.4133 90.0796 32.5173 90.5302 32.5173C91.2582 32.5173 92.0036 32.3613 92.7662 32.0493C93.5289 31.7026 94.2569 31.2173 94.9502 30.5933V27.4733H90.9982C90.0969 27.4733 89.3862 27.7506 88.8662 28.3053C88.3462 28.86 88.0862 29.5013 88.0862 30.2293ZM84.4462 20.7133L82.2622 14.4733C83.0596 14.0226 84.0302 13.624 85.1742 13.2773C86.3529 12.9306 87.5836 12.6533 88.8662 12.4453C90.1836 12.2373 91.3622 12.1333 92.4022 12.1333C94.5516 12.1333 96.4236 12.5493 98.0182 13.3813C99.6476 14.2133 100.896 15.3746 101.762 16.8653C102.664 18.356 103.114 20.0893 103.114 22.0653V38.1333H98.5902L96.6662 35.4813C95.7996 36.4866 94.8462 37.284 93.8062 37.8733C92.7662 38.4626 91.6569 38.7573 90.4782 38.7573C87.3582 38.7573 85.0356 37.9773 83.5102 36.4173C81.9849 34.8573 81.2222 32.812 81.2222 30.2813C81.2222 27.612 82.1236 25.6706 83.9262 24.4573C85.7289 23.2093 88.0689 22.5853 90.9462 22.5853H94.8982L94.8462 22.4293C94.7422 21.3546 94.3609 20.54 93.7022 19.9853C93.0782 19.396 92.2636 19.1013 91.2582 19.1013C90.2182 19.1013 89.0569 19.2573 87.7742 19.5693C86.4916 19.8813 85.3822 20.2626 84.4462 20.7133ZM116.471 38.1333H108.307V12.9653H112.467L114.755 16.5533C115.448 15.9986 116.28 15.444 117.251 14.8893C118.222 14.3346 119.227 13.8666 120.267 13.4853C121.342 13.104 122.33 12.9133 123.231 12.9133L124.895 19.4133C124.098 19.4133 123.196 19.5693 122.191 19.8813C121.22 20.1933 120.232 20.6266 119.227 21.1813C118.222 21.7013 117.303 22.3253 116.471 23.0533V38.1333ZM136.276 38.1333H128.112V12.9133H136.276V38.1333ZM132.168 9.4293C130.954 9.4293 129.897 8.99597 128.996 8.1293C128.129 7.22797 127.696 6.17063 127.696 4.9573C127.696 3.7093 128.129 2.65197 128.996 1.7853C129.897 0.883966 130.954 0.4333 132.168 0.4333C133.381 0.4333 134.438 0.883966 135.34 1.7853C136.241 2.65197 136.692 3.7093 136.692 4.9573C136.692 6.17063 136.241 7.22797 135.34 8.1293C134.473 8.99597 133.416 9.4293 132.168 9.4293ZM165.07 27.7333H148.898C149.106 28.6346 149.47 29.4146 149.99 30.0733C150.51 30.732 151.221 31.252 152.122 31.6333C153.024 31.98 154.168 32.1533 155.554 32.1533C157.045 32.1533 158.362 31.9626 159.506 31.5813C160.685 31.1653 161.742 30.6973 162.678 30.1773L164.966 35.8453C164.273 36.3653 163.406 36.8506 162.366 37.3013C161.361 37.752 160.234 38.0986 158.986 38.3413C157.738 38.6186 156.404 38.7573 154.982 38.7573C151.932 38.7573 149.28 38.2373 147.026 37.1973C144.808 36.1226 143.092 34.5973 141.878 32.6213C140.7 30.6453 140.11 28.288 140.11 25.5493C140.11 22.776 140.665 20.4013 141.774 18.4253C142.918 16.4146 144.478 14.872 146.454 13.7973C148.43 12.688 150.701 12.1333 153.266 12.1333C155.936 12.1333 158.137 12.74 159.87 13.9533C161.638 15.132 162.938 16.7266 163.77 18.7373C164.637 20.7133 165.07 22.8973 165.07 25.2893V27.7333ZM148.794 23.1053H157.322C157.218 22.2733 156.976 21.5453 156.594 20.9213C156.248 20.2973 155.78 19.7946 155.19 19.4133C154.601 19.032 153.89 18.8413 153.058 18.8413C152.33 18.8413 151.654 19.0146 151.03 19.3613C150.406 19.708 149.904 20.1933 149.522 20.8173C149.141 21.4413 148.898 22.204 148.794 23.1053ZM187.816 12.9133L188.232 17.4893L176.844 31.6853H188.232L188.96 38.1333H167.796L166.756 33.8693L178.196 19.4133H168.784L167.692 12.9133H187.816Z" fill="black"/>
<path d="M20.4013 1C17.7223 0.999445 15.0695 1.55078 12.5944 2.62253C10.1192 3.69428 7.87013 5.26543 5.97564 7.24628C4.08115 9.22712 2.57834 11.5788 1.55303 14.1671C0.527724 16.7554 -5.26065e-08 19.5296 0 22.3312L0 29.4332C3.52889 29.8559 10.6796 27.1758 9.2406 24.6098L6.70206 18.6915L33.1465 16.8822L15.7648 39.8663L12.9756 33.4196C12.9756 33.4196 11.1364 27.7295 0.404226 43.6667H20.5023C23.1744 43.6672 25.8204 43.1173 28.2892 42.0483C30.758 40.9793 33.0012 39.4122 34.8908 37.4365C36.7804 35.4608 38.2794 33.1151 39.302 30.5335C40.3247 27.9518 40.8511 25.1848 40.8511 22.3904C40.8516 19.5816 40.323 16.8001 39.2956 14.205C38.2681 11.6098 36.7619 9.2517 34.8629 7.26536C32.9639 5.27902 30.7094 3.70335 28.228 2.62833C25.7467 1.55331 23.0871 1 20.4013 1Z" fill="#FFCC00"/>
</svg>
