<svg width="195" height="45" viewBox="0 0 195 45" fill="none" xmlns="http://www.w3.org/2000/svg">
<path d="M65.6194 38.7872H57.8194V4.03723L65.6194 3.48723V22.3872L75.3694 13.8372L79.9194 19.2872L73.3194 24.6872L81.8694 38.7872H73.1694L67.7694 29.1872L65.6194 30.9372V38.7872ZM90.3178 31.1872C90.3178 31.5872 90.4178 31.9539 90.6178 32.2872C90.8512 32.6206 91.1345 32.8872 91.4678 33.0872C91.8345 33.2872 92.2345 33.3872 92.6678 33.3872C93.3678 33.3872 94.0845 33.2372 94.8178 32.9372C95.5512 32.6039 96.2512 32.1372 96.9178 31.5372V28.5372H93.1178C92.2512 28.5372 91.5678 28.8039 91.0678 29.3372C90.5678 29.8706 90.3178 30.4872 90.3178 31.1872ZM86.8178 22.0372L84.7178 16.0372C85.4845 15.6039 86.4178 15.2206 87.5178 14.8872C88.6512 14.5539 89.8345 14.2872 91.0678 14.0872C92.3345 13.8872 93.4678 13.7872 94.4678 13.7872C96.5345 13.7872 98.3345 14.1872 99.8678 14.9872C101.434 15.7872 102.634 16.9039 103.468 18.3372C104.334 19.7706 104.768 21.4372 104.768 23.3372V38.7872H100.418L98.5678 36.2372C97.7345 37.2039 96.8178 37.9706 95.8178 38.5372C94.8178 39.1039 93.7512 39.3872 92.6178 39.3872C89.6178 39.3872 87.3845 38.6372 85.9178 37.1372C84.4512 35.6372 83.7178 33.6706 83.7178 31.2372C83.7178 28.6706 84.5845 26.8039 86.3178 25.6372C88.0512 24.4372 90.3012 23.8372 93.0678 23.8372H96.8678L96.8178 23.6872C96.7178 22.6539 96.3512 21.8706 95.7178 21.3372C95.1178 20.7706 94.3345 20.4872 93.3678 20.4872C92.3678 20.4872 91.2512 20.6372 90.0178 20.9372C88.7845 21.2372 87.7178 21.6039 86.8178 22.0372ZM117.611 38.7872H109.761V14.5872H113.761L115.961 18.0372C116.627 17.5039 117.427 16.9706 118.361 16.4372C119.294 15.9039 120.261 15.4539 121.261 15.0872C122.294 14.7206 123.244 14.5372 124.111 14.5372L125.711 20.7872C124.944 20.7872 124.077 20.9372 123.111 21.2372C122.177 21.5372 121.227 21.9539 120.261 22.4872C119.294 22.9872 118.411 23.5872 117.611 24.2872V38.7872ZM136.654 38.7872H128.804V14.5372H136.654V38.7872ZM132.704 11.1872C131.537 11.1872 130.52 10.7706 129.654 9.93723C128.82 9.07056 128.404 8.0539 128.404 6.88723C128.404 5.68723 128.82 4.67056 129.654 3.83723C130.52 2.97056 131.537 2.53723 132.704 2.53723C133.87 2.53723 134.887 2.97056 135.754 3.83723C136.62 4.67056 137.054 5.68723 137.054 6.88723C137.054 8.0539 136.62 9.07056 135.754 9.93723C134.92 10.7706 133.904 11.1872 132.704 11.1872ZM164.341 28.7872H148.791C148.991 29.6539 149.341 30.4039 149.841 31.0372C150.341 31.6706 151.024 32.1706 151.891 32.5372C152.758 32.8706 153.858 33.0372 155.191 33.0372C156.624 33.0372 157.891 32.8539 158.991 32.4872C160.124 32.0872 161.141 31.6372 162.041 31.1372L164.241 36.5872C163.574 37.0872 162.741 37.5539 161.741 37.9872C160.774 38.4206 159.691 38.7539 158.491 38.9872C157.291 39.2539 156.008 39.3872 154.641 39.3872C151.708 39.3872 149.158 38.8872 146.991 37.8872C144.858 36.8539 143.208 35.3872 142.041 33.4872C140.908 31.5872 140.341 29.3206 140.341 26.6872C140.341 24.0206 140.874 21.7372 141.941 19.8372C143.041 17.9039 144.541 16.4206 146.441 15.3872C148.341 14.3206 150.524 13.7872 152.991 13.7872C155.558 13.7872 157.674 14.3706 159.341 15.5372C161.041 16.6706 162.291 18.2039 163.091 20.1372C163.924 22.0372 164.341 24.1372 164.341 26.4372V28.7872ZM148.691 24.3372H156.891C156.791 23.5372 156.558 22.8372 156.191 22.2372C155.858 21.6372 155.408 21.1539 154.841 20.7872C154.274 20.4206 153.591 20.2372 152.791 20.2372C152.091 20.2372 151.441 20.4039 150.841 20.7372C150.241 21.0706 149.758 21.5372 149.391 22.1372C149.024 22.7372 148.791 23.4706 148.691 24.3372ZM186.212 14.5372L186.612 18.9372L175.662 32.5872H186.612L187.312 38.7872H166.962L165.962 34.6872L176.962 20.7872H167.912L166.862 14.5372H186.212Z" fill="black"/>
<path d="M22.3586 4.23028e-07C19.4227 -0.000560236 16.5153 0.556186 13.8027 1.63844C11.09 2.7207 8.62521 4.30727 6.54896 6.30753C4.47271 8.3078 2.82572 10.6826 1.70204 13.2963C0.578355 15.91 -5.76536e-08 18.7113 0 21.5404L0 28.712C3.86746 29.1389 11.7043 26.4325 10.1272 23.8413L7.34508 17.865L36.3267 16.0379L17.2773 39.2474L14.2206 32.7375C14.2206 32.7375 12.2049 26.9917 0.443008 43.0851H22.4694C25.3978 43.0857 28.2976 42.5304 31.0033 41.4509C33.7089 40.3714 36.1674 38.7889 38.2383 36.7938C40.3092 34.7987 41.952 32.43 43.0728 29.8231C44.1935 27.2161 44.7704 24.422 44.7704 21.6002C44.771 18.7638 44.1917 15.9551 43.0657 13.3345C41.9396 10.7138 40.2889 8.33262 38.2077 6.32681C36.1265 4.32099 33.6557 2.72986 30.9363 1.6443C28.2169 0.558737 25.3022 3.67616e-07 22.3586 4.23028e-07Z" fill="black"/>
</svg>
