<svg xmlns="http://www.w3.org/2000/svg" width="149" height="151" viewBox="0 0 149 151" fill="none"><path d="M79.8021 139.12L82.3567 138.852L83.2451 147.233L84.9337 146.41L85.9459 148.344L82.9807 149.792L80.956 150.005L79.8021 139.12Z" fill="black"></path><path d="M76.7829 140.191L75.7689 142.069C75.3919 141.791 75.0253 141.58 74.6691 141.434C74.3129 141.288 73.9718 141.211 73.646 141.202C73.3396 141.194 73.0682 141.243 72.8318 141.348C72.5904 141.459 72.3989 141.612 72.2574 141.808C72.1157 142.008 72.0413 142.242 72.0341 142.51C72.0224 142.947 72.2029 143.293 72.5757 143.546C72.9435 143.804 73.4654 143.942 74.1414 143.96L74.6301 143.973L74.5827 145.738L74.094 145.725C73.7244 145.716 73.397 145.763 73.112 145.867C72.822 145.971 72.5942 146.119 72.4285 146.309C72.2578 146.504 72.169 146.73 72.1621 146.988C72.1565 147.197 72.2075 147.383 72.315 147.547C72.4224 147.715 72.5746 147.848 72.7715 147.946C72.9635 148.043 73.186 148.096 73.4388 148.102C73.7063 148.109 73.9948 148.059 74.3043 147.95C74.6138 147.842 74.9493 147.673 75.3107 147.444L76.3717 149.253C75.9239 149.616 75.4226 149.89 74.8677 150.075C74.3079 150.264 73.7264 150.351 73.1234 150.335C72.4523 150.317 71.8598 150.18 71.346 149.923C70.8272 149.67 70.4252 149.329 70.1399 148.898C69.8497 148.467 69.712 147.976 69.7268 147.427C69.7425 146.843 69.9243 146.325 70.2722 145.872C70.6153 145.419 71.065 145.073 71.6213 144.835C70.9025 144.602 70.3452 144.241 69.9495 143.754C69.5488 143.271 69.3573 142.699 69.3751 142.038C69.3914 141.43 69.5812 140.887 69.9444 140.41C70.3026 139.938 70.7845 139.571 71.3901 139.31C71.9956 139.054 72.68 138.936 73.4435 138.956C74.0611 138.972 74.6567 139.085 75.2302 139.295C75.8035 139.51 76.3211 139.809 76.7829 140.191Z" fill="black"></path><path d="M56.4887 136.369L58.9666 137.046L57.7235 141.555L60.0208 148.68L57.0079 147.857L55.8935 143.415L52.6294 146.662L49.6165 145.839L55.2475 140.871L56.4887 136.369Z" fill="black"></path><path d="M44.9781 132.561C46.0675 132.365 47.0999 132.487 48.0753 132.927C48.8113 133.259 49.4035 133.714 49.852 134.29C50.2939 134.868 50.5635 135.502 50.6607 136.192C50.7579 136.882 50.6521 137.565 50.3433 138.243C50.0507 138.885 49.6374 139.386 49.1034 139.749C48.5674 140.115 47.969 140.325 47.3082 140.379C46.643 140.431 45.9756 140.306 45.3061 140.003C44.61 139.689 44.0719 139.251 43.6916 138.69C43.3113 138.128 43.106 137.494 43.0757 136.786C43.039 136.081 43.1932 135.35 43.5383 134.593L43.6352 134.381L48.3172 136.495C48.3363 136.242 48.3043 135.996 48.2214 135.755C48.1341 135.513 47.9917 135.286 47.7942 135.074C47.5948 134.866 47.3376 134.692 47.0228 134.549C46.3711 134.255 45.6634 134.189 44.8997 134.351L44.9781 132.561ZM47.9623 137.52L45.1956 136.27C45.1092 136.53 45.0847 136.784 45.1221 137.03C45.1594 137.276 45.2559 137.499 45.4114 137.697C45.5625 137.893 45.7621 138.048 46.0104 138.16C46.2631 138.274 46.5133 138.317 46.7608 138.29C47.0019 138.266 47.228 138.186 47.4389 138.052C47.6433 137.92 47.8178 137.743 47.9623 137.52Z" fill="black"></path><path d="M37.5822 127.026L39.3489 128.151L39.0037 128.917C39.3978 128.799 39.8029 128.771 40.2192 128.834C40.6355 128.898 41.0385 129.053 41.4284 129.301C41.8552 129.573 42.1822 129.897 42.4094 130.272C42.6365 130.647 42.7545 131.04 42.7633 131.449C42.7653 131.859 42.6479 132.249 42.4112 132.617C42.1613 133.006 41.8391 133.282 41.4445 133.447C41.0458 133.608 40.6099 133.656 40.1368 133.592C39.6638 133.527 39.1933 133.346 38.7255 133.048C38.4587 132.878 38.2145 132.682 37.9928 132.46C37.767 132.236 37.5679 131.996 37.3957 131.743L37.3128 131.872C37.1734 132.088 37.1181 132.319 37.1468 132.562C37.1755 132.805 37.2738 133.043 37.4417 133.277C37.6069 133.515 37.8331 133.725 38.1204 133.908C38.4035 134.088 38.7074 134.218 39.032 134.298C39.354 134.382 39.6784 134.413 40.0052 134.39L39.5679 136.231C38.9988 136.163 38.4659 136.043 37.9692 135.871C37.4659 135.7 37.0131 135.487 36.6109 135.231C35.9912 134.836 35.5312 134.373 35.2309 133.842C34.9265 133.308 34.7912 132.74 34.8249 132.139C34.856 131.542 35.0649 130.942 35.4516 130.341L37.5822 127.026ZM40.0062 130.515C39.7969 130.382 39.5669 130.299 39.3161 130.266C39.0587 130.235 38.8197 130.256 38.5993 130.329C38.3747 130.399 38.2052 130.519 38.0906 130.689L38.0748 130.713C38.1706 130.924 38.3019 131.12 38.4688 131.301C38.633 131.487 38.8157 131.643 39.0168 131.771C39.3164 131.962 39.5959 132.053 39.8554 132.046C40.1122 132.042 40.3051 131.94 40.434 131.739C40.5155 131.612 40.5535 131.472 40.5481 131.319C40.54 131.169 40.4887 131.024 40.3942 130.883C40.2997 130.743 40.1703 130.62 40.0062 130.515Z" fill="black"></path><path d="M33.7808 123.898L35.6137 125.437L30.8944 131.003L29.3019 129.665L30.0191 128.695C29.5559 128.865 29.0943 128.91 28.634 128.828C28.1707 128.75 27.7397 128.544 27.3411 128.209C27.2181 128.106 27.1012 127.992 26.9903 127.867C26.8756 127.739 26.7688 127.602 26.6699 127.455L28.2856 126.001C28.4772 126.301 28.6866 126.547 28.9138 126.738C29.2044 126.982 29.5112 127.132 29.8342 127.187C30.1573 127.242 30.4744 127.207 30.7855 127.081C31.0929 126.951 31.3772 126.733 31.6383 126.425L33.7808 123.898Z" fill="black"></path><path d="M29.7206 121.091L27.9096 122.082C27.9275 121.873 27.9018 121.628 27.8326 121.348C27.7634 121.067 27.6612 120.79 27.5261 120.518C27.3841 120.245 27.2251 120.014 27.049 119.826C26.8796 119.644 26.7162 119.534 26.559 119.494C26.4017 119.454 26.2695 119.483 26.1624 119.582C26.0625 119.675 26.0151 119.792 26.0204 119.933C26.0221 120.077 26.0542 120.24 26.1167 120.42C26.1792 120.601 26.2583 120.8 26.354 121.016C26.4809 121.323 26.6018 121.655 26.7165 122.013C26.8277 122.374 26.8613 122.734 26.8173 123.093C26.7665 123.452 26.5697 123.79 26.227 124.107C25.895 124.415 25.5279 124.595 25.1257 124.65C24.7202 124.7 24.3036 124.628 23.8758 124.434C23.4481 124.241 23.0349 123.93 22.6362 123.504C21.9817 122.804 21.5022 121.938 21.1978 120.907L23.0163 120.139C23.0298 120.338 23.0786 120.565 23.1626 120.819C23.243 121.076 23.3463 121.321 23.4724 121.556C23.5916 121.79 23.7177 121.979 23.8506 122.121C23.9868 122.267 24.12 122.352 24.2502 122.377C24.3804 122.403 24.4937 122.371 24.5901 122.281C24.6757 122.202 24.7209 122.097 24.7256 121.967C24.7267 121.84 24.6961 121.686 24.6336 121.505C24.5711 121.324 24.4939 121.121 24.402 120.894C24.2618 120.573 24.136 120.232 24.0248 119.871C23.9137 119.51 23.8818 119.148 23.9294 118.786C23.9737 118.42 24.1689 118.077 24.5151 117.756C24.8543 117.442 25.2369 117.26 25.6631 117.21C26.0857 117.164 26.5245 117.245 26.9793 117.454C27.4308 117.659 27.8692 117.989 28.2944 118.444C29.0054 119.204 29.4808 120.087 29.7206 121.091Z" fill="black"></path><path d="M21.6008 110.249L12.1501 115.771L8.50156 109.587L10.4358 108.457L12.7792 112.429L14.5874 111.372L12.3924 107.651L14.3266 106.521L16.5216 110.242L18.3614 109.167L15.9809 105.132L17.9152 104.002L21.6008 110.249Z" fill="black"></path><path d="M15.9526 99.3968L17.1811 102.489L12.5649 100.949L10.3393 105.032L9.10823 101.933L10.488 99.9706L8.13842 99.4914L6.90999 96.3989L11.3229 97.8621L13.6493 93.5984L14.8805 96.6977L13.359 98.8568L15.9526 99.3968Z" fill="black"></path><path d="M16.4625 89.1249L16.9937 91.4662L6.31418 93.8657L5.84923 91.8162L6.77032 91.4896C6.36184 91.2722 6.01586 90.9785 5.73237 90.6084C5.44413 90.2394 5.24512 89.8129 5.13534 89.329C4.99112 88.6933 5.02442 88.0925 5.23525 87.5265C5.44133 86.9617 5.79212 86.474 6.28763 86.0635C6.77839 85.6541 7.37975 85.3694 8.09172 85.2094C8.80368 85.0494 9.472 85.0489 10.0967 85.2077C10.7166 85.3675 11.2439 85.6579 11.6786 86.0788C12.1085 86.5007 12.3956 87.0296 12.5398 87.6653C12.6399 88.1065 12.6547 88.5345 12.5841 88.9492C12.5078 89.3603 12.36 89.7425 12.1409 90.0959L16.4625 89.1249ZM10.5968 88.7974C10.5279 88.4938 10.3982 88.2412 10.2079 88.0397C10.0164 87.8334 9.7851 87.6934 9.51397 87.6197C9.23702 87.5423 8.94429 87.5383 8.63577 87.6076C8.3225 87.678 8.0599 87.8068 7.84797 87.994C7.63604 88.1813 7.48762 88.4066 7.40271 88.67C7.31305 88.9344 7.30266 89.2185 7.37154 89.5221C7.43612 89.8068 7.55885 90.0509 7.73974 90.2546C7.91481 90.4546 8.12949 90.5983 8.38379 90.6858C8.63334 90.7743 8.90557 90.7979 9.20048 90.7566L9.50663 90.6878C9.78129 90.6011 10.0122 90.4645 10.1993 90.2779C10.3864 90.0912 10.5159 89.8702 10.5876 89.6147C10.6583 89.3545 10.6613 89.0821 10.5968 88.7974Z" fill="black"></path><path d="M10.2594 76.0241C10.9539 76.8843 11.3415 77.848 11.4222 78.9152C11.4831 79.7205 11.3682 80.4584 11.0774 81.129C10.7815 81.7952 10.3541 82.337 9.79536 82.7545C9.23663 83.172 8.58615 83.4086 7.84392 83.4642C7.14049 83.5169 6.50203 83.3964 5.92852 83.1028C5.35016 82.8095 4.87906 82.3863 4.5152 81.833C4.15098 81.2749 3.94116 80.6296 3.88574 79.8971C3.82812 79.1355 3.95454 78.4528 4.265 77.849C4.57547 77.2452 5.03391 76.7596 5.64034 76.3922C6.24155 76.0203 6.95694 75.8032 7.78649 75.7411L8.01935 75.7236L8.40692 80.8462C8.63802 80.7411 8.83913 80.5943 9.01027 80.4058C9.18103 80.2125 9.31211 79.9783 9.4035 79.7031C9.49004 79.4283 9.52028 79.1187 9.49422 78.7743C9.44027 78.0612 9.15919 77.4091 8.65099 76.8178L10.2594 76.0241ZM7.33766 81.0288L7.10864 78.0018C6.83918 78.0513 6.60528 78.1517 6.40696 78.3032C6.20864 78.4546 6.0597 78.6463 5.96015 78.8782C5.86024 79.1052 5.82056 79.3545 5.84112 79.6262C5.86204 79.9027 5.94363 80.1429 6.08591 80.3469C6.22298 80.5464 6.40094 80.7062 6.61982 80.8264C6.83348 80.9421 7.07276 81.0096 7.33766 81.0288Z" fill="black"></path><path d="M11.3015 71.1796L11.1653 73.5692L3.87974 73.1579L3.9981 71.0816L5.20479 71.0693C4.79121 70.8023 4.47934 70.4607 4.26918 70.0444C4.05417 69.6278 3.96147 69.1597 3.9911 68.64C4.00024 68.4798 4.02166 68.3177 4.05535 68.154C4.08933 67.9853 4.13545 67.8174 4.19371 67.6502L6.32634 68.0629C6.20011 68.3969 6.12854 68.712 6.11165 69.0083C6.09006 69.3871 6.1538 69.722 6.30288 70.013C6.45196 70.3041 6.67021 70.5357 6.95763 70.7078C7.24533 70.8751 7.59075 70.9701 7.99388 70.9929L11.3015 71.1796Z" fill="black"></path><path d="M3.31312 63.2155C3.2642 63.5132 3.11955 63.7484 2.87915 63.9212C2.63475 64.0884 2.36369 64.1478 2.066 64.0993C1.7731 64.0516 1.53999 63.9102 1.36666 63.675C1.18931 63.4342 1.1251 63.1649 1.17401 62.8673C1.22372 62.5649 1.37117 62.3277 1.61637 62.1557C1.85676 61.9828 2.1234 61.9203 2.4163 61.968C2.714 62.0164 2.95152 62.1611 3.12886 62.4019C3.30141 62.6419 3.36282 62.9131 3.31312 63.2155ZM12.2521 63.4508L11.8639 65.8126L4.66152 64.6401L5.0497 62.2783L12.2521 63.4508Z" fill="black"></path><path d="M14.0244 53.4415C14.3763 54.4877 14.4044 55.5251 14.1084 56.5536C13.8851 57.3297 13.5203 57.9819 13.0138 58.5104C12.5041 59.0328 11.9144 59.3934 11.2447 59.592C10.575 59.7907 9.88229 59.788 9.16648 59.584C8.4881 59.3907 7.93098 59.0574 7.49513 58.5842C7.0546 58.1096 6.75998 57.5501 6.61128 56.9058C6.46392 56.2568 6.4918 55.5793 6.69493 54.8734C6.90612 54.1394 7.26253 53.5429 7.76414 53.0839C8.26575 52.6249 8.86505 52.3278 9.56203 52.1925C10.2557 52.0513 11.0025 52.0947 11.8026 52.3227L12.0271 52.3867L10.6066 57.3236C10.8601 57.3047 11.0999 57.2365 11.3261 57.1189C11.5537 56.9966 11.7582 56.8222 11.9398 56.5957C12.1167 56.3679 12.2529 56.0881 12.3485 55.7561C12.5462 55.0689 12.5096 54.3604 12.2387 53.6306L14.0244 53.4415ZM9.53972 57.1258L10.3791 54.2085C10.1091 54.1619 9.8546 54.1754 9.61576 54.2489C9.37692 54.3225 9.17041 54.4508 8.99625 54.6339C8.82343 54.8122 8.69936 55.0323 8.62403 55.2941C8.54735 55.5606 8.54024 55.814 8.60269 56.0544C8.66181 56.2888 8.77312 56.5001 8.93664 56.6883C9.09681 56.8705 9.29784 57.0164 9.53972 57.1258Z" fill="black"></path><path d="M18.7568 44.7324L17.7643 46.9104L14.4321 45.4064C13.9577 45.1922 13.5432 45.1279 13.1888 45.2135C12.8364 45.2946 12.5765 45.5189 12.4091 45.8863C12.2941 46.1386 12.2553 46.388 12.2927 46.6344C12.3321 46.8764 12.4439 47.1003 12.6281 47.3062C12.8123 47.512 13.0662 47.688 13.3899 47.8341L16.6689 49.3141L15.6763 51.4921L9.02525 48.4901L9.81807 46.7504L10.9155 47.1576C10.6323 46.7469 10.4774 46.3007 10.451 45.8191C10.4245 45.3375 10.5293 44.8377 10.7653 44.3198C11.1426 43.492 11.6953 42.9595 12.4235 42.7225C13.1472 42.4834 13.9614 42.568 14.8659 42.9762L18.7568 44.7324Z" fill="black"></path><path d="M22.5305 36.6068C22.6915 37.1301 22.7305 37.6768 22.6476 38.2468C22.5647 38.8168 22.3511 39.3699 22.0066 39.9061C21.5963 40.5445 21.092 41.028 20.4936 41.3564C19.8937 41.6781 19.2616 41.8295 18.5973 41.8104C17.9289 41.7887 17.2869 41.5819 16.6713 41.1902C16.0557 40.7984 15.5998 40.3065 15.3037 39.7144C15.0034 39.1197 14.8763 38.4852 14.9221 37.8109C14.9665 37.1299 15.1938 36.4701 15.604 35.8317C15.9458 35.2996 16.358 34.8786 16.8405 34.5686C17.3215 34.252 17.8304 34.054 18.3671 33.9746L18.8595 35.9486C18.5951 35.9822 18.3413 36.0801 18.0982 36.2426C17.8576 36.4009 17.6598 36.6008 17.5047 36.8423C17.3311 37.1124 17.2355 37.3917 17.2178 37.6803C17.1986 37.9622 17.2542 38.2311 17.3846 38.4871C17.5176 38.739 17.7176 38.9498 17.9843 39.1196C18.2593 39.2946 18.5417 39.3906 18.8313 39.4077C19.1195 39.4182 19.3902 39.3569 19.6433 39.2239C19.8991 39.0868 20.1138 38.8832 20.2873 38.6131C20.4425 38.3716 20.5431 38.107 20.5893 37.8192C20.6354 37.5314 20.617 37.2631 20.534 37.0142L22.5305 36.6068Z" fill="black"></path><path d="M28.7193 29.9412C28.6035 31.0378 28.1965 31.9917 27.4983 32.8029C26.9715 33.415 26.3675 33.8557 25.6863 34.1252C25.0045 34.3879 24.3175 34.4702 23.6252 34.3723C22.9329 34.2743 22.3035 33.9839 21.737 33.5011C21.2002 33.0435 20.8321 32.5092 20.6327 31.8981C20.4296 31.2839 20.3947 30.6533 20.528 30.0062C20.6645 29.3555 20.9723 28.7517 21.4515 28.195C21.9497 27.6161 22.5228 27.2224 23.1707 27.014C23.8186 26.8056 24.4879 26.7849 25.1786 26.9518C25.8688 27.1119 26.5305 27.4617 27.1636 28.0014L27.3413 28.1529L23.9901 32.0465C24.2287 32.1348 24.4754 32.1725 24.7303 32.1597C24.9884 32.1432 25.2473 32.0699 25.507 31.9397C25.763 31.8063 26.0037 31.6087 26.229 31.3469C26.6955 30.8049 26.9575 30.1462 27.0152 29.3707L28.7193 29.9412ZM23.1016 31.4234L25.0818 29.1226C24.8555 28.9679 24.6182 28.8744 24.3702 28.842C24.1221 28.8095 23.8807 28.8402 23.6459 28.9341C23.4142 29.0243 23.2095 29.1726 23.0318 29.3791C22.8509 29.5892 22.7388 29.8165 22.6954 30.0608C22.6515 30.2982 22.6647 30.5364 22.7351 30.7753C22.8049 31.0074 22.9271 31.2235 23.1016 31.4234Z" fill="black"></path><path d="M47.8516 14.2834L42.6639 16.9604L41.821 15.3425L47.0087 12.6655L47.8516 14.2834Z" fill="black"></path><path d="M76.6478 11.137L74.0798 11.1947L73.8885 2.76868L72.1376 3.45038L71.289 1.44034L74.3639 0.239826L76.3992 0.194041L76.6478 11.137Z" fill="black"></path><path d="M79.7468 10.3166L80.9129 8.528C81.2657 8.83565 81.6135 9.0767 81.9565 9.25115C82.2994 9.42561 82.6329 9.53051 82.9569 9.56588C83.2616 9.59913 83.5361 9.57281 83.7805 9.48693C84.0303 9.39674 84.2338 9.2599 84.391 9.07643C84.5488 8.88811 84.6424 8.66098 84.6717 8.39503C84.7196 7.95983 84.5683 7.60076 84.2177 7.31782C83.8725 7.03056 83.3638 6.85026 82.6916 6.77689L82.2056 6.72385L82.399 4.96856L82.885 5.0216C83.2526 5.06171 83.5827 5.04147 83.8755 4.96086C84.173 4.88079 84.4123 4.75275 84.5932 4.57674C84.7795 4.39643 84.8867 4.17814 84.915 3.92185C84.9379 3.71393 84.9025 3.52411 84.8089 3.3524C84.7158 3.17585 84.5751 3.03082 84.387 2.9173C84.2036 2.80432 83.9862 2.7341 83.7348 2.70665C83.4688 2.67763 83.1771 2.70451 82.8596 2.78731C82.5421 2.87011 82.1938 3.01072 81.8147 3.20913L80.9071 1.31899C81.3834 0.994159 81.9057 0.762436 82.474 0.623821C83.0477 0.480899 83.6344 0.442162 84.234 0.507609C84.9014 0.580446 85.4805 0.765989 85.9713 1.06424C86.4675 1.35818 86.8399 1.7316 87.0886 2.18448C87.3421 2.6379 87.4387 3.13781 87.3785 3.68422C87.3145 4.26449 87.0904 4.76609 86.7061 5.18905C86.3266 5.61253 85.8498 5.92018 85.2756 6.11198C85.9727 6.40339 86.4983 6.8082 86.8523 7.32641C87.2117 7.84032 87.3552 8.42609 87.2827 9.08372C87.2161 9.68816 86.9821 10.2132 86.5806 10.6587C86.1845 11.0999 85.6738 11.4259 85.0486 11.6366C84.4239 11.8425 83.7319 11.904 82.9727 11.8211C82.3585 11.7541 81.7743 11.5925 81.2201 11.3362C80.6665 11.0752 80.1754 10.7353 79.7468 10.3166Z" fill="black"></path><path d="M99.6578 15.7879L97.2438 14.9102L98.8558 10.5192L97.1549 3.23108L100.09 4.29831L100.834 8.81585L104.356 5.84928L107.291 6.91651L101.267 11.4038L99.6578 15.7879Z" fill="black"></path><path d="M110.816 20.5268C109.714 20.6331 108.695 20.4266 107.759 19.9075C107.053 19.5158 106.5 19.0144 106.1 18.4035C105.708 17.7906 105.491 17.1366 105.451 16.4413C105.411 15.746 105.573 15.0737 105.937 14.4243C106.282 13.8088 106.735 13.3427 107.297 13.0259C107.862 12.7048 108.476 12.5447 109.139 12.5453C109.806 12.5484 110.461 12.728 111.103 13.0844C111.771 13.4548 112.272 13.9354 112.604 14.526C112.937 15.1167 113.089 15.7658 113.061 16.4733C113.039 17.179 112.825 17.8947 112.419 18.6205L112.305 18.8242L107.812 16.3323C107.772 16.5828 107.784 16.8312 107.847 17.0774C107.914 17.326 108.037 17.564 108.216 17.7914C108.398 18.0146 108.64 18.2099 108.942 18.3775C109.567 18.7243 110.267 18.8484 111.042 18.7495L110.816 20.5268ZM108.251 15.3405L110.905 16.813C111.013 16.5611 111.058 16.3109 111.041 16.0623C111.024 15.8138 110.947 15.5843 110.808 15.3738C110.674 15.1658 110.487 14.9957 110.249 14.8635C110.007 14.729 109.761 14.665 109.512 14.6716C109.27 14.6762 109.038 14.7368 108.816 14.8532C108.602 14.9678 108.413 15.1302 108.251 15.3405Z" fill="black"></path><path d="M117.731 26.65L116.063 25.3837L116.47 24.6484C116.068 24.7338 115.662 24.7278 115.252 24.6306C114.842 24.5334 114.453 24.3451 114.085 24.0656C113.682 23.7597 113.383 23.4104 113.188 23.0178C112.992 22.6251 112.907 22.2244 112.932 21.8159C112.964 21.4065 113.113 21.028 113.379 20.6805C113.66 20.3137 114.004 20.0648 114.411 19.9339C114.822 19.8059 115.26 19.7936 115.726 19.8971C116.193 20.0005 116.647 20.2199 117.088 20.5552C117.34 20.7464 117.568 20.9617 117.77 21.201C117.977 21.4433 118.155 21.6981 118.306 21.9652L118.399 21.8436C118.556 21.6389 118.63 21.4142 118.622 21.1695C118.613 20.9248 118.535 20.6791 118.387 20.4324C118.242 20.1818 118.034 19.9536 117.762 19.7477C117.495 19.5447 117.203 19.3901 116.886 19.2839C116.572 19.1738 116.251 19.1165 115.923 19.1122L116.511 17.3137C117.073 17.4286 117.594 17.5922 118.075 17.8045C118.563 18.0159 118.996 18.2657 119.376 18.554C119.961 18.9981 120.381 19.4973 120.637 20.0516C120.896 20.6089 120.984 21.1857 120.901 21.7821C120.821 22.3747 120.563 22.9548 120.128 23.5224L117.731 26.65ZM115.603 22.9731C115.801 23.1231 116.023 23.2248 116.27 23.2781C116.524 23.3305 116.764 23.3293 116.99 23.2747C117.22 23.223 117.398 23.1176 117.527 22.9584L117.544 22.9352C117.466 22.7171 117.352 22.511 117.2 22.3166C117.052 22.1185 116.883 21.9473 116.693 21.8032C116.41 21.5885 116.139 21.4743 115.88 21.4607C115.623 21.4433 115.423 21.5292 115.278 21.7184C115.186 21.8381 115.136 21.9746 115.129 22.1279C115.125 22.2774 115.164 22.4262 115.247 22.5744C115.329 22.7226 115.448 22.8555 115.603 22.9731Z" fill="black"></path><path d="M121.261 30.0786L119.561 28.3936L124.724 23.236L126.201 24.7001L125.406 25.6076C125.881 25.4763 126.345 25.4702 126.797 25.5894C127.252 25.7052 127.665 25.9463 128.035 26.3128C128.149 26.4258 128.256 26.5491 128.356 26.6828C128.46 26.8198 128.555 26.9655 128.641 27.1197L126.911 28.4358C126.745 28.1204 126.557 27.8582 126.346 27.6493C126.077 27.3822 125.783 27.2077 125.466 27.126C125.148 27.0443 124.829 27.0535 124.509 27.1536C124.192 27.2572 123.891 27.4517 123.605 27.7371L121.261 30.0786Z" fill="black"></path><path d="M125.075 33.2088L126.961 32.3707C126.926 32.5774 126.932 32.8234 126.978 33.1088C127.023 33.3942 127.102 33.6784 127.215 33.9613C127.334 34.2451 127.473 34.4881 127.633 34.6903C127.787 34.8849 127.941 35.0086 128.094 35.0615C128.247 35.1143 128.382 35.0957 128.496 35.0057C128.604 34.9217 128.66 34.8092 128.667 34.6683C128.677 34.5244 128.658 34.3597 128.611 34.1744C128.564 33.989 128.501 33.7845 128.424 33.561C128.322 33.2448 128.229 32.9037 128.145 32.5376C128.064 32.1685 128.06 31.8069 128.133 31.4527C128.213 31.0994 128.437 30.7787 128.805 30.4907C129.161 30.2117 129.542 30.0618 129.947 30.041C130.355 30.0239 130.765 30.1297 131.175 30.3583C131.585 30.5869 131.972 30.9301 132.334 31.388C132.928 32.1397 133.335 33.0418 133.553 34.0942L131.677 34.7107C131.68 34.5106 131.651 34.2806 131.588 34.0209C131.529 33.7581 131.446 33.5046 131.34 33.2604C131.24 33.0169 131.13 32.8189 131.01 32.6663C130.886 32.5099 130.76 32.4137 130.632 32.3777C130.505 32.3418 130.389 32.3643 130.286 32.4453C130.194 32.5173 130.14 32.6181 130.125 32.7476C130.113 32.874 130.131 33.03 130.178 33.2153C130.226 33.4007 130.286 33.61 130.359 33.8434C130.472 34.1748 130.569 34.5251 130.65 34.8942C130.731 35.2633 130.733 35.6264 130.656 35.9836C130.582 36.3445 130.359 36.6705 129.987 36.9615C129.624 37.2465 129.227 37.3963 128.798 37.4109C128.373 37.4225 127.943 37.3055 127.507 37.06C127.074 36.8184 126.664 36.4533 126.278 35.9649C125.632 35.1484 125.231 34.2297 125.075 33.2088Z" fill="black"></path><path d="M132.269 44.6816L142.141 39.955L145.266 46.4197L143.246 47.3871L141.239 43.2349L139.35 44.1393L141.23 48.0287L139.209 48.996L137.329 45.1067L135.407 46.0268L137.446 50.2447L135.425 51.212L132.269 44.6816Z" fill="black"></path><path d="M136.997 55.9615L136.029 52.778L140.501 54.6924L143.056 50.8056L144.027 53.9961L142.49 55.8386L144.791 56.5094L145.76 59.6928L141.484 57.8717L138.813 61.9305L137.843 58.7401L139.537 56.7129L136.997 55.9615Z" fill="black"></path><path d="M135.641 66.1571L135.305 63.7799L146.146 62.2647L146.439 64.3457L145.494 64.5956C145.883 64.8458 146.204 65.167 146.456 65.5591C146.712 65.9506 146.875 66.392 146.945 66.8833C147.036 67.5288 146.953 68.1249 146.696 68.6717C146.444 69.2178 146.054 69.6751 145.526 70.0436C145.003 70.4114 144.381 70.6458 143.658 70.7468C142.935 70.8478 142.269 70.7936 141.66 70.584C141.055 70.3738 140.554 70.0411 140.156 69.5859C139.762 69.13 139.52 68.5794 139.429 67.9339C139.366 67.4859 139.386 67.0581 139.491 66.6505C139.601 66.2471 139.78 65.8782 140.027 65.544L135.641 66.1571ZM141.459 66.9649C141.502 67.2732 141.61 67.5356 141.784 67.7521C141.957 67.9734 142.176 68.132 142.44 68.2277C142.71 68.3275 143.001 68.3556 143.314 68.3118C143.632 68.2674 143.905 68.1605 144.131 67.9913C144.358 67.8221 144.525 67.6097 144.631 67.3541C144.742 67.0979 144.776 66.8156 144.733 66.5073C144.692 66.2183 144.59 65.9649 144.426 65.747C144.268 65.5333 144.066 65.3724 143.82 65.2644C143.579 65.1557 143.309 65.1098 143.012 65.1268L142.701 65.1702C142.421 65.234 142.179 65.3513 141.977 65.522C141.775 65.6926 141.628 65.9023 141.535 66.1511C141.444 66.4046 141.418 66.6759 141.459 66.9649Z" fill="black"></path><path d="M140.732 79.7224C140.112 78.8081 139.805 77.8159 139.813 76.7456C139.819 75.9381 139.995 75.2121 140.34 74.5676C140.69 73.928 141.161 73.423 141.752 73.0528C142.344 72.6825 143.012 72.5001 143.756 72.5055C144.461 72.5107 145.088 72.6831 145.635 73.0228C146.187 73.3625 146.621 73.823 146.938 74.4043C147.255 74.9904 147.411 75.6507 147.405 76.3853C147.399 77.149 147.217 77.819 146.858 78.3953C146.498 78.9716 146.001 79.418 145.366 79.7344C144.736 80.0558 144.005 80.2134 143.174 80.2073L142.94 80.2056L142.978 75.0685C142.739 75.1543 142.526 75.2841 142.34 75.4579C142.154 75.6365 142.004 75.8592 141.89 76.126C141.781 76.3927 141.725 76.6988 141.723 77.0442C141.718 77.7593 141.944 78.4323 142.401 79.0633L140.732 79.7224ZM144.059 74.9743L144.036 78.0098C144.309 77.9826 144.55 77.9017 144.761 77.767C144.971 77.6323 145.135 77.4535 145.253 77.2306C145.372 77.0126 145.432 76.7673 145.434 76.4949C145.436 76.2176 145.375 75.9715 145.25 75.7565C145.13 75.5464 144.966 75.3725 144.757 75.2348C144.554 75.102 144.321 75.0151 144.059 74.9743Z" fill="black"></path><path d="M139.291 84.4642L139.625 82.0941L146.852 83.1017L146.562 85.1611L145.358 85.0743C145.749 85.3743 146.031 85.7403 146.206 86.1724C146.386 86.6051 146.44 87.0792 146.367 87.5947C146.345 87.7537 146.31 87.9134 146.263 88.0738C146.215 88.239 146.155 88.4026 146.083 88.5645L143.992 87.9782C144.145 87.6558 144.243 87.3476 144.284 87.0538C144.337 86.678 144.301 86.339 144.177 86.0368C144.052 85.7345 143.854 85.4859 143.582 85.2907C143.309 85.1004 142.972 84.9774 142.572 84.9216L139.291 84.4642Z" fill="black"></path><path d="M146.593 93.0564C146.667 92.7639 146.83 92.5414 147.084 92.3889C147.342 92.2423 147.617 92.2054 147.91 92.2781C148.198 92.3497 148.418 92.5098 148.571 92.7584C148.728 93.0129 148.77 93.2864 148.697 93.579C148.622 93.8763 148.455 94.1005 148.197 94.2518C147.943 94.4043 147.672 94.4447 147.384 94.3732C147.091 94.3005 146.866 94.1368 146.71 93.8823C146.558 93.629 146.519 93.3537 146.593 93.0564ZM137.703 92.0882L138.285 89.7667L145.367 91.5262L144.785 93.8477L137.703 92.0882Z" fill="black"></path><path d="M135.108 101.916C134.843 100.845 134.901 99.809 135.281 98.8085C135.568 98.0536 135.985 97.4336 136.534 96.9487C137.085 96.47 137.703 96.1592 138.387 96.0163C139.071 95.8734 139.761 95.9329 140.458 96.195C141.118 96.4434 141.646 96.8213 142.041 97.3286C142.441 97.8377 142.688 98.4193 142.783 99.0736C142.876 99.7324 142.793 100.405 142.532 101.092C142.261 101.806 141.856 102.371 141.318 102.787C140.78 103.203 140.158 103.45 139.452 103.527C138.749 103.611 138.008 103.507 137.23 103.214L137.011 103.131L138.835 98.329C138.581 98.327 138.336 98.3752 138.101 98.4739C137.864 98.577 137.646 98.734 137.446 98.9447C137.251 99.1572 137.092 99.4248 136.969 99.7477C136.715 100.416 136.693 101.125 136.903 101.875L135.108 101.916ZM139.882 98.6138L138.804 101.452C139.07 101.52 139.325 101.528 139.569 101.474C139.813 101.42 140.029 101.309 140.218 101.141C140.405 100.978 140.547 100.769 140.644 100.514C140.742 100.255 140.77 100.003 140.728 99.7583C140.688 99.5199 140.595 99.3002 140.447 99.0992C140.303 98.9045 140.114 98.7427 139.882 98.6138Z" fill="black"></path><path d="M129.669 110.206L130.838 108.117L134.035 109.89C134.49 110.142 134.898 110.24 135.258 110.184C135.616 110.133 135.894 109.93 136.091 109.578C136.227 109.336 136.286 109.091 136.269 108.842C136.25 108.598 136.157 108.366 135.99 108.145C135.824 107.925 135.585 107.729 135.274 107.557L132.128 105.812L133.297 103.724L139.679 107.262L138.745 108.93L137.685 108.434C137.933 108.867 138.051 109.324 138.038 109.806C138.024 110.288 137.878 110.778 137.6 111.274C137.156 112.068 136.561 112.553 135.816 112.729C135.075 112.908 134.27 112.757 133.402 112.276L129.669 110.206Z" fill="black"></path><path d="M125.236 117.993C125.119 117.459 125.125 116.911 125.254 116.349C125.384 115.788 125.643 115.255 126.03 114.749C126.492 114.146 127.034 113.706 127.658 113.428C128.282 113.157 128.925 113.058 129.585 113.132C130.25 113.209 130.873 113.468 131.454 113.909C132.035 114.35 132.449 114.878 132.695 115.492C132.946 116.109 133.02 116.752 132.919 117.42C132.818 118.095 132.537 118.734 132.076 119.336C131.691 119.838 131.246 120.224 130.739 120.493C130.234 120.769 129.71 120.924 129.169 120.959L128.841 118.952C129.107 118.94 129.368 118.863 129.624 118.721C129.876 118.583 130.09 118.401 130.265 118.173C130.46 117.918 130.578 117.647 130.62 117.361C130.662 117.082 130.629 116.809 130.52 116.544C130.408 116.282 130.226 116.055 129.974 115.864C129.715 115.667 129.441 115.548 129.154 115.507C128.868 115.473 128.593 115.512 128.329 115.623C128.063 115.739 127.832 115.924 127.637 116.179C127.463 116.407 127.34 116.662 127.271 116.945C127.201 117.228 127.197 117.497 127.259 117.752L125.236 117.993Z" fill="black"></path><path d="M118.516 124.128C118.722 123.045 119.206 122.127 119.969 121.377C120.545 120.81 121.183 120.421 121.884 120.208C122.585 120.003 123.277 119.977 123.959 120.132C124.64 120.286 125.244 120.628 125.768 121.156C126.266 121.656 126.589 122.219 126.737 122.844C126.889 123.473 126.872 124.104 126.685 124.738C126.496 125.375 126.139 125.952 125.616 126.467C125.071 127.003 124.468 127.348 123.805 127.502C123.142 127.657 122.473 127.622 121.799 127.399C121.124 127.182 120.493 126.779 119.907 126.189L119.742 126.024L123.403 122.419C123.173 122.312 122.93 122.254 122.675 122.246C122.416 122.241 122.152 122.293 121.883 122.401C121.616 122.513 121.36 122.69 121.114 122.932C120.605 123.434 120.289 124.069 120.168 124.837L118.516 124.128ZM124.237 123.114L122.074 125.243C122.287 125.416 122.516 125.529 122.76 125.582C123.005 125.635 123.248 125.624 123.49 125.55C123.728 125.479 123.944 125.348 124.138 125.157C124.336 124.962 124.466 124.745 124.53 124.505C124.593 124.272 124.6 124.034 124.549 123.79C124.499 123.553 124.395 123.327 124.237 123.114Z" fill="black"></path><path d="M98.1522 138.165L103.542 135.923L104.249 137.605L98.8585 139.847L98.1522 138.165Z" fill="black"></path></svg>