<svg width="188" height="46" viewBox="0 0 188 46" fill="none" xmlns="http://www.w3.org/2000/svg">
<path d="M61.336 38H53.224V1.86L61.336 1.288V20.944L71.476 12.052L76.208 17.72L69.344 23.336L78.236 38H69.188L63.572 28.016L61.336 29.836V38ZM87.0224 30.096C87.0224 30.512 87.1264 30.8933 87.3344 31.24C87.577 31.5867 87.8717 31.864 88.2184 32.072C88.5997 32.28 89.0157 32.384 89.4664 32.384C90.1944 32.384 90.9397 32.228 91.7024 31.916C92.465 31.5693 93.193 31.084 93.8864 30.46V27.34H89.9344C89.033 27.34 88.3224 27.6173 87.8024 28.172C87.2824 28.7267 87.0224 29.368 87.0224 30.096ZM83.3824 20.58L81.1984 14.34C81.9957 13.8893 82.9664 13.4907 84.1104 13.144C85.289 12.7973 86.5197 12.52 87.8024 12.312C89.1197 12.104 90.2984 12 91.3384 12C93.4877 12 95.3597 12.416 96.9544 13.248C98.5837 14.08 99.8317 15.2413 100.698 16.732C101.6 18.2227 102.05 19.956 102.05 21.932V38H97.5264L95.6024 35.348C94.7357 36.3533 93.7824 37.1507 92.7424 37.74C91.7024 38.3293 90.593 38.624 89.4144 38.624C86.2944 38.624 83.9717 37.844 82.4464 36.284C80.921 34.724 80.1584 32.6787 80.1584 30.148C80.1584 27.4787 81.0597 25.5373 82.8624 24.324C84.665 23.076 87.005 22.452 89.8824 22.452H93.8344L93.7824 22.296C93.6784 21.2213 93.297 20.4067 92.6384 19.852C92.0144 19.2627 91.1997 18.968 90.1944 18.968C89.1544 18.968 87.993 19.124 86.7104 19.436C85.4277 19.748 84.3184 20.1293 83.3824 20.58ZM115.407 38H107.243V12.832H111.403L113.691 16.42C114.384 15.8653 115.216 15.3107 116.187 14.756C117.158 14.2013 118.163 13.7333 119.203 13.352C120.278 12.9707 121.266 12.78 122.167 12.78L123.831 19.28C123.034 19.28 122.132 19.436 121.127 19.748C120.156 20.06 119.168 20.4933 118.163 21.048C117.158 21.568 116.239 22.192 115.407 22.92V38ZM135.212 38H127.048V12.78H135.212V38ZM131.104 9.296C129.89 9.296 128.833 8.86266 127.932 7.996C127.065 7.09466 126.632 6.03733 126.632 4.824C126.632 3.576 127.065 2.51866 127.932 1.652C128.833 0.750665 129.89 0.299999 131.104 0.299999C132.317 0.299999 133.374 0.750665 134.276 1.652C135.177 2.51866 135.628 3.576 135.628 4.824C135.628 6.03733 135.177 7.09466 134.276 7.996C133.409 8.86266 132.352 9.296 131.104 9.296ZM164.006 27.6H147.834C148.042 28.5013 148.406 29.2813 148.926 29.94C149.446 30.5987 150.157 31.1187 151.058 31.5C151.96 31.8467 153.104 32.02 154.49 32.02C155.981 32.02 157.298 31.8293 158.442 31.448C159.621 31.032 160.678 30.564 161.614 30.044L163.902 35.712C163.209 36.232 162.342 36.7173 161.302 37.168C160.297 37.6187 159.17 37.9653 157.922 38.208C156.674 38.4853 155.34 38.624 153.918 38.624C150.868 38.624 148.216 38.104 145.962 37.064C143.744 35.9893 142.028 34.464 140.814 32.488C139.636 30.512 139.046 28.1547 139.046 25.416C139.046 22.6427 139.601 20.268 140.71 18.292C141.854 16.2813 143.414 14.7387 145.39 13.664C147.366 12.5547 149.637 12 152.202 12C154.872 12 157.073 12.6067 158.806 13.82C160.574 14.9987 161.874 16.5933 162.706 18.604C163.573 20.58 164.006 22.764 164.006 25.156V27.6ZM147.73 22.972H156.258C156.154 22.14 155.912 21.412 155.53 20.788C155.184 20.164 154.716 19.6613 154.126 19.28C153.537 18.8987 152.826 18.708 151.994 18.708C151.266 18.708 150.59 18.8813 149.966 19.228C149.342 19.5747 148.84 20.06 148.458 20.684C148.077 21.308 147.834 22.0707 147.73 22.972ZM186.752 12.78L187.168 17.356L175.78 31.552H187.168L187.896 38H166.732L165.692 33.736L177.132 19.28H167.72L166.628 12.78H186.752Z" fill="white"/>
<path d="M19.9763 1C17.3531 0.99948 14.7556 1.51636 12.332 2.52112C9.90836 3.52588 7.70617 4.99884 5.85115 6.85588C3.99613 8.71292 2.52463 10.9177 1.52068 13.3442C0.51673 15.7707 -5.15105e-08 18.3715 0 20.998L0 27.6561C3.45537 28.0524 10.4572 25.5398 9.04809 23.1342L6.56244 17.5858L32.456 15.8895L15.4364 37.4371L12.7053 31.3933C12.7053 31.3933 10.9044 26.059 0.395804 41H20.0752C22.6916 41.0005 25.2824 40.485 27.6998 39.4828C30.1172 38.4806 32.3137 37.0115 34.1639 35.1592C36.0142 33.307 37.4819 31.1079 38.4832 28.6876C39.4846 26.2673 40 23.6732 40 21.0535C40.0005 18.4202 39.483 15.8126 38.4769 13.3797C37.4709 10.9467 35.996 8.73597 34.1366 6.87378C32.2772 5.01158 30.0696 3.53439 27.6399 2.52656C25.2103 1.51873 22.6061 1 19.9763 1Z" fill="#FFCC00"/>
</svg>
